<svg width="24" height="25" viewBox="0 0 24 25" fill="none" xmlns="http://www.w3.org/2000/svg">
<path d="M14.8569 17.851C16.7514 17.6263 18.5783 17.1808 20.3111 16.5412C18.8743 14.9463 17.9998 12.8349 17.9998 10.5193V9.81847C17.9999 9.80209 18 9.7857 18 9.76929C18 6.45558 15.3137 3.76929 12 3.76929C8.68629 3.76929 6 6.45558 6 9.76929L5.9998 10.5193C5.9998 12.8349 5.12527 14.9463 3.68848 16.5412C5.4214 17.1809 7.24843 17.6263 9.14314 17.851M14.8569 17.851C13.92 17.9621 12.9666 18.0193 11.9998 18.0193C11.0332 18.0193 10.0799 17.9621 9.14314 17.851M14.8569 17.851C14.9498 18.1404 15 18.449 15 18.7693C15 20.4261 13.6569 21.7693 12 21.7693C10.3431 21.7693 9 20.4261 9 18.7693C9 18.449 9.05019 18.1404 9.14314 17.851" stroke="#0295FF" stroke-width="1.5" stroke-linecap="round" stroke-linejoin="round"/>
</svg>
