<svg width="24" height="24" viewBox="0 0 24 24" fill="none" xmlns="http://www.w3.org/2000/svg">
<mask id="path-1-outside-1_5005_196" maskUnits="userSpaceOnUse" x="1.67969" y="0.140625" width="20" height="24" fill="black">
<rect fill="white" x="1.67969" y="0.140625" width="20" height="24"/>
<path d="M10.5698 0.870289C9.14009 1.03435 8.18853 1.62029 7.83228 2.55779C7.78072 2.68904 7.6729 2.8156 7.51822 2.94216C7.02603 3.33123 6.68384 3.90779 6.54322 4.60154C6.4354 5.11248 6.44478 5.99841 6.56197 6.6781C6.65103 7.18435 6.75884 7.67654 6.82447 7.84998C6.8479 7.90154 6.82447 7.92029 6.74009 7.92029C6.27603 7.92029 5.7979 8.27185 5.6479 8.71716C5.52134 9.09216 5.56353 9.68748 5.74165 10.0437C6.01353 10.5922 6.59009 10.9672 7.16197 10.9672H7.42915L7.58384 11.3562C7.76665 11.825 8.13228 12.4531 8.46978 12.875C8.60572 13.0437 8.71822 13.1984 8.71822 13.2125C8.71353 13.2265 8.52134 13.3344 8.28228 13.4515C7.30259 13.925 6.63228 14.9281 6.47759 16.1469L6.44478 16.4234L5.64322 16.6156C4.65415 16.8594 4.28384 17.0375 3.83384 17.4922C3.48697 17.8437 3.23384 18.2937 3.12134 18.7719C3.04165 19.0953 2.65728 22.6672 2.68072 22.8547C2.70415 23.0422 2.90572 23.1781 3.07447 23.1219C3.14947 23.0984 3.23384 23.0281 3.26197 22.9625C3.29478 22.9015 3.40259 22.0062 3.5104 20.975C3.61822 19.9437 3.74009 18.9781 3.78228 18.8281C3.87603 18.4859 4.13853 18.0781 4.4104 17.839C4.71509 17.5719 5.09478 17.4172 5.91509 17.225L6.65103 17.0515L6.82915 17.225C7.4104 17.7922 8.40884 18.2375 9.59478 18.4578L10.0307 18.5375V20.1078C10.0307 21.8937 10.0307 21.889 10.3588 21.889C10.687 21.889 10.687 21.889 10.687 20.1547V18.6312H11.9995H13.312V20.1547C13.312 21.889 13.312 21.889 13.6401 21.889C13.9682 21.889 13.9682 21.8937 13.9682 20.1078V18.5375L14.4042 18.4578C15.5901 18.2375 16.5885 17.7922 17.1698 17.225L17.3479 17.0515L18.1588 17.2484C18.9979 17.4453 19.3307 17.5906 19.6588 17.8953C19.8745 18.0969 20.137 18.5328 20.2167 18.8281C20.2588 18.9781 20.3807 19.9437 20.4885 20.975C20.5963 22.0062 20.7088 22.9015 20.737 22.9672C20.7651 23.0281 20.8448 23.1031 20.9198 23.1265C21.0838 23.1875 21.2948 23.0422 21.3182 22.8547C21.3417 22.6672 20.9573 19.0953 20.8776 18.7719C20.7698 18.3125 20.4979 17.8297 20.1557 17.4875C19.7151 17.0375 19.3354 16.8594 18.3557 16.6156L17.5542 16.4234L17.5213 16.1469C17.3667 14.9281 16.6917 13.9203 15.7167 13.4469C15.4823 13.3344 15.2854 13.2265 15.2854 13.2125C15.2807 13.1984 15.3932 13.0437 15.5292 12.875C15.8667 12.4531 16.2323 11.825 16.4151 11.3562L16.5698 10.9672H16.837C17.4088 10.9672 17.9854 10.5922 18.2573 10.0437C18.4354 9.68748 18.4776 9.09216 18.351 8.71716C18.201 8.27185 17.7229 7.92029 17.2588 7.92029C17.1885 7.92029 17.1557 7.89685 17.1698 7.85935C17.1792 7.83123 17.2354 7.62498 17.2917 7.40466C17.676 5.86716 17.601 4.48904 17.0854 3.63123L16.9213 3.36404L17.0995 3.00779C17.2682 2.66091 17.2729 2.63748 17.2729 2.13591C17.2682 1.5406 17.1557 1.13279 16.9401 0.94529C16.7948 0.818726 16.7667 0.823414 16.2885 1.01091C15.7963 1.2031 15.0463 1.21716 13.7807 1.05779C12.4213 0.889038 11.1088 0.809351 10.5698 0.870289ZM12.051 1.54529C12.4542 1.56873 13.1995 1.64373 13.7151 1.70935C14.8776 1.85466 15.6229 1.86404 16.1667 1.73279C16.3823 1.68123 16.5745 1.64841 16.5885 1.66248C16.6026 1.67654 16.6213 1.83591 16.6307 2.01404C16.6542 2.41248 16.5651 2.70779 16.3073 3.04998C16.087 3.34529 16.0917 3.43904 16.3307 3.70154C16.9213 4.3531 17.0385 5.63279 16.6542 7.21716C16.5932 7.48904 16.5229 7.7281 16.4995 7.74685C16.4432 7.81248 15.8948 7.1656 15.7448 6.85154C15.6276 6.61248 15.5854 6.4156 15.4963 5.75466C15.4026 5.03279 15.3792 4.94373 15.276 4.86404C15.201 4.79841 15.1213 4.77966 15.0229 4.79373C14.0432 4.96716 13.7245 5.01404 13.2651 5.05623C12.1448 5.15935 10.7667 5.10779 9.65572 4.9156C9.3604 4.86404 9.05103 4.80779 8.96665 4.79373C8.73228 4.75154 8.60103 4.92029 8.55884 5.29998C8.46509 6.14841 8.37603 6.59373 8.24947 6.8656C8.10415 7.1656 7.55572 7.81248 7.49947 7.74685C7.43853 7.68123 7.26978 6.97341 7.19478 6.4906C7.10572 5.90466 7.10572 5.13123 7.19009 4.72341C7.32134 4.12341 7.64478 3.62185 8.0854 3.3406C8.1979 3.27029 8.31509 3.15779 8.33853 3.09216C8.36197 3.02654 8.41353 2.87654 8.45572 2.75935C8.7229 2.01404 9.71197 1.53123 11.0385 1.5031C11.1932 1.5031 11.6479 1.52185 12.051 1.54529ZM10.1245 5.65154C11.2588 5.81091 13.0213 5.78748 14.287 5.5906C14.5495 5.5531 14.7745 5.52498 14.7885 5.53435C14.7979 5.54841 14.8307 5.74529 14.8588 5.97498C14.9854 6.97341 15.1495 7.3156 15.8385 8.02341L16.326 8.52498L16.2932 8.96091C16.1667 10.564 15.6182 11.8672 14.6292 12.9031C13.9213 13.6437 12.951 14.2484 12.3182 14.3422C11.4698 14.4687 10.5042 14.014 9.48697 13.0062C8.40415 11.9375 7.83228 10.6344 7.70572 8.95623L7.6729 8.52029L8.1229 8.07029C8.60103 7.58748 8.86353 7.2031 8.98072 6.81873C9.04165 6.61248 9.18228 5.75935 9.18697 5.58123C9.18697 5.52966 9.23384 5.52498 9.41197 5.54841C9.53384 5.56716 9.85259 5.61404 10.1245 5.65154ZM6.92759 8.60466C7.01197 8.6281 7.03072 8.67029 7.03072 8.80623C7.03072 8.9656 7.12915 9.74841 7.19947 10.1422L7.23228 10.325L7.0354 10.2969C6.58072 10.2359 6.23384 9.79529 6.23384 9.27029C6.23384 8.93279 6.32759 8.73123 6.52915 8.64685C6.6979 8.57185 6.7729 8.56716 6.92759 8.60466ZM17.4604 8.64216C17.6667 8.73123 17.7651 8.9281 17.7651 9.27029C17.7651 9.79529 17.4182 10.2359 16.9635 10.2969L16.7667 10.325L16.7995 10.1422C16.8698 9.74373 16.9682 8.9656 16.9682 8.80154C16.9682 8.67966 16.9917 8.62341 17.0526 8.60935C17.2026 8.56716 17.301 8.57654 17.4604 8.64216ZM9.47759 13.9062L9.60415 14.0375L9.51509 15.0219L9.42603 16.0062L9.52447 16.1937C9.68853 16.5219 10.1338 17.1078 10.5557 17.5484L10.9588 17.9797L10.5792 17.9422C9.67447 17.8484 8.65259 17.5906 8.0854 17.3094C7.80884 17.1687 7.32603 16.8359 7.19947 16.6906C7.12915 16.6156 7.1104 16.5312 7.11978 16.3437C7.16665 15.2375 7.88853 14.2437 8.9104 13.8734C9.25259 13.7515 9.33697 13.7562 9.47759 13.9062ZM15.112 13.8922C16.0823 14.2437 16.7526 15.1297 16.8698 16.2172C16.8979 16.5125 16.8932 16.5687 16.8135 16.6672C16.701 16.8125 16.2182 17.1547 15.9135 17.3094C15.3463 17.5906 14.3245 17.8484 13.4198 17.9422L13.0401 17.9797L13.4432 17.5484C13.8651 17.1078 14.3104 16.5219 14.4745 16.1937L14.5729 16.0062L14.4838 15.0219L14.3948 14.0375L14.5213 13.9062C14.6667 13.7515 14.7229 13.7515 15.112 13.8922ZM11.2495 14.9234C11.9573 15.1156 12.5995 15.0406 13.3167 14.6844L13.7713 14.4594L13.7995 14.6937C13.8135 14.8203 13.837 15.1531 13.8557 15.425L13.8885 15.9219L13.7338 16.1515C13.476 16.5265 13.0635 17.0187 12.7682 17.2953C12.3838 17.6562 12.0698 17.9047 11.9995 17.9047C11.9292 17.9047 11.6151 17.6562 11.2307 17.2953C10.9354 17.0187 10.5229 16.5265 10.2651 16.1515L10.1104 15.9219L10.1432 15.425C10.162 15.1531 10.1854 14.8203 10.2042 14.689L10.2276 14.45L10.612 14.6469C10.8182 14.7594 11.1088 14.8812 11.2495 14.9234Z"/>
</mask>
<path d="M10.5698 0.870289C9.14009 1.03435 8.18853 1.62029 7.83228 2.55779C7.78072 2.68904 7.6729 2.8156 7.51822 2.94216C7.02603 3.33123 6.68384 3.90779 6.54322 4.60154C6.4354 5.11248 6.44478 5.99841 6.56197 6.6781C6.65103 7.18435 6.75884 7.67654 6.82447 7.84998C6.8479 7.90154 6.82447 7.92029 6.74009 7.92029C6.27603 7.92029 5.7979 8.27185 5.6479 8.71716C5.52134 9.09216 5.56353 9.68748 5.74165 10.0437C6.01353 10.5922 6.59009 10.9672 7.16197 10.9672H7.42915L7.58384 11.3562C7.76665 11.825 8.13228 12.4531 8.46978 12.875C8.60572 13.0437 8.71822 13.1984 8.71822 13.2125C8.71353 13.2265 8.52134 13.3344 8.28228 13.4515C7.30259 13.925 6.63228 14.9281 6.47759 16.1469L6.44478 16.4234L5.64322 16.6156C4.65415 16.8594 4.28384 17.0375 3.83384 17.4922C3.48697 17.8437 3.23384 18.2937 3.12134 18.7719C3.04165 19.0953 2.65728 22.6672 2.68072 22.8547C2.70415 23.0422 2.90572 23.1781 3.07447 23.1219C3.14947 23.0984 3.23384 23.0281 3.26197 22.9625C3.29478 22.9015 3.40259 22.0062 3.5104 20.975C3.61822 19.9437 3.74009 18.9781 3.78228 18.8281C3.87603 18.4859 4.13853 18.0781 4.4104 17.839C4.71509 17.5719 5.09478 17.4172 5.91509 17.225L6.65103 17.0515L6.82915 17.225C7.4104 17.7922 8.40884 18.2375 9.59478 18.4578L10.0307 18.5375V20.1078C10.0307 21.8937 10.0307 21.889 10.3588 21.889C10.687 21.889 10.687 21.889 10.687 20.1547V18.6312H11.9995H13.312V20.1547C13.312 21.889 13.312 21.889 13.6401 21.889C13.9682 21.889 13.9682 21.8937 13.9682 20.1078V18.5375L14.4042 18.4578C15.5901 18.2375 16.5885 17.7922 17.1698 17.225L17.3479 17.0515L18.1588 17.2484C18.9979 17.4453 19.3307 17.5906 19.6588 17.8953C19.8745 18.0969 20.137 18.5328 20.2167 18.8281C20.2588 18.9781 20.3807 19.9437 20.4885 20.975C20.5963 22.0062 20.7088 22.9015 20.737 22.9672C20.7651 23.0281 20.8448 23.1031 20.9198 23.1265C21.0838 23.1875 21.2948 23.0422 21.3182 22.8547C21.3417 22.6672 20.9573 19.0953 20.8776 18.7719C20.7698 18.3125 20.4979 17.8297 20.1557 17.4875C19.7151 17.0375 19.3354 16.8594 18.3557 16.6156L17.5542 16.4234L17.5213 16.1469C17.3667 14.9281 16.6917 13.9203 15.7167 13.4469C15.4823 13.3344 15.2854 13.2265 15.2854 13.2125C15.2807 13.1984 15.3932 13.0437 15.5292 12.875C15.8667 12.4531 16.2323 11.825 16.4151 11.3562L16.5698 10.9672H16.837C17.4088 10.9672 17.9854 10.5922 18.2573 10.0437C18.4354 9.68748 18.4776 9.09216 18.351 8.71716C18.201 8.27185 17.7229 7.92029 17.2588 7.92029C17.1885 7.92029 17.1557 7.89685 17.1698 7.85935C17.1792 7.83123 17.2354 7.62498 17.2917 7.40466C17.676 5.86716 17.601 4.48904 17.0854 3.63123L16.9213 3.36404L17.0995 3.00779C17.2682 2.66091 17.2729 2.63748 17.2729 2.13591C17.2682 1.5406 17.1557 1.13279 16.9401 0.94529C16.7948 0.818726 16.7667 0.823414 16.2885 1.01091C15.7963 1.2031 15.0463 1.21716 13.7807 1.05779C12.4213 0.889038 11.1088 0.809351 10.5698 0.870289ZM12.051 1.54529C12.4542 1.56873 13.1995 1.64373 13.7151 1.70935C14.8776 1.85466 15.6229 1.86404 16.1667 1.73279C16.3823 1.68123 16.5745 1.64841 16.5885 1.66248C16.6026 1.67654 16.6213 1.83591 16.6307 2.01404C16.6542 2.41248 16.5651 2.70779 16.3073 3.04998C16.087 3.34529 16.0917 3.43904 16.3307 3.70154C16.9213 4.3531 17.0385 5.63279 16.6542 7.21716C16.5932 7.48904 16.5229 7.7281 16.4995 7.74685C16.4432 7.81248 15.8948 7.1656 15.7448 6.85154C15.6276 6.61248 15.5854 6.4156 15.4963 5.75466C15.4026 5.03279 15.3792 4.94373 15.276 4.86404C15.201 4.79841 15.1213 4.77966 15.0229 4.79373C14.0432 4.96716 13.7245 5.01404 13.2651 5.05623C12.1448 5.15935 10.7667 5.10779 9.65572 4.9156C9.3604 4.86404 9.05103 4.80779 8.96665 4.79373C8.73228 4.75154 8.60103 4.92029 8.55884 5.29998C8.46509 6.14841 8.37603 6.59373 8.24947 6.8656C8.10415 7.1656 7.55572 7.81248 7.49947 7.74685C7.43853 7.68123 7.26978 6.97341 7.19478 6.4906C7.10572 5.90466 7.10572 5.13123 7.19009 4.72341C7.32134 4.12341 7.64478 3.62185 8.0854 3.3406C8.1979 3.27029 8.31509 3.15779 8.33853 3.09216C8.36197 3.02654 8.41353 2.87654 8.45572 2.75935C8.7229 2.01404 9.71197 1.53123 11.0385 1.5031C11.1932 1.5031 11.6479 1.52185 12.051 1.54529ZM10.1245 5.65154C11.2588 5.81091 13.0213 5.78748 14.287 5.5906C14.5495 5.5531 14.7745 5.52498 14.7885 5.53435C14.7979 5.54841 14.8307 5.74529 14.8588 5.97498C14.9854 6.97341 15.1495 7.3156 15.8385 8.02341L16.326 8.52498L16.2932 8.96091C16.1667 10.564 15.6182 11.8672 14.6292 12.9031C13.9213 13.6437 12.951 14.2484 12.3182 14.3422C11.4698 14.4687 10.5042 14.014 9.48697 13.0062C8.40415 11.9375 7.83228 10.6344 7.70572 8.95623L7.6729 8.52029L8.1229 8.07029C8.60103 7.58748 8.86353 7.2031 8.98072 6.81873C9.04165 6.61248 9.18228 5.75935 9.18697 5.58123C9.18697 5.52966 9.23384 5.52498 9.41197 5.54841C9.53384 5.56716 9.85259 5.61404 10.1245 5.65154ZM6.92759 8.60466C7.01197 8.6281 7.03072 8.67029 7.03072 8.80623C7.03072 8.9656 7.12915 9.74841 7.19947 10.1422L7.23228 10.325L7.0354 10.2969C6.58072 10.2359 6.23384 9.79529 6.23384 9.27029C6.23384 8.93279 6.32759 8.73123 6.52915 8.64685C6.6979 8.57185 6.7729 8.56716 6.92759 8.60466ZM17.4604 8.64216C17.6667 8.73123 17.7651 8.9281 17.7651 9.27029C17.7651 9.79529 17.4182 10.2359 16.9635 10.2969L16.7667 10.325L16.7995 10.1422C16.8698 9.74373 16.9682 8.9656 16.9682 8.80154C16.9682 8.67966 16.9917 8.62341 17.0526 8.60935C17.2026 8.56716 17.301 8.57654 17.4604 8.64216ZM9.47759 13.9062L9.60415 14.0375L9.51509 15.0219L9.42603 16.0062L9.52447 16.1937C9.68853 16.5219 10.1338 17.1078 10.5557 17.5484L10.9588 17.9797L10.5792 17.9422C9.67447 17.8484 8.65259 17.5906 8.0854 17.3094C7.80884 17.1687 7.32603 16.8359 7.19947 16.6906C7.12915 16.6156 7.1104 16.5312 7.11978 16.3437C7.16665 15.2375 7.88853 14.2437 8.9104 13.8734C9.25259 13.7515 9.33697 13.7562 9.47759 13.9062ZM15.112 13.8922C16.0823 14.2437 16.7526 15.1297 16.8698 16.2172C16.8979 16.5125 16.8932 16.5687 16.8135 16.6672C16.701 16.8125 16.2182 17.1547 15.9135 17.3094C15.3463 17.5906 14.3245 17.8484 13.4198 17.9422L13.0401 17.9797L13.4432 17.5484C13.8651 17.1078 14.3104 16.5219 14.4745 16.1937L14.5729 16.0062L14.4838 15.0219L14.3948 14.0375L14.5213 13.9062C14.6667 13.7515 14.7229 13.7515 15.112 13.8922ZM11.2495 14.9234C11.9573 15.1156 12.5995 15.0406 13.3167 14.6844L13.7713 14.4594L13.7995 14.6937C13.8135 14.8203 13.837 15.1531 13.8557 15.425L13.8885 15.9219L13.7338 16.1515C13.476 16.5265 13.0635 17.0187 12.7682 17.2953C12.3838 17.6562 12.0698 17.9047 11.9995 17.9047C11.9292 17.9047 11.6151 17.6562 11.2307 17.2953C10.9354 17.0187 10.5229 16.5265 10.2651 16.1515L10.1104 15.9219L10.1432 15.425C10.162 15.1531 10.1854 14.8203 10.2042 14.689L10.2276 14.45L10.612 14.6469C10.8182 14.7594 11.1088 14.8812 11.2495 14.9234Z" fill="#0295FF"/>
<path d="M10.5698 0.870289C9.14009 1.03435 8.18853 1.62029 7.83228 2.55779C7.78072 2.68904 7.6729 2.8156 7.51822 2.94216C7.02603 3.33123 6.68384 3.90779 6.54322 4.60154C6.4354 5.11248 6.44478 5.99841 6.56197 6.6781C6.65103 7.18435 6.75884 7.67654 6.82447 7.84998C6.8479 7.90154 6.82447 7.92029 6.74009 7.92029C6.27603 7.92029 5.7979 8.27185 5.6479 8.71716C5.52134 9.09216 5.56353 9.68748 5.74165 10.0437C6.01353 10.5922 6.59009 10.9672 7.16197 10.9672H7.42915L7.58384 11.3562C7.76665 11.825 8.13228 12.4531 8.46978 12.875C8.60572 13.0437 8.71822 13.1984 8.71822 13.2125C8.71353 13.2265 8.52134 13.3344 8.28228 13.4515C7.30259 13.925 6.63228 14.9281 6.47759 16.1469L6.44478 16.4234L5.64322 16.6156C4.65415 16.8594 4.28384 17.0375 3.83384 17.4922C3.48697 17.8437 3.23384 18.2937 3.12134 18.7719C3.04165 19.0953 2.65728 22.6672 2.68072 22.8547C2.70415 23.0422 2.90572 23.1781 3.07447 23.1219C3.14947 23.0984 3.23384 23.0281 3.26197 22.9625C3.29478 22.9015 3.40259 22.0062 3.5104 20.975C3.61822 19.9437 3.74009 18.9781 3.78228 18.8281C3.87603 18.4859 4.13853 18.0781 4.4104 17.839C4.71509 17.5719 5.09478 17.4172 5.91509 17.225L6.65103 17.0515L6.82915 17.225C7.4104 17.7922 8.40884 18.2375 9.59478 18.4578L10.0307 18.5375V20.1078C10.0307 21.8937 10.0307 21.889 10.3588 21.889C10.687 21.889 10.687 21.889 10.687 20.1547V18.6312H11.9995H13.312V20.1547C13.312 21.889 13.312 21.889 13.6401 21.889C13.9682 21.889 13.9682 21.8937 13.9682 20.1078V18.5375L14.4042 18.4578C15.5901 18.2375 16.5885 17.7922 17.1698 17.225L17.3479 17.0515L18.1588 17.2484C18.9979 17.4453 19.3307 17.5906 19.6588 17.8953C19.8745 18.0969 20.137 18.5328 20.2167 18.8281C20.2588 18.9781 20.3807 19.9437 20.4885 20.975C20.5963 22.0062 20.7088 22.9015 20.737 22.9672C20.7651 23.0281 20.8448 23.1031 20.9198 23.1265C21.0838 23.1875 21.2948 23.0422 21.3182 22.8547C21.3417 22.6672 20.9573 19.0953 20.8776 18.7719C20.7698 18.3125 20.4979 17.8297 20.1557 17.4875C19.7151 17.0375 19.3354 16.8594 18.3557 16.6156L17.5542 16.4234L17.5213 16.1469C17.3667 14.9281 16.6917 13.9203 15.7167 13.4469C15.4823 13.3344 15.2854 13.2265 15.2854 13.2125C15.2807 13.1984 15.3932 13.0437 15.5292 12.875C15.8667 12.4531 16.2323 11.825 16.4151 11.3562L16.5698 10.9672H16.837C17.4088 10.9672 17.9854 10.5922 18.2573 10.0437C18.4354 9.68748 18.4776 9.09216 18.351 8.71716C18.201 8.27185 17.7229 7.92029 17.2588 7.92029C17.1885 7.92029 17.1557 7.89685 17.1698 7.85935C17.1792 7.83123 17.2354 7.62498 17.2917 7.40466C17.676 5.86716 17.601 4.48904 17.0854 3.63123L16.9213 3.36404L17.0995 3.00779C17.2682 2.66091 17.2729 2.63748 17.2729 2.13591C17.2682 1.5406 17.1557 1.13279 16.9401 0.94529C16.7948 0.818726 16.7667 0.823414 16.2885 1.01091C15.7963 1.2031 15.0463 1.21716 13.7807 1.05779C12.4213 0.889038 11.1088 0.809351 10.5698 0.870289ZM12.051 1.54529C12.4542 1.56873 13.1995 1.64373 13.7151 1.70935C14.8776 1.85466 15.6229 1.86404 16.1667 1.73279C16.3823 1.68123 16.5745 1.64841 16.5885 1.66248C16.6026 1.67654 16.6213 1.83591 16.6307 2.01404C16.6542 2.41248 16.5651 2.70779 16.3073 3.04998C16.087 3.34529 16.0917 3.43904 16.3307 3.70154C16.9213 4.3531 17.0385 5.63279 16.6542 7.21716C16.5932 7.48904 16.5229 7.7281 16.4995 7.74685C16.4432 7.81248 15.8948 7.1656 15.7448 6.85154C15.6276 6.61248 15.5854 6.4156 15.4963 5.75466C15.4026 5.03279 15.3792 4.94373 15.276 4.86404C15.201 4.79841 15.1213 4.77966 15.0229 4.79373C14.0432 4.96716 13.7245 5.01404 13.2651 5.05623C12.1448 5.15935 10.7667 5.10779 9.65572 4.9156C9.3604 4.86404 9.05103 4.80779 8.96665 4.79373C8.73228 4.75154 8.60103 4.92029 8.55884 5.29998C8.46509 6.14841 8.37603 6.59373 8.24947 6.8656C8.10415 7.1656 7.55572 7.81248 7.49947 7.74685C7.43853 7.68123 7.26978 6.97341 7.19478 6.4906C7.10572 5.90466 7.10572 5.13123 7.19009 4.72341C7.32134 4.12341 7.64478 3.62185 8.0854 3.3406C8.1979 3.27029 8.31509 3.15779 8.33853 3.09216C8.36197 3.02654 8.41353 2.87654 8.45572 2.75935C8.7229 2.01404 9.71197 1.53123 11.0385 1.5031C11.1932 1.5031 11.6479 1.52185 12.051 1.54529ZM10.1245 5.65154C11.2588 5.81091 13.0213 5.78748 14.287 5.5906C14.5495 5.5531 14.7745 5.52498 14.7885 5.53435C14.7979 5.54841 14.8307 5.74529 14.8588 5.97498C14.9854 6.97341 15.1495 7.3156 15.8385 8.02341L16.326 8.52498L16.2932 8.96091C16.1667 10.564 15.6182 11.8672 14.6292 12.9031C13.9213 13.6437 12.951 14.2484 12.3182 14.3422C11.4698 14.4687 10.5042 14.014 9.48697 13.0062C8.40415 11.9375 7.83228 10.6344 7.70572 8.95623L7.6729 8.52029L8.1229 8.07029C8.60103 7.58748 8.86353 7.2031 8.98072 6.81873C9.04165 6.61248 9.18228 5.75935 9.18697 5.58123C9.18697 5.52966 9.23384 5.52498 9.41197 5.54841C9.53384 5.56716 9.85259 5.61404 10.1245 5.65154ZM6.92759 8.60466C7.01197 8.6281 7.03072 8.67029 7.03072 8.80623C7.03072 8.9656 7.12915 9.74841 7.19947 10.1422L7.23228 10.325L7.0354 10.2969C6.58072 10.2359 6.23384 9.79529 6.23384 9.27029C6.23384 8.93279 6.32759 8.73123 6.52915 8.64685C6.6979 8.57185 6.7729 8.56716 6.92759 8.60466ZM17.4604 8.64216C17.6667 8.73123 17.7651 8.9281 17.7651 9.27029C17.7651 9.79529 17.4182 10.2359 16.9635 10.2969L16.7667 10.325L16.7995 10.1422C16.8698 9.74373 16.9682 8.9656 16.9682 8.80154C16.9682 8.67966 16.9917 8.62341 17.0526 8.60935C17.2026 8.56716 17.301 8.57654 17.4604 8.64216ZM9.47759 13.9062L9.60415 14.0375L9.51509 15.0219L9.42603 16.0062L9.52447 16.1937C9.68853 16.5219 10.1338 17.1078 10.5557 17.5484L10.9588 17.9797L10.5792 17.9422C9.67447 17.8484 8.65259 17.5906 8.0854 17.3094C7.80884 17.1687 7.32603 16.8359 7.19947 16.6906C7.12915 16.6156 7.1104 16.5312 7.11978 16.3437C7.16665 15.2375 7.88853 14.2437 8.9104 13.8734C9.25259 13.7515 9.33697 13.7562 9.47759 13.9062ZM15.112 13.8922C16.0823 14.2437 16.7526 15.1297 16.8698 16.2172C16.8979 16.5125 16.8932 16.5687 16.8135 16.6672C16.701 16.8125 16.2182 17.1547 15.9135 17.3094C15.3463 17.5906 14.3245 17.8484 13.4198 17.9422L13.0401 17.9797L13.4432 17.5484C13.8651 17.1078 14.3104 16.5219 14.4745 16.1937L14.5729 16.0062L14.4838 15.0219L14.3948 14.0375L14.5213 13.9062C14.6667 13.7515 14.7229 13.7515 15.112 13.8922ZM11.2495 14.9234C11.9573 15.1156 12.5995 15.0406 13.3167 14.6844L13.7713 14.4594L13.7995 14.6937C13.8135 14.8203 13.837 15.1531 13.8557 15.425L13.8885 15.9219L13.7338 16.1515C13.476 16.5265 13.0635 17.0187 12.7682 17.2953C12.3838 17.6562 12.0698 17.9047 11.9995 17.9047C11.9292 17.9047 11.6151 17.6562 11.2307 17.2953C10.9354 17.0187 10.5229 16.5265 10.2651 16.1515L10.1104 15.9219L10.1432 15.425C10.162 15.1531 10.1854 14.8203 10.2042 14.689L10.2276 14.45L10.612 14.6469C10.8182 14.7594 11.1088 14.8812 11.2495 14.9234Z" stroke="#0295FF" stroke-width="0.4" mask="url(#path-1-outside-1_5005_196)"/>
<path d="M9.4668 8.33691C9.4907 8.33013 9.51872 8.32063 9.54883 8.30957C9.60921 8.28739 9.68234 8.25748 9.75488 8.22363L9.86719 8.17578C9.975 8.13624 10.0732 8.11902 10.1709 8.12012C10.302 8.12166 10.4406 8.15734 10.6084 8.2334H10.6094C10.7351 8.28953 10.8227 8.32785 10.8945 8.33789C10.9389 8.34409 10.9765 8.34035 11.0107 8.33008L11.1064 8.28613L11.1074 8.28516C11.1535 8.25882 11.1976 8.21841 11.2324 8.17676C11.2667 8.13581 11.2982 8.08541 11.3154 8.03516C11.3703 7.87895 11.313 7.73519 11.208 7.625C11.1049 7.51695 10.9489 7.43074 10.7744 7.37012C10.4256 7.24899 9.96219 7.21632 9.58496 7.34961H9.58398C9.42649 7.40716 9.28445 7.49069 9.17969 7.58301C9.08 7.67093 8.99414 7.78601 8.99414 7.9082C8.99424 7.96175 9.01428 8.01476 9.03711 8.05859C9.06103 8.10448 9.09282 8.1503 9.12793 8.19043C9.16289 8.23039 9.2035 8.26756 9.24512 8.2959C9.28387 8.32224 9.33654 8.34955 9.39355 8.34961C9.41838 8.34961 9.44647 8.34268 9.4668 8.33691Z" fill="#0295FF" stroke="#0295FF" stroke-width="0.2"/>
<path d="M14.6025 8.3418C14.7155 8.3418 14.7887 8.27696 14.8584 8.20508C14.9208 8.14405 14.9682 8.07639 14.9902 8.00195C15.013 7.92478 15.0061 7.84759 14.9717 7.77441C14.907 7.63736 14.7493 7.51989 14.5342 7.41113H14.5332C14.3691 7.33038 14.1449 7.28536 13.9248 7.27441C13.705 7.26353 13.4759 7.28627 13.2979 7.35059V7.34961C13.0586 7.43334 12.8777 7.53201 12.7705 7.65039C12.7157 7.71098 12.6775 7.77948 12.6641 7.85547C12.6506 7.9318 12.6637 8.00745 12.6963 8.08008V8.08105C12.7532 8.20565 12.8379 8.29857 12.9717 8.32227C13.0937 8.3438 13.2348 8.30263 13.3926 8.22852C13.5588 8.15568 13.6975 8.12164 13.8291 8.12109C13.961 8.12058 14.0932 8.15316 14.2451 8.22363L14.4443 8.30957C14.4992 8.3292 14.5515 8.34173 14.6025 8.3418Z" fill="#0295FF" stroke="#0295FF" stroke-width="0.2"/>
<path d="M10.1748 9.56836C10.2732 9.56772 10.3818 9.55043 10.4629 9.50684C10.5539 9.45784 10.6217 9.35357 10.6621 9.25488C10.7033 9.15422 10.7277 9.03158 10.7061 8.92578L10.7051 8.92676C10.6767 8.77423 10.5608 8.64928 10.4326 8.5752C10.3047 8.50128 10.1382 8.46194 9.99414 8.51953C9.90948 8.55293 9.82856 8.61897 9.76562 8.69043C9.7187 8.74371 9.67576 8.8066 9.64941 8.87207L9.62891 8.93848C9.60629 9.04229 9.63291 9.16257 9.67676 9.26074C9.7206 9.35883 9.79184 9.45866 9.88281 9.51074L9.8877 9.51367V9.5127C9.96803 9.55286 10.0762 9.56898 10.1748 9.56836Z" fill="#0295FF" stroke="#0295FF" stroke-width="0.2"/>
<path d="M13.8037 9.56738C13.8821 9.57123 13.9679 9.56455 14.043 9.54102L14.1143 9.51172L14.1172 9.50977C14.2081 9.45761 14.2795 9.3578 14.3232 9.25977C14.367 9.16159 14.3938 9.04123 14.3711 8.9375C14.3377 8.78169 14.2226 8.6539 14.0928 8.57715C13.9635 8.5008 13.7973 8.46256 13.6514 8.51953H13.6504C13.5761 8.54924 13.504 8.60174 13.4453 8.66113C13.3868 8.72035 13.335 8.79319 13.3076 8.86914L13.3086 8.87012C13.2701 8.97218 13.2818 9.09682 13.3154 9.20117C13.3497 9.3072 13.4136 9.41766 13.5029 9.48145L13.5049 9.48242C13.5849 9.53682 13.6994 9.56224 13.8037 9.56738Z" fill="#0295FF" stroke="#0295FF" stroke-width="0.2"/>
<path d="M11.7725 12.4648C12.0982 12.4856 12.4382 12.476 12.6846 12.4268C13.0134 12.3624 13.2724 12.2678 13.4355 12.1455C13.5177 12.0839 13.5816 12.0105 13.6133 11.9248C13.646 11.8361 13.6411 11.7431 13.6006 11.6543C13.5727 11.5933 13.5373 11.5379 13.4893 11.4951C13.4398 11.4511 13.3813 11.4244 13.3135 11.4141C13.186 11.3948 13.0239 11.433 12.8164 11.5029V11.5039C12.3107 11.6661 11.6864 11.669 11.207 11.5078H11.2061C11.097 11.4715 11.0078 11.4428 10.9346 11.4238C10.8623 11.4051 10.7993 11.3932 10.7432 11.3936C10.6838 11.394 10.6317 11.4085 10.584 11.4385C10.5392 11.4667 10.5039 11.5059 10.4727 11.5459V11.5449C10.4166 11.6153 10.3762 11.6898 10.3623 11.7676C10.3479 11.8488 10.3643 11.9261 10.4092 11.9961C10.4523 12.0633 10.5196 12.1205 10.6016 12.1709C10.6841 12.2216 10.7874 12.2687 10.9102 12.3145L10.9111 12.3154C11.1236 12.3928 11.4474 12.4441 11.7725 12.4648Z" fill="#0295FF" stroke="#0295FF" stroke-width="0.2"/>
</svg>
