<svg width="25" height="24" viewBox="0 0 25 24" fill="none" xmlns="http://www.w3.org/2000/svg">
<path d="M12 18.5H1.5C1.22386 18.5 1 18.7239 1 19V21.5C1 21.7761 1.22386 22 1.5 22H23C23.2761 22 23.5 21.7761 23.5 21.5V16.5C23.5 16.2239 23.2761 16 23 16H13C12.7239 16 12.5 16.2239 12.5 16.5V18C12.5 18.2761 12.2761 18.5 12 18.5Z" stroke="#0295FF" stroke-width="1.4"/>
<mask id="path-2-outside-1_5005_1703" maskUnits="userSpaceOnUse" x="-1.64085" y="1.16603" width="26.2876" height="18.4534" fill="black">
<rect fill="white" x="-1.64085" y="1.16603" width="26.2876" height="18.4534"/>
<path d="M1.79002 6.35391C1.7154 6.47165 1.69914 6.54639 1.72589 6.67949C1.75608 6.82978 1.80939 6.895 2.13601 7.16441C2.34488 7.33686 2.51681 7.50334 2.52285 7.53339C2.52803 7.55916 2.1214 8.11437 1.62123 8.75985C1.11763 9.41049 0.680108 9.98978 0.650954 10.0448C0.598646 10.1402 0.617665 10.2793 0.840247 11.3871L1.08785 12.6194L0.985115 12.9974L0.882382 13.3754L1.07391 14.3286L1.26543 15.2818L1.77435 15.7916C2.05461 16.0747 2.31678 16.3124 2.35888 16.3218C2.40613 16.3347 2.64317 16.3139 2.8905 16.2776L3.34136 16.2093L3.49449 16.4823C4.0003 17.3545 5.02624 17.814 6.0181 17.6147C6.85451 17.4421 7.56509 16.7767 7.78854 15.9546C7.8459 15.7509 7.88778 15.5147 7.88856 15.4297L7.88413 15.2742L9.0735 15.0352C10.1298 14.823 10.2654 14.7868 10.3332 14.7017C10.5211 14.4808 10.4753 14.1863 10.2356 14.0379L10.1032 13.9573L8.90697 14.1842L7.71072 14.4112L7.65563 14.2704C7.54287 13.9982 7.18607 13.6008 6.85433 13.3727C5.74999 12.6341 4.32789 12.9154 3.57991 14.0172C3.35946 14.3429 3.17956 14.8704 3.18241 15.1736L3.18598 15.3248L2.91547 15.3791L2.64926 15.4326L2.35869 15.1426L2.07242 14.8516L1.92575 14.1217L1.77909 13.3918L1.88273 13.0627L1.9812 12.7302L1.76025 11.5194L1.53929 10.3085L2.26595 9.36738C3.2028 8.16065 3.31945 7.98533 3.3768 7.75939C3.43328 7.52915 3.37374 7.21055 3.24559 7.01741C3.19485 6.94273 3.14926 6.87148 3.14667 6.8586C3.14495 6.85001 4.97408 6.48249 7.21715 6.04074L11.2859 5.23663L11.6493 5.26637C12.0985 5.30118 12.6758 5.43981 13.0848 5.6078C13.2798 5.68922 14.0266 6.16009 15.0502 6.85232L16.7037 7.96742L18.121 8.0177C19.6507 8.07217 20.0226 8.10018 20.015 8.15086C20.0107 8.17405 19.9163 8.28236 19.8056 8.39841C19.2023 9.01993 19.5039 10.0315 20.3492 10.2145C20.4712 10.2436 20.7202 10.2159 21.3454 10.1037L22.1733 9.95522L22.2587 10.3803C22.3441 10.8054 22.3449 10.8097 22.2285 11.1636L22.1085 11.5228L21.2137 11.6936L20.318 11.8602L20.1623 11.5966C19.8509 11.0696 19.3438 10.6801 18.7579 10.5208C17.9452 10.3 17.0942 10.5111 16.5072 11.0803C16.1185 11.4577 15.8167 12.0901 15.7862 12.6055L15.771 12.7961L14.719 13.0075C13.8559 13.1809 13.6395 13.2378 13.534 13.3126C13.2979 13.4941 13.3085 13.8359 13.5569 14.0049L13.7065 14.1044L14.8185 13.8809L15.9306 13.6575L16.0846 13.9348C16.858 15.3161 18.7658 15.5403 19.8539 14.3746C20.2031 14.0007 20.4148 13.5427 20.4693 13.0136L20.4949 12.7627L21.6027 12.5178C22.4279 12.3342 22.7293 12.2557 22.7722 12.2024C22.8005 12.1655 22.9231 11.8416 23.0395 11.4876L23.2528 10.8372L23.0881 10.1064C22.9493 9.50446 22.8908 9.32414 22.7634 9.09063C22.2473 8.16691 21.2838 7.48494 20.1911 7.27119C20.0056 7.237 19.2076 7.17844 18.4157 7.14994L16.9752 7.09539L15.3733 6.0146C14.0558 5.12681 13.6991 4.9081 13.3503 4.77271C12.8511 4.57818 12.358 4.45837 11.8984 4.41669C11.1468 4.34435 11.1039 4.35298 6.35072 5.30801L1.88952 6.20437L1.79002 6.35391ZM21.4929 8.88133C21.5969 8.97658 21.6838 9.07528 21.6889 9.10104C21.701 9.16115 20.8315 9.88873 20.6606 9.86054C20.5635 9.84431 20.3836 9.29631 20.3775 9.19926C20.368 9.10736 20.4263 9.01971 20.6606 8.78502L20.954 8.48929L21.1285 8.60165C21.2256 8.66255 21.3898 8.79038 21.4929 8.88133ZM5.86705 13.8837C6.84811 14.0976 7.32498 15.2704 6.77258 16.1006C6.50496 16.5028 6.29208 16.6439 5.82406 16.7379C5.48056 16.8069 5.40498 16.8087 5.16271 16.7368C4.81305 16.6417 4.47184 16.3887 4.28777 16.0951C4.1708 15.9131 4.13549 15.8041 4.09229 15.5224C4.03265 15.0921 4.10025 14.806 4.35159 14.4562C4.7136 13.9457 5.24508 13.7451 5.86705 13.8837ZM18.4125 11.3362C18.7492 11.3892 19.0758 11.5916 19.3054 11.8894C19.467 12.0937 19.5092 12.1924 19.5653 12.4492C19.6041 12.6424 19.618 12.8451 19.5958 13.0015C19.5532 13.3227 19.2985 13.7447 19.0118 13.9631C18.8178 14.1093 18.7397 14.1428 18.4047 14.2101C18.0484 14.2817 17.9951 14.2835 17.7185 14.1961C17.3662 14.0882 17.1522 13.9347 16.9312 13.6351C16.7971 13.4566 16.7601 13.3613 16.6988 13.0564C16.6117 12.6228 16.6518 12.3779 16.8739 12.0161C17.199 11.4773 17.7614 11.2303 18.4125 11.3362Z"/>
</mask>
<path d="M1.79002 6.35391C1.7154 6.47165 1.69914 6.54639 1.72589 6.67949C1.75608 6.82978 1.80939 6.895 2.13601 7.16441C2.34488 7.33686 2.51681 7.50334 2.52285 7.53339C2.52803 7.55916 2.1214 8.11437 1.62123 8.75985C1.11763 9.41049 0.680108 9.98978 0.650954 10.0448C0.598646 10.1402 0.617665 10.2793 0.840247 11.3871L1.08785 12.6194L0.985115 12.9974L0.882382 13.3754L1.07391 14.3286L1.26543 15.2818L1.77435 15.7916C2.05461 16.0747 2.31678 16.3124 2.35888 16.3218C2.40613 16.3347 2.64317 16.3139 2.8905 16.2776L3.34136 16.2093L3.49449 16.4823C4.0003 17.3545 5.02624 17.814 6.0181 17.6147C6.85451 17.4421 7.56509 16.7767 7.78854 15.9546C7.8459 15.7509 7.88778 15.5147 7.88856 15.4297L7.88413 15.2742L9.0735 15.0352C10.1298 14.823 10.2654 14.7868 10.3332 14.7017C10.5211 14.4808 10.4753 14.1863 10.2356 14.0379L10.1032 13.9573L8.90697 14.1842L7.71072 14.4112L7.65563 14.2704C7.54287 13.9982 7.18607 13.6008 6.85433 13.3727C5.74999 12.6341 4.32789 12.9154 3.57991 14.0172C3.35946 14.3429 3.17956 14.8704 3.18241 15.1736L3.18598 15.3248L2.91547 15.3791L2.64926 15.4326L2.35869 15.1426L2.07242 14.8516L1.92575 14.1217L1.77909 13.3918L1.88273 13.0627L1.9812 12.7302L1.76025 11.5194L1.53929 10.3085L2.26595 9.36738C3.2028 8.16065 3.31945 7.98533 3.3768 7.75939C3.43328 7.52915 3.37374 7.21055 3.24559 7.01741C3.19485 6.94273 3.14926 6.87148 3.14667 6.8586C3.14495 6.85001 4.97408 6.48249 7.21715 6.04074L11.2859 5.23663L11.6493 5.26637C12.0985 5.30118 12.6758 5.43981 13.0848 5.6078C13.2798 5.68922 14.0266 6.16009 15.0502 6.85232L16.7037 7.96742L18.121 8.0177C19.6507 8.07217 20.0226 8.10018 20.015 8.15086C20.0107 8.17405 19.9163 8.28236 19.8056 8.39841C19.2023 9.01993 19.5039 10.0315 20.3492 10.2145C20.4712 10.2436 20.7202 10.2159 21.3454 10.1037L22.1733 9.95522L22.2587 10.3803C22.3441 10.8054 22.3449 10.8097 22.2285 11.1636L22.1085 11.5228L21.2137 11.6936L20.318 11.8602L20.1623 11.5966C19.8509 11.0696 19.3438 10.6801 18.7579 10.5208C17.9452 10.3 17.0942 10.5111 16.5072 11.0803C16.1185 11.4577 15.8167 12.0901 15.7862 12.6055L15.771 12.7961L14.719 13.0075C13.8559 13.1809 13.6395 13.2378 13.534 13.3126C13.2979 13.4941 13.3085 13.8359 13.5569 14.0049L13.7065 14.1044L14.8185 13.8809L15.9306 13.6575L16.0846 13.9348C16.858 15.3161 18.7658 15.5403 19.8539 14.3746C20.2031 14.0007 20.4148 13.5427 20.4693 13.0136L20.4949 12.7627L21.6027 12.5178C22.4279 12.3342 22.7293 12.2557 22.7722 12.2024C22.8005 12.1655 22.9231 11.8416 23.0395 11.4876L23.2528 10.8372L23.0881 10.1064C22.9493 9.50446 22.8908 9.32414 22.7634 9.09063C22.2473 8.16691 21.2838 7.48494 20.1911 7.27119C20.0056 7.237 19.2076 7.17844 18.4157 7.14994L16.9752 7.09539L15.3733 6.0146C14.0558 5.12681 13.6991 4.9081 13.3503 4.77271C12.8511 4.57818 12.358 4.45837 11.8984 4.41669C11.1468 4.34435 11.1039 4.35298 6.35072 5.30801L1.88952 6.20437L1.79002 6.35391ZM21.4929 8.88133C21.5969 8.97658 21.6838 9.07528 21.6889 9.10104C21.701 9.16115 20.8315 9.88873 20.6606 9.86054C20.5635 9.84431 20.3836 9.29631 20.3775 9.19926C20.368 9.10736 20.4263 9.01971 20.6606 8.78502L20.954 8.48929L21.1285 8.60165C21.2256 8.66255 21.3898 8.79038 21.4929 8.88133ZM5.86705 13.8837C6.84811 14.0976 7.32498 15.2704 6.77258 16.1006C6.50496 16.5028 6.29208 16.6439 5.82406 16.7379C5.48056 16.8069 5.40498 16.8087 5.16271 16.7368C4.81305 16.6417 4.47184 16.3887 4.28777 16.0951C4.1708 15.9131 4.13549 15.8041 4.09229 15.5224C4.03265 15.0921 4.10025 14.806 4.35159 14.4562C4.7136 13.9457 5.24508 13.7451 5.86705 13.8837ZM18.4125 11.3362C18.7492 11.3892 19.0758 11.5916 19.3054 11.8894C19.467 12.0937 19.5092 12.1924 19.5653 12.4492C19.6041 12.6424 19.618 12.8451 19.5958 13.0015C19.5532 13.3227 19.2985 13.7447 19.0118 13.9631C18.8178 14.1093 18.7397 14.1428 18.4047 14.2101C18.0484 14.2817 17.9951 14.2835 17.7185 14.1961C17.3662 14.0882 17.1522 13.9347 16.9312 13.6351C16.7971 13.4566 16.7601 13.3613 16.6988 13.0564C16.6117 12.6228 16.6518 12.3779 16.8739 12.0161C17.199 11.4773 17.7614 11.2303 18.4125 11.3362Z" fill="#0295FF"/>
<path d="M1.79002 6.35391C1.7154 6.47165 1.69914 6.54639 1.72589 6.67949C1.75608 6.82978 1.80939 6.895 2.13601 7.16441C2.34488 7.33686 2.51681 7.50334 2.52285 7.53339C2.52803 7.55916 2.1214 8.11437 1.62123 8.75985C1.11763 9.41049 0.680108 9.98978 0.650954 10.0448C0.598646 10.1402 0.617665 10.2793 0.840247 11.3871L1.08785 12.6194L0.985115 12.9974L0.882382 13.3754L1.07391 14.3286L1.26543 15.2818L1.77435 15.7916C2.05461 16.0747 2.31678 16.3124 2.35888 16.3218C2.40613 16.3347 2.64317 16.3139 2.8905 16.2776L3.34136 16.2093L3.49449 16.4823C4.0003 17.3545 5.02624 17.814 6.0181 17.6147C6.85451 17.4421 7.56509 16.7767 7.78854 15.9546C7.8459 15.7509 7.88778 15.5147 7.88856 15.4297L7.88413 15.2742L9.0735 15.0352C10.1298 14.823 10.2654 14.7868 10.3332 14.7017C10.5211 14.4808 10.4753 14.1863 10.2356 14.0379L10.1032 13.9573L8.90697 14.1842L7.71072 14.4112L7.65563 14.2704C7.54287 13.9982 7.18607 13.6008 6.85433 13.3727C5.74999 12.6341 4.32789 12.9154 3.57991 14.0172C3.35946 14.3429 3.17956 14.8704 3.18241 15.1736L3.18598 15.3248L2.91547 15.3791L2.64926 15.4326L2.35869 15.1426L2.07242 14.8516L1.92575 14.1217L1.77909 13.3918L1.88273 13.0627L1.9812 12.7302L1.76025 11.5194L1.53929 10.3085L2.26595 9.36738C3.2028 8.16065 3.31945 7.98533 3.3768 7.75939C3.43328 7.52915 3.37374 7.21055 3.24559 7.01741C3.19485 6.94273 3.14926 6.87148 3.14667 6.8586C3.14495 6.85001 4.97408 6.48249 7.21715 6.04074L11.2859 5.23663L11.6493 5.26637C12.0985 5.30118 12.6758 5.43981 13.0848 5.6078C13.2798 5.68922 14.0266 6.16009 15.0502 6.85232L16.7037 7.96742L18.121 8.0177C19.6507 8.07217 20.0226 8.10018 20.015 8.15086C20.0107 8.17405 19.9163 8.28236 19.8056 8.39841C19.2023 9.01993 19.5039 10.0315 20.3492 10.2145C20.4712 10.2436 20.7202 10.2159 21.3454 10.1037L22.1733 9.95522L22.2587 10.3803C22.3441 10.8054 22.3449 10.8097 22.2285 11.1636L22.1085 11.5228L21.2137 11.6936L20.318 11.8602L20.1623 11.5966C19.8509 11.0696 19.3438 10.6801 18.7579 10.5208C17.9452 10.3 17.0942 10.5111 16.5072 11.0803C16.1185 11.4577 15.8167 12.0901 15.7862 12.6055L15.771 12.7961L14.719 13.0075C13.8559 13.1809 13.6395 13.2378 13.534 13.3126C13.2979 13.4941 13.3085 13.8359 13.5569 14.0049L13.7065 14.1044L14.8185 13.8809L15.9306 13.6575L16.0846 13.9348C16.858 15.3161 18.7658 15.5403 19.8539 14.3746C20.2031 14.0007 20.4148 13.5427 20.4693 13.0136L20.4949 12.7627L21.6027 12.5178C22.4279 12.3342 22.7293 12.2557 22.7722 12.2024C22.8005 12.1655 22.9231 11.8416 23.0395 11.4876L23.2528 10.8372L23.0881 10.1064C22.9493 9.50446 22.8908 9.32414 22.7634 9.09063C22.2473 8.16691 21.2838 7.48494 20.1911 7.27119C20.0056 7.237 19.2076 7.17844 18.4157 7.14994L16.9752 7.09539L15.3733 6.0146C14.0558 5.12681 13.6991 4.9081 13.3503 4.77271C12.8511 4.57818 12.358 4.45837 11.8984 4.41669C11.1468 4.34435 11.1039 4.35298 6.35072 5.30801L1.88952 6.20437L1.79002 6.35391ZM21.4929 8.88133C21.5969 8.97658 21.6838 9.07528 21.6889 9.10104C21.701 9.16115 20.8315 9.88873 20.6606 9.86054C20.5635 9.84431 20.3836 9.29631 20.3775 9.19926C20.368 9.10736 20.4263 9.01971 20.6606 8.78502L20.954 8.48929L21.1285 8.60165C21.2256 8.66255 21.3898 8.79038 21.4929 8.88133ZM5.86705 13.8837C6.84811 14.0976 7.32498 15.2704 6.77258 16.1006C6.50496 16.5028 6.29208 16.6439 5.82406 16.7379C5.48056 16.8069 5.40498 16.8087 5.16271 16.7368C4.81305 16.6417 4.47184 16.3887 4.28777 16.0951C4.1708 15.9131 4.13549 15.8041 4.09229 15.5224C4.03265 15.0921 4.10025 14.806 4.35159 14.4562C4.7136 13.9457 5.24508 13.7451 5.86705 13.8837ZM18.4125 11.3362C18.7492 11.3892 19.0758 11.5916 19.3054 11.8894C19.467 12.0937 19.5092 12.1924 19.5653 12.4492C19.6041 12.6424 19.618 12.8451 19.5958 13.0015C19.5532 13.3227 19.2985 13.7447 19.0118 13.9631C18.8178 14.1093 18.7397 14.1428 18.4047 14.2101C18.0484 14.2817 17.9951 14.2835 17.7185 14.1961C17.3662 14.0882 17.1522 13.9347 16.9312 13.6351C16.7971 13.4566 16.7601 13.3613 16.6988 13.0564C16.6117 12.6228 16.6518 12.3779 16.8739 12.0161C17.199 11.4773 17.7614 11.2303 18.4125 11.3362Z" stroke="#0295FF" stroke-width="0.4" mask="url(#path-2-outside-1_5005_1703)"/>
<path d="M14.7386 9.01061C14.7453 9.00903 14.76 9.00571 14.7732 8.99966C14.9783 8.9051 15.1143 8.70863 15.1562 8.48643C15.1726 8.39938 15.1852 8.31523 15.1703 8.22959C15.1549 8.14095 15.1129 8.06062 15.0414 7.9746C14.9729 7.89224 14.8713 7.79763 14.7266 7.67726L14.1526 7.22482C13.5396 6.75727 13.0892 6.4562 12.6667 6.26433C12.3478 6.11948 12.0469 6.0372 11.7064 5.99112L11.3507 5.956L10.9158 5.92785L10.9025 5.92652L10.8901 5.92903L8.07564 6.48655L8.0764 6.4854C7.29379 6.63818 6.56855 6.78477 6.02693 6.89918C5.75619 6.95638 5.53074 7.00592 5.3667 7.04379C5.28476 7.06271 5.21736 7.07877 5.16718 7.09185C5.12633 7.10249 5.08887 7.11448 5.06513 7.12431L5.06494 7.12335L5.06417 7.1245C5.06178 7.1255 5.05859 7.12505 5.05651 7.12604L5.0569 7.12795C4.99438 7.15277 4.92577 7.194 4.86529 7.24016C4.80164 7.28876 4.73887 7.34604 4.69344 7.40119L4.54155 7.59208C4.36167 7.82616 4.1088 8.1758 3.87721 8.5045C3.72232 8.72434 3.57551 8.93647 3.46616 9.10106C3.41159 9.18321 3.36595 9.25471 3.33267 9.30917C3.31608 9.33632 3.30176 9.3606 3.29117 9.38026C3.28275 9.39591 3.27073 9.41948 3.26556 9.44119L3.2648 9.44234C3.22383 9.62036 3.26324 9.80849 3.35087 9.95994C3.43848 10.1112 3.5811 10.2365 3.7564 10.2779L3.79395 10.2813C3.80398 10.2813 3.81629 10.2807 3.82957 10.2801C3.85635 10.2789 3.8928 10.2769 3.93681 10.2735C4.02496 10.2666 4.14834 10.255 4.30163 10.2401C4.60917 10.2101 5.03954 10.1652 5.55041 10.1097C6.5721 9.99856 7.91952 9.8452 9.26686 9.68866C10.6143 9.53211 11.9623 9.37178 12.9839 9.24563C13.4946 9.18256 13.9245 9.12781 14.2319 9.08651C14.3854 9.06589 14.509 9.04857 14.597 9.03505C14.6407 9.02835 14.6766 9.02264 14.7031 9.01772C14.7164 9.01527 14.7288 9.01289 14.7386 9.01061ZM8.91469 8.64979L8.91373 8.64998C8.69347 8.67177 7.71383 8.78282 5.52457 9.04407C5.25266 9.07643 5.02092 9.10047 4.85795 9.11227C4.8257 9.11461 4.79638 9.11555 4.77024 9.11695C4.78125 9.0999 4.7927 9.0807 4.80581 9.06099C4.88107 8.9479 4.98628 8.79678 5.10478 8.63536L5.10573 8.63517L5.5103 8.08074L8.78662 7.42245L9.03132 8.6403L8.91469 8.64979ZM13.4563 8.09686C13.355 8.11157 13.2149 8.13099 13.0492 8.15276C12.7177 8.19629 12.2832 8.25034 11.8492 8.30321C11.4154 8.35605 10.9816 8.40812 10.6506 8.44542C10.4854 8.46405 10.346 8.47899 10.245 8.48907C10.1946 8.49411 10.1539 8.49896 10.125 8.50124C10.1174 8.48232 10.1068 8.45443 10.0956 8.41451C10.0654 8.3071 10.0273 8.134 9.97464 7.87204C9.93601 7.67976 9.90405 7.50127 9.88341 7.36843C9.87335 7.30366 9.86488 7.25119 9.86125 7.21351C9.89289 7.20475 9.93665 7.1944 9.99069 7.18351C10.1073 7.16002 10.2638 7.13387 10.4302 7.11015C10.7665 7.06219 11.1279 7.02519 11.2749 7.03107L11.5084 7.04791C12.0405 7.10986 12.5037 7.33208 13.1864 7.84429C13.3378 7.95794 13.4369 8.03752 13.5019 8.09069C13.4878 8.0928 13.4725 8.0945 13.4563 8.09686Z" fill="#0295FF" stroke="#0295FF" stroke-width="0.2"/>
<path d="M4.60258 12.1406C4.91338 12.0893 5.12745 12.0443 5.27927 11.9887C5.4352 11.9316 5.53344 11.8605 5.60465 11.754L5.65551 11.6601C5.74846 11.4368 5.66081 11.1865 5.44965 11.0421L5.26453 10.9189L3.87818 11.1974L3.75577 11.3814C3.67557 11.5019 3.64294 11.6328 3.66877 11.7615C3.69447 11.8894 3.77536 12.0006 3.89487 12.0886C3.96951 12.1455 4.02991 12.1932 4.14222 12.1992C4.19184 12.2019 4.25005 12.1972 4.32108 12.1872C4.3926 12.1771 4.48377 12.1602 4.60238 12.1396L4.60258 12.1406Z" fill="#0295FF" stroke="#0295FF" stroke-width="0.2"/>
<path d="M10.6773 11.5491C10.9701 11.4902 11.1692 11.4374 11.3026 11.3647C11.3716 11.327 11.4263 11.2825 11.4681 11.2268C11.5095 11.1717 11.5338 11.1104 11.5511 11.0448L11.5521 11.0446C11.5728 10.9681 11.5869 10.9026 11.58 10.8368C11.573 10.7693 11.5454 10.7122 11.5096 10.6497C11.4747 10.5888 11.4373 10.5296 11.3859 10.4853C11.3307 10.4379 11.2657 10.4126 11.1863 10.4039C11.1103 10.3956 11.0183 10.4022 10.9053 10.4185C10.7912 10.435 10.6475 10.4624 10.4662 10.4988C10.2135 10.5496 10.0438 10.5871 9.92894 10.6207C9.81748 10.6532 9.73933 10.6867 9.68811 10.7408L9.6883 10.7417C9.65303 10.7781 9.62448 10.83 9.60511 10.878C9.58452 10.9291 9.56822 10.9878 9.56236 11.042L9.56351 11.0427C9.55482 11.1135 9.55095 11.1761 9.57039 11.2406C9.58953 11.3039 9.62773 11.3589 9.67646 11.4215L9.67742 11.4213C9.71877 11.4751 9.76479 11.5222 9.82424 11.5571C9.88436 11.5924 9.95198 11.6122 10.0302 11.6203C10.1813 11.6359 10.3847 11.6079 10.6773 11.5491Z" fill="#0295FF" stroke="#0295FF" stroke-width="0.2"/>
<path d="M11.7916 14.5748C11.9808 14.6263 12.2056 14.5903 12.3681 14.4301C12.4534 14.3461 12.4983 14.2228 12.5155 14.1126C12.5328 14.0015 12.5267 13.8733 12.479 13.7674L12.4771 13.7628C12.4016 13.6091 12.255 13.5096 12.1058 13.4668C11.9571 13.4242 11.7804 13.4307 11.6384 13.5249L11.635 13.5276C11.539 13.5952 11.4677 13.6998 11.4249 13.8058C11.3821 13.912 11.36 14.0382 11.3837 14.1558C11.4284 14.3784 11.6026 14.5233 11.7916 14.5748Z" fill="#0295FF" stroke="#0295FF" stroke-width="0.3"/>
</svg>
