<svg width="24" height="24" viewBox="0 0 24 24" fill="none" xmlns="http://www.w3.org/2000/svg">
<g clip-path="url(#clip0_5005_1684)">
<path d="M4.07611 1.07125C2.61517 1.35915 1.52806 2.36891 1.11986 3.81696L1.02103 4.16071L1.00814 10.5631C0.999546 16.6002 1.00384 16.974 1.07259 17.1158C1.24447 17.4509 1.68705 17.567 2.00072 17.3564C2.08236 17.3006 3.02337 16.5271 4.089 15.6377L6.03119 14.0177L6.27611 14.0306L6.52103 14.0435L6.54251 15.2896L6.5683 16.5357L6.7058 16.9439C7.1183 18.1814 8.11087 19.1095 9.39134 19.4447C9.73939 19.5392 9.79525 19.5392 13.873 19.5521L18.0023 19.5693L20.0046 21.2365C21.1089 22.156 22.0714 22.9295 22.1445 22.9552C22.3421 23.024 22.4667 23.0154 22.6558 22.9166C22.7675 22.8607 22.8577 22.7705 22.9136 22.6588C22.9995 22.4869 22.9995 22.4482 22.991 15.7322L22.9781 8.97321L22.8792 8.62946C22.5827 7.57243 21.8781 6.72165 20.9156 6.24469C20.2109 5.89664 19.7253 5.8193 18.2902 5.815H17.4652L17.4437 4.92126C17.4222 3.91149 17.3878 3.74391 17.0913 3.12086C16.5585 2.01657 15.5015 1.23883 14.2769 1.04547C14.0964 1.01969 12.2702 1.0025 9.18509 1.0068C5.30501 1.0111 4.31673 1.02399 4.07611 1.07125ZM14.2468 2.35602C14.7152 2.45485 15.0718 2.6525 15.437 3.02204C15.6261 3.2111 15.8195 3.45172 15.8968 3.60211C16.1718 4.13063 16.1675 4.07047 16.1675 7.51227C16.1675 10.9584 16.1718 10.8982 15.8968 11.4224C15.7292 11.7318 15.3382 12.1615 15.046 12.3506C14.9257 12.4236 14.7023 12.5396 14.5433 12.5998L14.2554 12.7115L9.91556 12.733L5.57572 12.7545L5.42533 12.8619C5.34369 12.9177 4.639 13.4978 3.85697 14.1509C3.07923 14.7998 2.40462 15.3584 2.36166 15.3927C2.28861 15.4486 2.28861 15.208 2.2972 9.84977L2.31009 4.24664L2.42181 3.96305C2.56361 3.59782 2.7097 3.3529 2.92884 3.09938C3.24251 2.74704 3.79681 2.43336 4.28666 2.33454C4.38119 2.31735 6.59408 2.30016 9.20658 2.29586C13.1855 2.29157 14.0019 2.30446 14.2468 2.35602ZM19.9058 7.21149C20.5503 7.41344 21.1777 7.92907 21.4441 8.47907C21.7191 9.03766 21.7105 8.77985 21.7105 15.1736V20.983L20.1722 19.6982C19.3257 18.9935 18.5867 18.3877 18.5265 18.3576C18.4406 18.306 17.6714 18.2931 14.1265 18.2759L9.82962 18.2545L9.55033 18.1556C8.7597 17.8849 8.17962 17.3091 7.939 16.5443C7.83587 16.222 7.83158 16.1619 7.83158 15.1134V14.022H10.9382C12.8374 14.022 14.1437 14.0048 14.3113 13.9791C14.741 13.906 15.2179 13.7384 15.5445 13.5408L15.8452 13.356L17.4867 13.3345C19.0593 13.3131 19.1324 13.3088 19.2441 13.2228C19.4632 13.0638 19.5363 12.922 19.532 12.6857C19.5277 12.4494 19.4546 12.3119 19.2441 12.1572C19.1324 12.0713 19.0593 12.067 18.0839 12.0541L17.0398 12.0412L17.1816 11.7103C17.2589 11.5298 17.3577 11.199 17.4007 10.9798L17.4738 10.5845H18.2386C19.1066 10.5845 19.2226 10.5588 19.4117 10.3095C19.6308 10.0216 19.5535 9.58336 19.2441 9.3986C19.1281 9.32985 18.9949 9.31266 18.2945 9.29547L17.4781 9.27399L17.4652 8.24274C17.4609 7.67555 17.4652 7.18571 17.4781 7.15133C17.5124 7.0611 19.5749 7.10836 19.9058 7.21149Z" fill="#0295FF"/>
<path d="M10.435 14.8397C10.2889 14.8869 10.1213 15.033 10.0397 15.192C9.90649 15.4498 10.0139 15.8108 10.276 15.9869L10.4221 16.0858H14.7362C19.5401 16.0858 19.2479 16.1029 19.4413 15.7979C19.626 15.4928 19.5229 15.0846 19.2178 14.9041C19.0674 14.8182 19.0073 14.8182 14.8135 14.8096C12.4717 14.8053 10.5038 14.8182 10.435 14.8397Z" fill="#0295FF"/>
<path d="M3.24148 10V9.28977L4.59801 8.16761C4.68797 8.09304 4.76491 8.0232 4.82884 7.9581C4.89394 7.89181 4.94366 7.82375 4.97798 7.75391C5.01349 7.68407 5.03125 7.60653 5.03125 7.52131C5.03125 7.42779 5.01113 7.34789 4.97088 7.28161C4.93182 7.21532 4.87737 7.16442 4.80753 7.12891C4.73769 7.09221 4.6572 7.07386 4.56605 7.07386C4.47491 7.07386 4.39441 7.09221 4.32457 7.12891C4.25592 7.1656 4.20265 7.21946 4.16477 7.29048C4.12689 7.36151 4.10795 7.44792 4.10795 7.54972H3.17045C3.17045 7.29403 3.22786 7.07386 3.34268 6.8892C3.4575 6.70455 3.61967 6.5625 3.82919 6.46307C4.03871 6.36364 4.28433 6.31392 4.56605 6.31392C4.85724 6.31392 5.10938 6.36068 5.32244 6.45419C5.5367 6.54652 5.70182 6.67673 5.81783 6.84482C5.93501 7.0129 5.99361 7.20999 5.99361 7.43608C5.99361 7.57576 5.96461 7.71484 5.90661 7.85334C5.8486 7.99065 5.74444 8.14276 5.59411 8.30966C5.44377 8.47656 5.23011 8.67543 4.95312 8.90625L4.61222 9.19034V9.21165H6.03267V10H3.24148ZM6.36026 9.43182V8.66477L7.82333 6.36364H8.51935V7.38636H8.12163L7.33327 8.63636V8.66477H9.49237V9.43182H6.36026ZM8.12873 10V9.19744L8.15004 8.86364V6.36364H9.07333V10H8.12873ZM11.6963 6.19318L10.5244 10.5469H9.69345L10.8653 6.19318H11.6963ZM12.1304 10L13.558 7.1733V7.15199H11.8818V6.36364H14.5807V7.15199L13.146 10H12.1304Z" fill="#0295FF"/>
</g>
<defs>
<clipPath id="clip0_5005_1684">
<rect width="22" height="22" fill="white" transform="translate(1 1)"/>
</clipPath>
</defs>
</svg>
