<svg width="24" height="24" viewBox="0 0 24 24" fill="none" xmlns="http://www.w3.org/2000/svg">
<g clip-path="url(#clip0_5005_216)">
<mask id="path-1-outside-1_5005_216" maskUnits="userSpaceOnUse" x="-0.992188" y="2.21875" width="26" height="22" fill="black">
<rect fill="white" x="-0.992188" y="2.21875" width="26" height="22"/>
<path d="M4.75754 2.68744C2.61535 3.09994 0.998163 4.75932 0.679413 6.87338C0.566913 7.62338 0.59035 8.19994 0.77785 9.28276C0.801288 9.42807 0.791913 9.46088 0.712225 9.48432C0.55285 9.53588 0.2716 9.84994 0.149725 10.1124C0.0700378 10.2906 0.0278503 10.4781 0.0137878 10.7453C-0.0471497 11.7249 0.360663 12.5031 1.11535 12.8593C1.37785 12.9859 1.41066 13.0187 1.45754 13.1874C1.79035 14.4859 2.4841 15.5406 3.51535 16.3046C4.6216 17.1296 6.04191 17.4859 7.43879 17.289C7.79973 17.2374 8.57785 17.0171 8.8216 16.8906L8.94816 16.8249L8.97629 17.0499C9.04191 17.5562 9.18254 17.9312 9.41691 18.2312L9.50598 18.3437L9.20129 18.6718C8.39504 19.5249 7.67785 21.0624 7.56535 22.1734C7.52785 22.5343 7.58879 22.7593 7.76223 22.9234C7.86066 23.0171 7.94035 23.0359 8.24504 23.0499C9.00441 23.0874 10.0169 22.6609 10.7341 22.0093C10.9778 21.789 11.3154 21.414 11.381 21.2968C11.4232 21.2218 11.4794 21.264 11.8216 21.6109C12.8622 22.6703 14.1466 23.214 15.6091 23.2187C16.7575 23.2234 17.7044 22.9374 18.6513 22.2999C19.0357 22.0374 19.5888 21.5265 19.8044 21.2359C19.8841 21.1328 19.9591 21.0437 19.9732 21.0437C19.9872 21.0437 20.081 21.1609 20.1794 21.3015C20.2779 21.4468 20.531 21.7234 20.7419 21.9249C21.4497 22.5953 22.3263 23.0078 23.1138 23.0499C23.5966 23.0734 23.8122 22.9984 23.9247 22.7546C24.1263 22.3328 23.8732 21.2124 23.3341 20.1296C23.006 19.4734 22.7247 19.0656 22.2888 18.6109L21.9091 18.2171L22.0638 17.9031C22.3544 17.3218 22.3825 16.4406 22.1294 15.939C22.0263 15.7468 21.8341 15.5265 21.6607 15.414L21.5482 15.3437L21.6091 14.8703C21.6888 14.2328 21.6466 13.3187 21.5107 12.7937C21.2716 11.8656 20.8638 11.1578 20.156 10.4453C19.4997 9.77963 18.7732 9.32963 17.845 9.02026C17.095 8.76713 16.6028 8.69682 15.6325 8.69682C14.531 8.70151 13.8232 8.82807 12.9794 9.18901C12.7966 9.26869 12.6372 9.32026 12.6279 9.31088C12.6185 9.30151 12.6419 9.07182 12.6841 8.80932C12.7872 8.14838 12.7544 6.87338 12.6185 6.39526C12.3419 5.41557 11.9247 4.73588 11.2825 4.21557C10.5232 3.60151 9.40285 3.32026 8.57785 3.53119L8.32004 3.59682L8.03879 3.38588C7.66848 3.10463 7.31223 2.93119 6.81066 2.78119C6.46848 2.67807 6.28098 2.65463 5.74191 2.64057C5.32004 2.63119 4.96848 2.64526 4.75754 2.68744ZM6.63254 3.41869C7.10598 3.56869 7.45754 3.76088 7.80441 4.05151C8.13254 4.33276 8.23098 4.35619 8.5216 4.23432C8.76535 4.13119 9.31379 4.09838 9.66535 4.16401C10.8419 4.39369 11.7607 5.41088 12.0185 6.78901C12.1497 7.47338 12.0982 8.65932 11.9013 9.38588L11.8544 9.56401L11.5872 9.41401C10.556 8.84213 8.99973 7.29994 8.54973 6.40932C8.33879 5.99682 8.10441 5.99213 7.78098 6.39994C7.34035 6.95776 6.43566 7.58119 5.17941 8.19994C3.8341 8.86088 2.00129 9.50776 1.6591 9.44213C1.52316 9.41869 1.50441 9.39526 1.43879 9.12338C1.30754 8.60307 1.25129 8.01244 1.27941 7.47338C1.37316 5.82807 2.16535 4.56713 3.57629 3.81713C4.04973 3.56401 4.26535 3.48432 4.78098 3.36713C5.31535 3.24526 6.1591 3.27338 6.63254 3.41869ZM8.43723 7.44994C9.03723 8.27026 10.3263 9.44682 11.1279 9.91557C11.2825 10.0093 11.4185 10.089 11.4279 10.0984C11.4325 10.1031 11.306 10.2437 11.1419 10.4078C10.0732 11.4859 9.53879 12.864 9.62316 14.3406C9.64191 14.6124 9.67473 14.9499 9.70285 15.0906C9.74035 15.2828 9.73566 15.3531 9.69816 15.3671C9.59504 15.3999 9.27629 15.714 9.20598 15.8499C9.07473 16.1078 8.04348 16.5296 7.29348 16.6328C5.54035 16.8765 3.77785 16.0796 2.77004 14.5796C2.14191 13.6562 1.95441 12.8078 1.97785 11.064L1.99191 10.1124L2.60129 9.92963C4.60754 9.34369 6.63254 8.33119 7.78566 7.33744C7.97785 7.17338 8.13723 7.04213 8.13723 7.04682C8.14191 7.04682 8.27785 7.22963 8.43723 7.44994ZM17.2732 9.53119C17.8029 9.67651 18.5482 10.014 18.9841 10.3093C19.4107 10.5953 19.9216 11.1015 20.2029 11.5046C20.6904 12.2124 20.9341 12.9343 20.9857 13.8249C21.0138 14.3171 20.9435 15.0718 20.8544 15.2359C20.7747 15.3906 20.531 15.3906 19.9029 15.2359C18.0325 14.7812 16.6169 13.8718 16.0732 12.7656C15.9091 12.4421 15.8388 12.3437 15.7357 12.3109C15.5435 12.2499 15.3982 12.3671 15.2388 12.714C14.7935 13.6937 13.7013 14.4906 12.056 15.039C11.2919 15.2968 10.7341 15.3999 10.5513 15.3249C10.4247 15.2734 10.406 15.2406 10.3638 14.9593C10.2278 14.0968 10.2654 13.4218 10.4857 12.7234C10.9404 11.2796 12.0747 10.1734 13.6357 9.65307C14.3482 9.41401 14.681 9.37182 15.7966 9.39057C16.7154 9.40463 16.8466 9.41401 17.2732 9.53119ZM1.31223 11.1296V12.2359L1.1716 12.1328C1.00285 12.0062 0.8341 11.7578 0.745038 11.5046C0.655975 11.2374 0.66535 10.5578 0.763788 10.3703C0.862225 10.1828 1.0591 10.0281 1.19973 10.0281H1.31223V11.1296ZM15.9607 13.8296C16.6638 14.7109 18.2388 15.5546 19.8888 15.9343L20.3435 16.0374V16.9421C20.3435 18.7421 20.156 19.5437 19.5044 20.5281C18.6044 21.8921 16.8279 22.7218 15.206 22.539C13.106 22.3046 11.47 20.8328 11.0575 18.8078C10.9778 18.4374 10.9685 18.1984 10.9778 17.1953L10.9919 16.0187L11.6013 15.864C13.3357 15.4281 14.77 14.6078 15.445 13.6703C15.6091 13.4406 15.6372 13.4218 15.6888 13.4874C15.7216 13.5343 15.8435 13.6843 15.9607 13.8296ZM10.3029 17.0218C10.3075 17.6687 10.2982 18.0906 10.27 18.0906C10.1716 18.0906 9.92316 17.8281 9.81066 17.6031C9.70754 17.4109 9.67941 17.2796 9.66535 16.9374C9.65129 16.6749 9.66535 16.4406 9.70285 16.3374C9.77316 16.1218 10.0029 15.9249 10.1669 15.9437L10.2888 15.9578L10.3029 17.0218ZM21.3232 15.9999C21.4685 16.0796 21.5482 16.2296 21.6091 16.5531C21.6607 16.8296 21.5997 17.3687 21.4872 17.589C21.4075 17.7484 21.0982 18.0906 21.0372 18.0906C21.0185 18.0906 20.9997 17.6031 20.9997 17.0124C20.9997 15.9578 20.9997 15.9343 21.0935 15.9343C21.1497 15.9343 21.2482 15.9624 21.3232 15.9999ZM21.8247 19.0843C22.0029 19.2718 22.2419 19.5624 22.3497 19.7312C22.795 20.4015 23.2544 21.5453 23.3247 22.1499L23.3575 22.4171L23.0997 22.389C22.7482 22.3562 22.2325 22.1687 21.8294 21.9296C21.3935 21.6765 20.7466 21.0249 20.545 20.6406L20.3904 20.3546L20.5497 19.9843C20.6388 19.7828 20.7513 19.4546 20.8029 19.2624C20.8919 18.9203 20.8966 18.9062 21.1216 18.789C21.2622 18.714 21.3794 18.6812 21.4263 18.7046C21.4638 18.7234 21.6419 18.8968 21.8247 19.0843ZM10.2232 18.8124C10.3638 18.8734 10.3872 18.9062 10.4857 19.2859C10.5466 19.5109 10.6919 19.9046 10.8091 20.1578L11.0294 20.6171L10.8794 20.8468C10.7107 21.114 10.1997 21.6156 9.87629 21.8359C9.42629 22.1406 8.72785 22.4031 8.35285 22.4031H8.19816L8.23098 22.1781C8.33879 21.4234 8.78879 20.3312 9.28098 19.6093C9.41223 19.4265 10.0169 18.7468 10.0544 18.7468C10.0638 18.7468 10.1388 18.7749 10.2232 18.8124Z"/>
</mask>
<path d="M4.75754 2.68744C2.61535 3.09994 0.998163 4.75932 0.679413 6.87338C0.566913 7.62338 0.59035 8.19994 0.77785 9.28276C0.801288 9.42807 0.791913 9.46088 0.712225 9.48432C0.55285 9.53588 0.2716 9.84994 0.149725 10.1124C0.0700378 10.2906 0.0278503 10.4781 0.0137878 10.7453C-0.0471497 11.7249 0.360663 12.5031 1.11535 12.8593C1.37785 12.9859 1.41066 13.0187 1.45754 13.1874C1.79035 14.4859 2.4841 15.5406 3.51535 16.3046C4.6216 17.1296 6.04191 17.4859 7.43879 17.289C7.79973 17.2374 8.57785 17.0171 8.8216 16.8906L8.94816 16.8249L8.97629 17.0499C9.04191 17.5562 9.18254 17.9312 9.41691 18.2312L9.50598 18.3437L9.20129 18.6718C8.39504 19.5249 7.67785 21.0624 7.56535 22.1734C7.52785 22.5343 7.58879 22.7593 7.76223 22.9234C7.86066 23.0171 7.94035 23.0359 8.24504 23.0499C9.00441 23.0874 10.0169 22.6609 10.7341 22.0093C10.9778 21.789 11.3154 21.414 11.381 21.2968C11.4232 21.2218 11.4794 21.264 11.8216 21.6109C12.8622 22.6703 14.1466 23.214 15.6091 23.2187C16.7575 23.2234 17.7044 22.9374 18.6513 22.2999C19.0357 22.0374 19.5888 21.5265 19.8044 21.2359C19.8841 21.1328 19.9591 21.0437 19.9732 21.0437C19.9872 21.0437 20.081 21.1609 20.1794 21.3015C20.2779 21.4468 20.531 21.7234 20.7419 21.9249C21.4497 22.5953 22.3263 23.0078 23.1138 23.0499C23.5966 23.0734 23.8122 22.9984 23.9247 22.7546C24.1263 22.3328 23.8732 21.2124 23.3341 20.1296C23.006 19.4734 22.7247 19.0656 22.2888 18.6109L21.9091 18.2171L22.0638 17.9031C22.3544 17.3218 22.3825 16.4406 22.1294 15.939C22.0263 15.7468 21.8341 15.5265 21.6607 15.414L21.5482 15.3437L21.6091 14.8703C21.6888 14.2328 21.6466 13.3187 21.5107 12.7937C21.2716 11.8656 20.8638 11.1578 20.156 10.4453C19.4997 9.77963 18.7732 9.32963 17.845 9.02026C17.095 8.76713 16.6028 8.69682 15.6325 8.69682C14.531 8.70151 13.8232 8.82807 12.9794 9.18901C12.7966 9.26869 12.6372 9.32026 12.6279 9.31088C12.6185 9.30151 12.6419 9.07182 12.6841 8.80932C12.7872 8.14838 12.7544 6.87338 12.6185 6.39526C12.3419 5.41557 11.9247 4.73588 11.2825 4.21557C10.5232 3.60151 9.40285 3.32026 8.57785 3.53119L8.32004 3.59682L8.03879 3.38588C7.66848 3.10463 7.31223 2.93119 6.81066 2.78119C6.46848 2.67807 6.28098 2.65463 5.74191 2.64057C5.32004 2.63119 4.96848 2.64526 4.75754 2.68744ZM6.63254 3.41869C7.10598 3.56869 7.45754 3.76088 7.80441 4.05151C8.13254 4.33276 8.23098 4.35619 8.5216 4.23432C8.76535 4.13119 9.31379 4.09838 9.66535 4.16401C10.8419 4.39369 11.7607 5.41088 12.0185 6.78901C12.1497 7.47338 12.0982 8.65932 11.9013 9.38588L11.8544 9.56401L11.5872 9.41401C10.556 8.84213 8.99973 7.29994 8.54973 6.40932C8.33879 5.99682 8.10441 5.99213 7.78098 6.39994C7.34035 6.95776 6.43566 7.58119 5.17941 8.19994C3.8341 8.86088 2.00129 9.50776 1.6591 9.44213C1.52316 9.41869 1.50441 9.39526 1.43879 9.12338C1.30754 8.60307 1.25129 8.01244 1.27941 7.47338C1.37316 5.82807 2.16535 4.56713 3.57629 3.81713C4.04973 3.56401 4.26535 3.48432 4.78098 3.36713C5.31535 3.24526 6.1591 3.27338 6.63254 3.41869ZM8.43723 7.44994C9.03723 8.27026 10.3263 9.44682 11.1279 9.91557C11.2825 10.0093 11.4185 10.089 11.4279 10.0984C11.4325 10.1031 11.306 10.2437 11.1419 10.4078C10.0732 11.4859 9.53879 12.864 9.62316 14.3406C9.64191 14.6124 9.67473 14.9499 9.70285 15.0906C9.74035 15.2828 9.73566 15.3531 9.69816 15.3671C9.59504 15.3999 9.27629 15.714 9.20598 15.8499C9.07473 16.1078 8.04348 16.5296 7.29348 16.6328C5.54035 16.8765 3.77785 16.0796 2.77004 14.5796C2.14191 13.6562 1.95441 12.8078 1.97785 11.064L1.99191 10.1124L2.60129 9.92963C4.60754 9.34369 6.63254 8.33119 7.78566 7.33744C7.97785 7.17338 8.13723 7.04213 8.13723 7.04682C8.14191 7.04682 8.27785 7.22963 8.43723 7.44994ZM17.2732 9.53119C17.8029 9.67651 18.5482 10.014 18.9841 10.3093C19.4107 10.5953 19.9216 11.1015 20.2029 11.5046C20.6904 12.2124 20.9341 12.9343 20.9857 13.8249C21.0138 14.3171 20.9435 15.0718 20.8544 15.2359C20.7747 15.3906 20.531 15.3906 19.9029 15.2359C18.0325 14.7812 16.6169 13.8718 16.0732 12.7656C15.9091 12.4421 15.8388 12.3437 15.7357 12.3109C15.5435 12.2499 15.3982 12.3671 15.2388 12.714C14.7935 13.6937 13.7013 14.4906 12.056 15.039C11.2919 15.2968 10.7341 15.3999 10.5513 15.3249C10.4247 15.2734 10.406 15.2406 10.3638 14.9593C10.2278 14.0968 10.2654 13.4218 10.4857 12.7234C10.9404 11.2796 12.0747 10.1734 13.6357 9.65307C14.3482 9.41401 14.681 9.37182 15.7966 9.39057C16.7154 9.40463 16.8466 9.41401 17.2732 9.53119ZM1.31223 11.1296V12.2359L1.1716 12.1328C1.00285 12.0062 0.8341 11.7578 0.745038 11.5046C0.655975 11.2374 0.66535 10.5578 0.763788 10.3703C0.862225 10.1828 1.0591 10.0281 1.19973 10.0281H1.31223V11.1296ZM15.9607 13.8296C16.6638 14.7109 18.2388 15.5546 19.8888 15.9343L20.3435 16.0374V16.9421C20.3435 18.7421 20.156 19.5437 19.5044 20.5281C18.6044 21.8921 16.8279 22.7218 15.206 22.539C13.106 22.3046 11.47 20.8328 11.0575 18.8078C10.9778 18.4374 10.9685 18.1984 10.9778 17.1953L10.9919 16.0187L11.6013 15.864C13.3357 15.4281 14.77 14.6078 15.445 13.6703C15.6091 13.4406 15.6372 13.4218 15.6888 13.4874C15.7216 13.5343 15.8435 13.6843 15.9607 13.8296ZM10.3029 17.0218C10.3075 17.6687 10.2982 18.0906 10.27 18.0906C10.1716 18.0906 9.92316 17.8281 9.81066 17.6031C9.70754 17.4109 9.67941 17.2796 9.66535 16.9374C9.65129 16.6749 9.66535 16.4406 9.70285 16.3374C9.77316 16.1218 10.0029 15.9249 10.1669 15.9437L10.2888 15.9578L10.3029 17.0218ZM21.3232 15.9999C21.4685 16.0796 21.5482 16.2296 21.6091 16.5531C21.6607 16.8296 21.5997 17.3687 21.4872 17.589C21.4075 17.7484 21.0982 18.0906 21.0372 18.0906C21.0185 18.0906 20.9997 17.6031 20.9997 17.0124C20.9997 15.9578 20.9997 15.9343 21.0935 15.9343C21.1497 15.9343 21.2482 15.9624 21.3232 15.9999ZM21.8247 19.0843C22.0029 19.2718 22.2419 19.5624 22.3497 19.7312C22.795 20.4015 23.2544 21.5453 23.3247 22.1499L23.3575 22.4171L23.0997 22.389C22.7482 22.3562 22.2325 22.1687 21.8294 21.9296C21.3935 21.6765 20.7466 21.0249 20.545 20.6406L20.3904 20.3546L20.5497 19.9843C20.6388 19.7828 20.7513 19.4546 20.8029 19.2624C20.8919 18.9203 20.8966 18.9062 21.1216 18.789C21.2622 18.714 21.3794 18.6812 21.4263 18.7046C21.4638 18.7234 21.6419 18.8968 21.8247 19.0843ZM10.2232 18.8124C10.3638 18.8734 10.3872 18.9062 10.4857 19.2859C10.5466 19.5109 10.6919 19.9046 10.8091 20.1578L11.0294 20.6171L10.8794 20.8468C10.7107 21.114 10.1997 21.6156 9.87629 21.8359C9.42629 22.1406 8.72785 22.4031 8.35285 22.4031H8.19816L8.23098 22.1781C8.33879 21.4234 8.78879 20.3312 9.28098 19.6093C9.41223 19.4265 10.0169 18.7468 10.0544 18.7468C10.0638 18.7468 10.1388 18.7749 10.2232 18.8124Z" fill="#0295FF"/>
<path d="M4.75754 2.68744C2.61535 3.09994 0.998163 4.75932 0.679413 6.87338C0.566913 7.62338 0.59035 8.19994 0.77785 9.28276C0.801288 9.42807 0.791913 9.46088 0.712225 9.48432C0.55285 9.53588 0.2716 9.84994 0.149725 10.1124C0.0700378 10.2906 0.0278503 10.4781 0.0137878 10.7453C-0.0471497 11.7249 0.360663 12.5031 1.11535 12.8593C1.37785 12.9859 1.41066 13.0187 1.45754 13.1874C1.79035 14.4859 2.4841 15.5406 3.51535 16.3046C4.6216 17.1296 6.04191 17.4859 7.43879 17.289C7.79973 17.2374 8.57785 17.0171 8.8216 16.8906L8.94816 16.8249L8.97629 17.0499C9.04191 17.5562 9.18254 17.9312 9.41691 18.2312L9.50598 18.3437L9.20129 18.6718C8.39504 19.5249 7.67785 21.0624 7.56535 22.1734C7.52785 22.5343 7.58879 22.7593 7.76223 22.9234C7.86066 23.0171 7.94035 23.0359 8.24504 23.0499C9.00441 23.0874 10.0169 22.6609 10.7341 22.0093C10.9778 21.789 11.3154 21.414 11.381 21.2968C11.4232 21.2218 11.4794 21.264 11.8216 21.6109C12.8622 22.6703 14.1466 23.214 15.6091 23.2187C16.7575 23.2234 17.7044 22.9374 18.6513 22.2999C19.0357 22.0374 19.5888 21.5265 19.8044 21.2359C19.8841 21.1328 19.9591 21.0437 19.9732 21.0437C19.9872 21.0437 20.081 21.1609 20.1794 21.3015C20.2779 21.4468 20.531 21.7234 20.7419 21.9249C21.4497 22.5953 22.3263 23.0078 23.1138 23.0499C23.5966 23.0734 23.8122 22.9984 23.9247 22.7546C24.1263 22.3328 23.8732 21.2124 23.3341 20.1296C23.006 19.4734 22.7247 19.0656 22.2888 18.6109L21.9091 18.2171L22.0638 17.9031C22.3544 17.3218 22.3825 16.4406 22.1294 15.939C22.0263 15.7468 21.8341 15.5265 21.6607 15.414L21.5482 15.3437L21.6091 14.8703C21.6888 14.2328 21.6466 13.3187 21.5107 12.7937C21.2716 11.8656 20.8638 11.1578 20.156 10.4453C19.4997 9.77963 18.7732 9.32963 17.845 9.02026C17.095 8.76713 16.6028 8.69682 15.6325 8.69682C14.531 8.70151 13.8232 8.82807 12.9794 9.18901C12.7966 9.26869 12.6372 9.32026 12.6279 9.31088C12.6185 9.30151 12.6419 9.07182 12.6841 8.80932C12.7872 8.14838 12.7544 6.87338 12.6185 6.39526C12.3419 5.41557 11.9247 4.73588 11.2825 4.21557C10.5232 3.60151 9.40285 3.32026 8.57785 3.53119L8.32004 3.59682L8.03879 3.38588C7.66848 3.10463 7.31223 2.93119 6.81066 2.78119C6.46848 2.67807 6.28098 2.65463 5.74191 2.64057C5.32004 2.63119 4.96848 2.64526 4.75754 2.68744ZM6.63254 3.41869C7.10598 3.56869 7.45754 3.76088 7.80441 4.05151C8.13254 4.33276 8.23098 4.35619 8.5216 4.23432C8.76535 4.13119 9.31379 4.09838 9.66535 4.16401C10.8419 4.39369 11.7607 5.41088 12.0185 6.78901C12.1497 7.47338 12.0982 8.65932 11.9013 9.38588L11.8544 9.56401L11.5872 9.41401C10.556 8.84213 8.99973 7.29994 8.54973 6.40932C8.33879 5.99682 8.10441 5.99213 7.78098 6.39994C7.34035 6.95776 6.43566 7.58119 5.17941 8.19994C3.8341 8.86088 2.00129 9.50776 1.6591 9.44213C1.52316 9.41869 1.50441 9.39526 1.43879 9.12338C1.30754 8.60307 1.25129 8.01244 1.27941 7.47338C1.37316 5.82807 2.16535 4.56713 3.57629 3.81713C4.04973 3.56401 4.26535 3.48432 4.78098 3.36713C5.31535 3.24526 6.1591 3.27338 6.63254 3.41869ZM8.43723 7.44994C9.03723 8.27026 10.3263 9.44682 11.1279 9.91557C11.2825 10.0093 11.4185 10.089 11.4279 10.0984C11.4325 10.1031 11.306 10.2437 11.1419 10.4078C10.0732 11.4859 9.53879 12.864 9.62316 14.3406C9.64191 14.6124 9.67473 14.9499 9.70285 15.0906C9.74035 15.2828 9.73566 15.3531 9.69816 15.3671C9.59504 15.3999 9.27629 15.714 9.20598 15.8499C9.07473 16.1078 8.04348 16.5296 7.29348 16.6328C5.54035 16.8765 3.77785 16.0796 2.77004 14.5796C2.14191 13.6562 1.95441 12.8078 1.97785 11.064L1.99191 10.1124L2.60129 9.92963C4.60754 9.34369 6.63254 8.33119 7.78566 7.33744C7.97785 7.17338 8.13723 7.04213 8.13723 7.04682C8.14191 7.04682 8.27785 7.22963 8.43723 7.44994ZM17.2732 9.53119C17.8029 9.67651 18.5482 10.014 18.9841 10.3093C19.4107 10.5953 19.9216 11.1015 20.2029 11.5046C20.6904 12.2124 20.9341 12.9343 20.9857 13.8249C21.0138 14.3171 20.9435 15.0718 20.8544 15.2359C20.7747 15.3906 20.531 15.3906 19.9029 15.2359C18.0325 14.7812 16.6169 13.8718 16.0732 12.7656C15.9091 12.4421 15.8388 12.3437 15.7357 12.3109C15.5435 12.2499 15.3982 12.3671 15.2388 12.714C14.7935 13.6937 13.7013 14.4906 12.056 15.039C11.2919 15.2968 10.7341 15.3999 10.5513 15.3249C10.4247 15.2734 10.406 15.2406 10.3638 14.9593C10.2278 14.0968 10.2654 13.4218 10.4857 12.7234C10.9404 11.2796 12.0747 10.1734 13.6357 9.65307C14.3482 9.41401 14.681 9.37182 15.7966 9.39057C16.7154 9.40463 16.8466 9.41401 17.2732 9.53119ZM1.31223 11.1296V12.2359L1.1716 12.1328C1.00285 12.0062 0.8341 11.7578 0.745038 11.5046C0.655975 11.2374 0.66535 10.5578 0.763788 10.3703C0.862225 10.1828 1.0591 10.0281 1.19973 10.0281H1.31223V11.1296ZM15.9607 13.8296C16.6638 14.7109 18.2388 15.5546 19.8888 15.9343L20.3435 16.0374V16.9421C20.3435 18.7421 20.156 19.5437 19.5044 20.5281C18.6044 21.8921 16.8279 22.7218 15.206 22.539C13.106 22.3046 11.47 20.8328 11.0575 18.8078C10.9778 18.4374 10.9685 18.1984 10.9778 17.1953L10.9919 16.0187L11.6013 15.864C13.3357 15.4281 14.77 14.6078 15.445 13.6703C15.6091 13.4406 15.6372 13.4218 15.6888 13.4874C15.7216 13.5343 15.8435 13.6843 15.9607 13.8296ZM10.3029 17.0218C10.3075 17.6687 10.2982 18.0906 10.27 18.0906C10.1716 18.0906 9.92316 17.8281 9.81066 17.6031C9.70754 17.4109 9.67941 17.2796 9.66535 16.9374C9.65129 16.6749 9.66535 16.4406 9.70285 16.3374C9.77316 16.1218 10.0029 15.9249 10.1669 15.9437L10.2888 15.9578L10.3029 17.0218ZM21.3232 15.9999C21.4685 16.0796 21.5482 16.2296 21.6091 16.5531C21.6607 16.8296 21.5997 17.3687 21.4872 17.589C21.4075 17.7484 21.0982 18.0906 21.0372 18.0906C21.0185 18.0906 20.9997 17.6031 20.9997 17.0124C20.9997 15.9578 20.9997 15.9343 21.0935 15.9343C21.1497 15.9343 21.2482 15.9624 21.3232 15.9999ZM21.8247 19.0843C22.0029 19.2718 22.2419 19.5624 22.3497 19.7312C22.795 20.4015 23.2544 21.5453 23.3247 22.1499L23.3575 22.4171L23.0997 22.389C22.7482 22.3562 22.2325 22.1687 21.8294 21.9296C21.3935 21.6765 20.7466 21.0249 20.545 20.6406L20.3904 20.3546L20.5497 19.9843C20.6388 19.7828 20.7513 19.4546 20.8029 19.2624C20.8919 18.9203 20.8966 18.9062 21.1216 18.789C21.2622 18.714 21.3794 18.6812 21.4263 18.7046C21.4638 18.7234 21.6419 18.8968 21.8247 19.0843ZM10.2232 18.8124C10.3638 18.8734 10.3872 18.9062 10.4857 19.2859C10.5466 19.5109 10.6919 19.9046 10.8091 20.1578L11.0294 20.6171L10.8794 20.8468C10.7107 21.114 10.1997 21.6156 9.87629 21.8359C9.42629 22.1406 8.72785 22.4031 8.35285 22.4031H8.19816L8.23098 22.1781C8.33879 21.4234 8.78879 20.3312 9.28098 19.6093C9.41223 19.4265 10.0169 18.7468 10.0544 18.7468C10.0638 18.7468 10.1388 18.7749 10.2232 18.8124Z" stroke="#0295FF" stroke-width="0.4" mask="url(#path-1-outside-1_5005_216)"/>
<path d="M3.70898 11.5996C3.86237 11.5918 4.01301 11.4995 4.09668 11.3379L4.12891 11.2881C4.16647 11.2406 4.22012 11.1996 4.2793 11.1719C4.35998 11.1341 4.43335 11.1292 4.47852 11.1465L4.56934 11.2129C4.61194 11.2507 4.65678 11.2977 4.69238 11.3438L4.69434 11.3457C4.73942 11.4008 4.79028 11.4546 4.83691 11.4961C4.86009 11.5167 4.88369 11.5357 4.90625 11.5508C4.92525 11.5634 4.95206 11.5779 4.98145 11.585V11.5859H4.98438L4.98633 11.5869V11.5859C5.16252 11.629 5.34915 11.5318 5.4502 11.376C5.52919 11.2575 5.52602 11.1193 5.48145 10.9932C5.43719 10.868 5.35006 10.7447 5.24121 10.6377C5.0252 10.4254 4.69973 10.2523 4.38672 10.2549H4.38184C4.29312 10.2601 4.13242 10.2895 4.02344 10.3311V10.333C3.76707 10.4241 3.59094 10.557 3.44336 10.7656L3.44141 10.7676C3.29482 10.9875 3.23815 11.1733 3.32617 11.3623H3.32715C3.40143 11.5277 3.55403 11.6074 3.70898 11.5996Z" fill="#0295FF" stroke="#0295FF" stroke-width="0.2"/>
<path d="M8.92188 11.1475H8.92285C8.98663 11.1459 9.06095 11.1692 9.12598 11.2139C9.19128 11.2589 9.23818 11.3183 9.25586 11.376V11.377C9.27239 11.4289 9.3088 11.469 9.34473 11.4971C9.38179 11.526 9.42662 11.5491 9.47168 11.5654C9.55759 11.5965 9.6696 11.6115 9.76172 11.5762L9.84961 11.5342C9.93156 11.4851 9.99299 11.4156 10.0234 11.3262C10.0627 11.2102 10.0436 11.079 9.98633 10.9463V10.9453C9.74539 10.4122 9.12486 10.1379 8.58203 10.3291C8.30464 10.4275 8.07706 10.6124 7.94824 10.8154C7.8219 11.0146 7.77698 11.2598 7.92773 11.4463C8.00767 11.5483 8.13021 11.5974 8.24609 11.5996C8.36156 11.6018 8.48552 11.5575 8.56055 11.4521L8.56152 11.4512C8.66861 11.2989 8.72703 11.2263 8.77539 11.1885C8.81353 11.1586 8.84617 11.1496 8.92188 11.1475Z" fill="#0295FF" stroke="#0295FF" stroke-width="0.2"/>
<path d="M6.65723 15.584C6.92263 15.5816 7.14598 15.5495 7.35059 15.4727C7.55554 15.3957 7.73614 15.2765 7.91895 15.1084C8.02594 15.0107 8.10013 14.9367 8.14551 14.8672C8.19558 14.7903 8.20898 14.721 8.20898 14.6406C8.20898 14.5241 8.16056 14.4145 8.08887 14.334C8.01762 14.254 7.9149 14.1934 7.7998 14.1934C7.76438 14.1934 7.72843 14.2065 7.70215 14.2178C7.67233 14.2305 7.63883 14.2487 7.60547 14.2686C7.53875 14.3083 7.46341 14.3614 7.39453 14.418L7.39258 14.4189C7.15338 14.623 6.89068 14.7182 6.63574 14.7129C6.41265 14.7082 6.18891 14.6266 5.98535 14.4639L5.89941 14.3896C5.79021 14.2877 5.68186 14.2157 5.56641 14.2041C5.44318 14.1917 5.34038 14.2496 5.25 14.3398V14.3408C5.21165 14.3769 5.1774 14.4186 5.15234 14.459C5.13947 14.4797 5.12769 14.5018 5.11914 14.5234C5.1112 14.5436 5.10352 14.5702 5.10352 14.5986C5.1036 14.759 5.20533 14.9195 5.34863 15.0586C5.49551 15.2011 5.70159 15.3369 5.94336 15.4482L6.10645 15.5176C6.15757 15.5359 6.20765 15.5494 6.26172 15.5596C6.36833 15.5796 6.4871 15.584 6.65625 15.584H6.65723Z" fill="#0295FF" stroke="#0295FF" stroke-width="0.2"/>
<path d="M13.835 17.4189C13.9957 17.5325 14.2276 17.487 14.3643 17.3408L14.4307 17.2529C14.483 17.1617 14.4952 17.0593 14.4668 16.9492C14.44 16.8459 14.3783 16.7395 14.2891 16.6299L14.1904 16.5186C13.8573 16.1752 13.423 16.0794 12.9541 16.2256H12.9531C12.8228 16.2681 12.6758 16.38 12.5557 16.502C12.4351 16.6243 12.3238 16.7747 12.2793 16.9082C12.2544 16.9829 12.2348 17.0498 12.2422 17.1162C12.2501 17.1861 12.2868 17.2412 12.3262 17.2969L12.3281 17.2998C12.4743 17.4914 12.7568 17.5449 12.9355 17.3965L13.0049 17.3193L13.0059 17.3184C13.1781 17.0623 13.2696 17.0156 13.3594 17.0156C13.3881 17.0156 13.4075 17.0188 13.4248 17.0244C13.442 17.03 13.4624 17.0401 13.4902 17.0615C13.5501 17.1078 13.6309 17.1947 13.7705 17.3604L13.835 17.4189Z" fill="#0295FF" stroke="#0295FF" stroke-width="0.2"/>
<path d="M17.208 17.4902C17.2428 17.4902 17.2813 17.4895 17.3213 17.4785C17.3634 17.4669 17.4004 17.446 17.4385 17.416C17.4734 17.3884 17.5138 17.3501 17.5635 17.2969L17.7471 17.0908L17.748 17.0898C17.7834 17.0488 17.8434 17.0215 17.9062 17.0215C17.9351 17.0215 17.9539 17.0248 17.9707 17.0303C17.9875 17.0358 18.0078 17.0462 18.0361 17.0684C18.0965 17.1155 18.1778 17.203 18.3223 17.3711L18.375 17.4209C18.5051 17.5192 18.6796 17.4895 18.7998 17.4209C18.9382 17.3417 19.0682 17.1767 19.0205 16.9824V16.9814C18.9925 16.8724 18.9268 16.7544 18.8447 16.6475C18.7827 16.5666 18.7084 16.4883 18.6279 16.4209L18.5449 16.3574C18.4627 16.3001 18.3888 16.2589 18.3018 16.2314C18.2587 16.2179 18.2133 16.2076 18.1641 16.2002L18.001 16.1846C17.9091 16.1796 17.8121 16.1824 17.7266 16.1904C17.6849 16.1944 17.644 16.199 17.6064 16.2061L17.5059 16.2324C17.3289 16.2985 17.1498 16.4403 17.0156 16.5918C16.948 16.6681 16.889 16.7496 16.8467 16.8301C16.8052 16.9091 16.7755 16.9949 16.7754 17.0762C16.7754 17.185 16.8467 17.2887 16.9199 17.3574C16.9942 17.427 17.1014 17.4902 17.208 17.4902Z" fill="#0295FF" stroke="#0295FF" stroke-width="0.2"/>
<path d="M14.3418 20.9697C15.1014 21.6697 16.2849 21.6534 16.9717 20.9219L17.0527 20.8301C17.0771 20.8011 17.0987 20.7736 17.1172 20.7471C17.1539 20.6944 17.1819 20.6406 17.1943 20.584C17.2213 20.4604 17.166 20.3599 17.0889 20.2627C17.0053 20.1561 16.8958 20.0942 16.7646 20.1025C16.6409 20.1105 16.5178 20.179 16.4004 20.2861L16.2988 20.373C16.203 20.4495 16.1223 20.4981 16.04 20.5303C15.9307 20.573 15.8101 20.5898 15.6328 20.5898C15.456 20.5898 15.3188 20.5667 15.2002 20.5186C15.0822 20.4706 14.9759 20.3946 14.8662 20.2783C14.7786 20.1855 14.6782 20.1233 14.5674 20.1074C14.455 20.0914 14.3464 20.1251 14.248 20.1953V20.1963C14.1985 20.2308 14.1595 20.2738 14.1348 20.333C14.111 20.3899 14.1035 20.4541 14.1035 20.5254C14.1035 20.6103 14.1124 20.683 14.1543 20.7578C14.1736 20.7922 14.1992 20.8251 14.2305 20.8594L14.3418 20.9697Z" fill="#0295FF" stroke="#0295FF" stroke-width="0.2"/>
</g>
<defs>
<clipPath id="clip0_5005_216">
<rect width="24" height="24" fill="white"/>
</clipPath>
</defs>
</svg>
