<svg width="258" height="98" viewBox="0 0 258 98" fill="none" xmlns="http://www.w3.org/2000/svg">
<path opacity="0.0344828" d="M180.94 -128.001C213.424 -130.504 281.288 -117.963 292.868 -47.7763C307.343 39.9574 216.692 42.6119 266.297 118.744C305.98 179.65 383.224 185.704 416.885 181.118" stroke="white" stroke-opacity="0.5"/>
<path opacity="0.0689655" d="M180.775 -126.885C213.298 -128.821 280.933 -115.097 291.286 -44.7191C304.228 43.2538 213.544 44.3259 261.812 121.312C300.427 182.901 377.553 190.303 411.289 186.305" stroke="white" stroke-opacity="0.5"/>
<path opacity="0.103448" d="M180.582 -125.731C213.133 -127.099 280.518 -112.197 289.642 -41.6492C301.046 46.5362 210.357 46.0254 257.275 123.842C294.809 186.096 371.794 194.842 405.594 191.434" stroke="white" stroke-opacity="0.5"/>
<path opacity="0.137931" d="M180.358 -124.538C212.929 -125.337 280.043 -109.262 287.934 -38.565C297.798 49.806 207.131 47.7126 252.684 126.337C289.126 189.236 365.946 199.324 399.801 196.506" stroke="white" stroke-opacity="0.5"/>
<path opacity="0.172414" d="M180.103 -123.306C212.683 -123.537 279.507 -106.293 286.162 -35.4692C294.482 53.0605 203.866 49.385 248.04 128.792C283.378 192.318 360.011 203.745 393.91 201.518" stroke="white" stroke-opacity="0.5"/>
<path opacity="0.206897" d="M179.82 -122.039C212.398 -121.701 278.911 -103.293 284.33 -32.364C291.103 56.2974 200.565 51.041 243.346 131.207C277.571 195.34 353.992 208.103 387.925 206.468" stroke="white" stroke-opacity="0.5"/>
<path opacity="0.241379" d="M179.502 -120.733C212.07 -119.827 278.251 -100.261 282.431 -29.2483C287.656 59.5178 197.224 52.6822 238.599 133.582C271.699 198.303 347.886 212.398 381.842 211.355" stroke="white" stroke-opacity="0.5"/>
<path opacity="0.275862" d="M179.153 -119.392C211.701 -117.917 277.53 -97.1993 280.47 -26.1243C284.145 62.7194 193.846 54.3065 233.803 135.917C265.768 201.205 341.698 216.627 375.667 216.178" stroke="white" stroke-opacity="0.5"/>
<path opacity="0.310345" d="M178.771 -118.014C211.287 -115.972 276.745 -94.1081 278.444 -22.9926C280.568 65.9018 190.43 55.9142 228.956 138.209C259.777 204.045 335.426 220.791 369.398 220.934" stroke="white" stroke-opacity="0.5"/>
<path opacity="0.344828" d="M178.357 -116.601C210.833 -113.992 275.899 -90.9892 276.357 -19.8549C276.929 69.063 186.978 57.5039 224.063 140.459C253.73 206.823 329.075 224.886 363.039 225.622" stroke="white" stroke-opacity="0.5"/>
<path opacity="0.37931" d="M177.908 -115.155C210.333 -111.979 274.988 -87.8445 274.204 -16.713C273.225 72.2013 183.489 59.0741 219.12 142.664C247.625 209.535 322.643 228.91 356.59 230.239" stroke="white" stroke-opacity="0.5"/>
<path opacity="0.413793" d="M177.423 -113.674C209.788 -109.932 274.012 -84.6726 271.987 -13.5657C269.455 75.318 179.963 60.6267 214.13 144.825C241.463 212.184 316.132 232.866 350.049 234.787" stroke="white" stroke-opacity="0.5"/>
<path opacity="0.448276" d="M176.904 -112.16C209.199 -107.854 272.972 -81.4775 269.707 -10.4168C265.625 78.4092 176.402 62.1583 209.094 146.94C235.248 214.766 309.544 236.747 343.423 239.26" stroke="white" stroke-opacity="0.5"/>
<path opacity="0.482759" d="M176.347 -110.612C208.562 -105.743 271.865 -78.2578 267.36 -7.26482C261.728 81.4764 172.803 63.6708 204.01 149.01C228.976 217.282 302.878 240.557 336.708 243.661" stroke="white" stroke-opacity="0.5"/>
<path opacity="0.517241" d="M175.756 -109.033C207.88 -103.603 270.694 -75.0168 264.951 -4.11323C257.771 84.5162 169.17 65.1613 198.883 151.033C222.654 219.73 296.138 244.291 329.909 247.984" stroke="white" stroke-opacity="0.5"/>
<path opacity="0.551724" d="M175.127 -107.422C207.152 -101.432 269.457 -71.7541 262.477 -0.961651C253.752 87.529 165.502 66.6307 193.712 153.007C216.28 222.109 289.325 247.949 323.026 252.231" stroke="white" stroke-opacity="0.5"/>
<path opacity="0.586207" d="M174.46 -105.781C206.376 -99.2327 268.154 -68.4718 259.939 2.18805C249.671 90.5129 161.799 68.0777 188.498 154.934C209.856 224.418 282.438 251.529 316.06 256.399" stroke="white" stroke-opacity="0.5"/>
<path opacity="0.62069" d="M173.756 -104.109C205.553 -97.0046 266.785 -65.1702 257.338 5.33553C245.53 93.4677 158.063 69.5024 183.242 156.811C203.385 226.658 275.482 255.031 309.014 260.487" stroke="white" stroke-opacity="0.5"/>
<path opacity="0.655172" d="M173.013 -102.408C204.681 -94.7501 265.348 -61.852 254.672 8.47817C241.328 96.3909 154.293 70.9026 177.944 158.637C196.865 228.825 268.456 258.453 301.887 264.493" stroke="white" stroke-opacity="0.5"/>
<path opacity="0.689655" d="M172.231 -100.678C203.761 -92.4687 263.844 -58.5168 251.943 11.6163C237.066 99.2828 150.489 72.2794 172.605 160.414C190.298 230.921 261.362 261.793 294.682 268.416" stroke="white" stroke-opacity="0.5"/>
<path opacity="0.724138" d="M171.408 -98.9197C202.789 -90.1614 262.271 -55.1661 249.147 14.7487C232.743 102.142 146.65 73.6319 167.225 162.139C183.684 232.944 254.199 265.052 287.398 272.255" stroke="white" stroke-opacity="0.5"/>
<path opacity="0.758621" d="M170.547 -97.1345C201.771 -87.8298 260.633 -51.8017 246.291 17.8733C228.363 104.967 142.782 74.9587 161.808 163.811C177.03 234.893 246.973 268.227 280.042 276.008" stroke="white" stroke-opacity="0.5"/>
<path opacity="0.793103" d="M169.644 -95.322C200.701 -85.4739 258.925 -48.424 243.369 20.9901C223.925 107.758 138.88 76.2604 156.353 165.431C170.332 236.768 239.682 271.317 272.61 279.675" stroke="white" stroke-opacity="0.5"/>
<path opacity="0.827586" d="M168.701 -93.4841C199.581 -83.0954 257.149 -45.035 240.384 24.0971C219.429 110.512 134.946 77.5353 150.861 166.998C163.592 238.567 232.329 274.322 265.106 283.253" stroke="white" stroke-opacity="0.5"/>
<path opacity="0.862069" d="M167.716 -91.6196C198.41 -80.6936 255.305 -41.6343 237.336 27.1946C214.876 113.231 130.982 78.7846 145.332 168.511C156.813 240.292 224.915 277.24 257.531 286.742" stroke="white" stroke-opacity="0.5"/>
<path opacity="0.896552" d="M166.689 -89.7318C197.187 -78.2718 253.393 -38.2255 234.225 30.2794C210.266 115.911 126.986 80.0054 139.769 169.969C149.995 241.939 217.442 280.07 249.888 290.14" stroke="white" stroke-opacity="0.5"/>
<path opacity="0.931035" d="M165.619 -87.8197C195.912 -75.8291 251.41 -34.808 231.05 33.3519C205.601 118.552 122.96 81.1987 134.17 171.371C143.139 243.509 209.91 282.812 242.175 293.446" stroke="white" stroke-opacity="0.5"/>
<path opacity="0.965517" d="M164.507 -85.885C194.587 -73.3676 249.36 -31.3841 227.814 36.4101C200.881 121.153 118.905 82.3632 128.54 172.718C136.248 245.001 202.323 285.463 234.398 296.659" stroke="white" stroke-opacity="0.5"/>
<path d="M163.351 -83.9272C193.208 -70.8867 247.24 -27.9537 224.514 39.4541C196.106 123.714 114.82 83.4995 122.876 174.008C129.321 246.415 194.681 288.024 226.555 299.778" stroke="white" stroke-opacity="0.5"/>
</svg>
