<svg width="494" height="98" viewBox="0 0 494 98" fill="none" xmlns="http://www.w3.org/2000/svg">
<path opacity="0.0344828" d="M-58.59 307.301C-9.86368 311.056 91.9316 292.244 109.302 186.964C131.014 55.3639 -4.96285 51.3821 69.4444 -62.816C128.97 -154.175 244.835 -163.256 295.326 -156.377" stroke="white" stroke-opacity="0.5"/>
<path opacity="0.0689655" d="M-58.8375 305.627C-10.053 308.531 91.3984 287.946 106.928 182.378C126.341 50.4193 -9.68491 48.8112 62.718 -66.6681C120.64 -159.052 236.329 -170.154 286.932 -164.157" stroke="white" stroke-opacity="0.5"/>
<path opacity="0.103448" d="M-59.1282 303.897C-10.3005 305.948 90.7762 283.596 104.461 177.773C121.568 45.4956 -14.4651 46.2618 55.9114 -70.4636C112.213 -163.844 227.689 -176.963 278.39 -171.85" stroke="white" stroke-opacity="0.5"/>
<path opacity="0.137931" d="M-59.4634 302.106C-10.6073 303.305 90.0639 279.192 101.9 173.147C116.696 40.591 -19.3035 43.7311 49.0251 -74.2047C103.688 -168.553 218.918 -183.686 269.701 -179.459" stroke="white" stroke-opacity="0.5"/>
<path opacity="0.172414" d="M-59.8455 300.259C-10.976 300.605 89.2591 274.739 99.2428 168.504C111.723 35.7093 -24.201 41.2225 42.0589 -77.8878C95.0669 -173.176 210.016 -190.318 260.864 -186.977" stroke="white" stroke-opacity="0.5"/>
<path opacity="0.206897" d="M-60.2712 298.358C-11.403 297.851 88.3653 270.239 96.4935 163.846C106.654 30.8541 -29.1529 38.7386 35.0182 -81.51C86.355 -177.709 200.987 -196.854 251.886 -194.401" stroke="white" stroke-opacity="0.5"/>
<path opacity="0.241379" d="M-60.7473 296.4C-11.8954 295.04 87.3759 265.691 93.646 159.172C101.484 26.0233 -34.1647 36.2768 27.898 -85.0734C77.5481 -182.154 191.829 -203.296 242.763 -201.733" stroke="white" stroke-opacity="0.5"/>
<path opacity="0.275862" d="M-61.2703 294.387C-12.4496 292.176 86.2944 261.099 90.7045 154.486C96.2172 21.2209 -39.2315 33.8403 20.7038 -88.5746C68.6521 -186.507 182.546 -209.64 233.5 -208.966" stroke="white" stroke-opacity="0.5"/>
<path opacity="0.310345" d="M-61.8441 292.321C-13.0695 289.257 85.1171 256.462 87.6659 149.789C90.8519 16.4475 -44.3559 31.4287 13.4339 -92.0135C59.6657 -190.767 173.139 -215.885 224.096 -216.1" stroke="white" stroke-opacity="0.5"/>
<path opacity="0.344828" d="M-62.4651 290.202C-13.7513 286.288 83.8479 251.784 84.5346 145.082C85.393 11.7057 -49.5327 29.0444 6.09392 -95.3876C50.5952 -194.933 163.613 -222.028 214.559 -223.132" stroke="white" stroke-opacity="0.5"/>
<path opacity="0.37931" d="M-63.1391 288.032C-14.5011 283.269 82.4811 247.066 81.3055 140.369C79.836 6.99809 -54.7666 26.6889 -1.32009 -98.695C41.4371 -199.002 153.964 -228.065 204.883 -230.058" stroke="white" stroke-opacity="0.5"/>
<path opacity="0.413793" d="M-63.8666 285.81C-15.3191 280.198 81.0165 242.309 77.979 135.649C74.1821 2.32323 -60.0564 24.3602 -8.80622 -101.937C32.1939 -202.975 144.197 -233.998 195.073 -236.879" stroke="white" stroke-opacity="0.5"/>
<path opacity="0.448276" d="M-64.6438 283.539C-16.2017 277.081 79.458 237.516 74.5594 130.925C68.4363 -2.31357 -65.3971 22.0628 -16.359 -105.11C22.8715 -206.848 134.316 -239.821 185.134 -243.589" stroke="white" stroke-opacity="0.5"/>
<path opacity="0.482759" d="M-65.4797 281.218C-17.1577 273.915 77.7969 232.686 71.0389 126.197C62.5913 -6.91451 -70.7963 19.7939 -23.9851 -108.215C13.4639 -210.623 124.316 -245.535 175.061 -250.19" stroke="white" stroke-opacity="0.5"/>
<path opacity="0.517241" d="M-66.367 278.849C-18.1797 270.704 76.0409 227.825 67.4254 121.47C56.656 -11.474 -76.2452 17.5583 -31.6752 -111.248C3.98078 -214.294 114.207 -251.135 164.862 -256.676" stroke="white" stroke-opacity="0.5"/>
<path opacity="0.551724" d="M-67.3102 276.433C-19.2724 267.448 74.1855 222.931 63.7151 116.742C50.6272 -15.9933 -81.7471 15.354 -39.4319 -114.211C-5.5797 -217.863 103.986 -256.623 154.538 -263.046" stroke="white" stroke-opacity="0.5"/>
<path opacity="0.586207" d="M-68.311 273.971C-20.4373 264.149 72.2294 218.008 59.9074 112.018C44.5049 -20.4692 -87.3021 13.1836 -47.2546 -117.1C-15.2165 -221.327 93.6563 -261.993 144.088 -269.298" stroke="white" stroke-opacity="0.5"/>
<path opacity="0.62069" d="M-69.3659 271.462C-21.671 260.807 70.1764 213.055 56.0065 107.297C38.2941 -24.9015 -92.9055 11.0466 -55.1378 -119.916C-24.9237 -224.687 83.223 -267.247 133.519 -275.43" stroke="white" stroke-opacity="0.5"/>
<path opacity="0.655172" d="M-70.4806 268.912C-22.9789 257.425 68.0211 208.078 52.0076 102.583C31.9907 -29.2861 -98.5615 8.94615 -63.0852 -122.656C-34.7041 -227.937 72.6832 -272.378 122.829 -281.439" stroke="white" stroke-opacity="0.5"/>
<path opacity="0.689655" d="M-71.6534 266.317C-24.3594 254.003 65.7655 203.075 47.9133 97.8754C25.5981 -33.624 -104.267 6.88095 -71.0929 -125.32C-44.5536 -231.081 62.0418 -277.389 112.022 -287.323" stroke="white" stroke-opacity="0.5"/>
<path opacity="0.724138" d="M-72.8888 263.679C-25.8169 250.542 63.4054 198.049 43.72 93.1771C19.1131 -37.9128 -110.025 4.85237 -79.1634 -127.908C-54.4739 -234.116 51.297 -282.277 101.096 -293.082" stroke="white" stroke-opacity="0.5"/>
<path opacity="0.758621" d="M-74.1803 261.001C-27.3449 247.044 60.9478 193.002 39.435 88.49C12.5441 -42.1504 -115.828 2.862 -87.2881 -130.416C-64.4559 -237.039 40.4584 -287.039 90.0615 -298.711" stroke="white" stroke-opacity="0.5"/>
<path opacity="0.793103" d="M-75.5335 258.283C-28.9488 243.511 58.3873 187.936 35.0538 83.8149C5.88702 -46.3364 -121.68 0.909644 -95.4704 -132.846C-74.5026 -239.851 29.5231 -291.675 78.915 -304.211" stroke="white" stroke-opacity="0.5"/>
<path opacity="0.827586" d="M-76.95 255.526C-30.6302 239.943 55.7227 182.852 30.5756 79.1544C-0.858218 -50.468 -127.581 -1.00285 -103.71 -135.196C-84.6129 -242.551 18.4925 -296.182 67.6581 -309.578" stroke="white" stroke-opacity="0.5"/>
<path opacity="0.862069" d="M-78.4276 252.729C-32.3868 236.34 52.9565 177.751 26.0035 74.508C-7.68778 -54.546 -133.528 -2.87679 -112.003 -137.466C-94.782 -245.138 7.37172 -300.56 56.296 -314.812" stroke="white" stroke-opacity="0.5"/>
<path opacity="0.896552" d="M-79.9674 249.898C-34.2196 232.708 50.0882 172.638 21.3374 69.881C-14.601 -58.5655 -139.521 -4.70782 -120.347 -139.652C-105.008 -247.608 -3.83732 -304.805 44.8308 -319.909" stroke="white" stroke-opacity="0.5"/>
<path opacity="0.931035" d="M-81.5725 247.029C-36.1317 229.043 47.1149 167.512 16.5751 65.2721C-21.5995 -62.5275 -145.56 -6.49797 -128.745 -141.757C-115.292 -249.963 -15.135 -308.917 33.2621 -324.868" stroke="white" stroke-opacity="0.5"/>
<path opacity="0.965517" d="M-83.2407 244.127C-38.1207 225.351 44.0393 162.376 11.7199 60.685C-28.6794 -66.429 -151.643 -8.24454 -137.191 -143.776C-125.629 -252.201 -26.5159 -312.894 21.5954 -329.687" stroke="white" stroke-opacity="0.5"/>
<path d="M-84.9747 241.191C-40.1893 221.63 40.8592 157.231 6.76996 56.119C-35.8416 -70.2706 -157.771 -9.94898 -145.687 -145.712C-136.019 -254.322 -37.9798 -316.736 9.83108 -334.366" stroke="white" stroke-opacity="0.5"/>
<g clip-path="url(#clip0_4369_27086)">
<path d="M108.239 60.8889C108.316 61.0808 108.604 60.9792 108.549 60.776L105.437 48.3598C105.415 48.2469 105.282 48.2017 105.193 48.2582L101.584 50.4818C101.495 50.5383 101.473 50.6624 101.55 50.7414C102.325 51.5203 105.88 55.3467 108.239 60.8889Z" fill="white"/>
<path d="M101.605 52.096C101.55 52.0396 101.45 52.0283 101.384 52.0847L100.055 53.2135C99.9773 53.2812 99.9773 53.4053 100.066 53.4731C100.919 54.1277 104.949 57.4124 108.393 63.8576C108.493 64.0382 108.758 63.9027 108.681 63.7221C107.419 60.5842 105.049 55.55 101.605 52.096Z" fill="white"/>
<path d="M120.707 39.5894C119.799 38.9008 118.603 38.7202 117.529 39.0588C117.163 39.1717 117.318 39.7587 117.684 39.6458C118.603 39.3523 119.588 39.4991 120.364 40.086C121.039 40.5939 121.471 41.3841 121.548 42.2306C121.582 42.6144 122.18 42.6144 122.146 42.2306C122.047 41.1809 121.537 40.2327 120.707 39.5894Z" fill="white"/>
<path d="M123.508 42.0163C123.353 40.5602 122.622 39.2509 121.438 38.3931C120.153 37.4562 118.47 37.2417 116.975 37.761C116.61 37.8851 116.765 38.4721 117.13 38.3479C118.459 37.8851 119.91 38.0657 121.061 38.8784C122.08 39.6008 122.766 40.7634 122.899 42.0276C122.966 42.4001 123.553 42.4001 123.508 42.0163Z" fill="white"/>
<path d="M116.688 36.9368C118.437 36.3273 120.375 36.5756 121.903 37.6479C123.254 38.5848 124.162 40.1199 124.362 41.7678C124.406 42.1516 125.004 42.1516 124.959 41.7678C124.605 38.8331 122.357 36.4401 119.456 36.0564C118.471 35.9209 117.474 36.0338 116.533 36.3498C116.167 36.474 116.322 37.0609 116.688 36.9368Z" fill="white"/>
<path d="M125.856 62.9771L124.051 55.3241L123.265 55.4822L125.026 63.3383C125.192 63.9816 124.804 64.6024 124.162 64.7266L113.587 66.6229C112.945 66.7358 112.325 66.3859 112.203 65.8441C112.092 65.3023 107.641 44.4092 107.641 44.4092C107.53 43.7545 107.973 43.145 108.626 43.0547L110.298 42.795C110.431 43.1562 110.808 43.7996 111.915 43.5739L115.913 42.8853C115.913 42.8853 117.053 42.795 116.942 41.8356L118.282 41.6437C118.936 41.5534 119.6 42.0162 119.777 42.6596L121.77 50.7189L121.815 50.7414L119.091 51.1478C119.091 51.1478 116.322 51.3058 116.566 53.4391C116.566 53.4391 116.666 55.7644 119.622 55.437L124.771 54.534C124.771 54.534 125.878 54.4099 125.624 53.2585L125.114 51.4187C125.07 51.1704 124.649 49.5562 123.276 49.7256L123.531 50.4705L123.033 50.5608L122.645 50.6173L120.884 43.5626C120.076 39.8942 118.747 40.752 115.957 41.0342L109.302 42.0501C104.95 42.2081 106.334 46.2603 106.334 46.2603L110.564 65.8102C111.284 68.9368 114.241 67.7855 114.241 67.7855L119.29 66.8487L122.988 66.1488C126.997 65.7199 125.856 62.9771 125.856 62.9771ZM119.068 54.1277C118.67 54.2518 118.205 54.0035 118.028 53.5972C117.85 53.1795 118.039 52.7506 118.437 52.6377C118.836 52.5136 119.301 52.7619 119.478 53.1682C119.655 53.5859 119.467 54.0148 119.068 54.1277ZM115.016 42.0275C115.137 42.0275 115.237 42.1291 115.237 42.242C115.237 42.3548 115.137 42.4564 115.016 42.4564C114.894 42.4564 114.794 42.3548 114.794 42.242C114.794 42.1178 114.894 42.0275 115.016 42.0275ZM112.159 42.4903L114.396 42.1404C114.407 42.1404 114.418 42.1404 114.429 42.1404C114.539 42.1404 114.606 42.2307 114.617 42.321C114.628 42.4113 114.562 42.479 114.484 42.4903L112.247 42.8402C112.236 42.8402 112.225 42.8402 112.214 42.8402C112.103 42.8402 112.037 42.7499 112.026 42.6596C112.015 42.5693 112.07 42.5016 112.159 42.4903Z" fill="white"/>
</g>
<path d="M135.342 59.5C135.19 59.5 135.065 59.4515 134.968 59.3544C134.871 59.2573 134.822 59.1395 134.822 59.0008L134.822 45.46C134.822 45.3075 134.871 45.1827 134.968 45.0856C135.065 44.9885 135.19 44.94 135.342 44.94L136.986 44.94C137.18 44.94 137.325 44.9955 137.422 45.1064C137.519 45.2035 137.582 45.2797 137.61 45.3352L141.624 52.8232L145.68 45.3352C145.708 45.2797 145.77 45.2035 145.867 45.1064C145.964 44.9955 146.11 44.94 146.304 44.94L147.926 44.94C148.079 44.94 148.204 44.9885 148.301 45.0856C148.398 45.1827 148.446 45.3075 148.446 45.46L148.446 59.0008C148.446 59.1395 148.398 59.2573 148.301 59.3544C148.204 59.4515 148.079 59.5 147.926 59.5L146.179 59.5C146.027 59.5 145.902 59.4515 145.805 59.3544C145.722 59.2573 145.68 59.1395 145.68 59.0008L145.68 49.9944L142.768 55.548C142.699 55.6728 142.609 55.7837 142.498 55.8808C142.387 55.964 142.241 56.0056 142.061 56.0056L141.208 56.0056C141.014 56.0056 140.861 55.964 140.75 55.8808C140.653 55.7837 140.57 55.6728 140.501 55.548L137.589 49.9944L137.589 59.0008C137.589 59.1395 137.54 59.2573 137.443 59.3544C137.346 59.4515 137.228 59.5 137.09 59.5L135.342 59.5ZM153.387 63.452C153.276 63.452 153.179 63.4104 153.096 63.3272C153.013 63.244 152.971 63.1469 152.971 63.036C152.971 62.9805 152.971 62.9251 152.971 62.8696C152.985 62.828 153.013 62.7725 153.055 62.7032L154.677 58.8552L150.683 49.4328C150.628 49.2941 150.6 49.1971 150.6 49.1416C150.614 49.0168 150.663 48.9128 150.746 48.8296C150.829 48.7325 150.933 48.684 151.058 48.684L152.743 48.684C152.909 48.684 153.034 48.7256 153.117 48.8088C153.2 48.892 153.263 48.9821 153.304 49.0792L156.071 55.8808L158.92 49.0792C158.962 48.9683 159.024 48.8781 159.107 48.8088C159.191 48.7256 159.315 48.684 159.482 48.684L161.146 48.684C161.257 48.684 161.354 48.7256 161.437 48.8088C161.534 48.892 161.583 48.9891 161.583 49.1C161.583 49.1832 161.555 49.2941 161.499 49.4328L155.613 63.0568C155.557 63.1677 155.488 63.2579 155.405 63.3272C155.322 63.4104 155.197 63.452 155.031 63.452L153.387 63.452ZM164.146 59.5C163.993 59.5 163.868 59.4515 163.771 59.3544C163.674 59.2573 163.626 59.1395 163.626 59.0008L163.626 45.46C163.626 45.3075 163.674 45.1827 163.771 45.0856C163.868 44.9885 163.993 44.94 164.146 44.94L165.789 44.94C165.983 44.94 166.128 44.9955 166.226 45.1064C166.323 45.2035 166.385 45.2797 166.413 45.3352L170.427 52.8232L174.483 45.3352C174.511 45.2797 174.573 45.2035 174.67 45.1064C174.767 44.9955 174.913 44.94 175.107 44.94L176.73 44.94C176.882 44.94 177.007 44.9885 177.104 45.0856C177.201 45.1827 177.25 45.3075 177.25 45.46L177.25 59.0008C177.25 59.1395 177.201 59.2573 177.104 59.3544C177.007 59.4515 176.882 59.5 176.73 59.5L174.982 59.5C174.83 59.5 174.705 59.4515 174.608 59.3544C174.525 59.2573 174.483 59.1395 174.483 59.0008L174.483 49.9944L171.571 55.548C171.502 55.6728 171.412 55.7837 171.301 55.8808C171.19 55.964 171.044 56.0056 170.864 56.0056L170.011 56.0056C169.817 56.0056 169.664 55.964 169.554 55.8808C169.456 55.7837 169.373 55.6728 169.304 55.548L166.392 49.9944L166.392 59.0008C166.392 59.1395 166.343 59.2573 166.246 59.3544C166.149 59.4515 166.031 59.5 165.893 59.5L164.146 59.5ZM184.25 59.708C183.404 59.708 182.669 59.5208 182.045 59.1464C181.435 58.7581 180.963 58.2173 180.63 57.524C180.298 56.8168 180.131 55.9848 180.131 55.028L180.131 49.1832C180.131 49.0445 180.18 48.9267 180.277 48.8296C180.374 48.7325 180.492 48.684 180.63 48.684L182.461 48.684C182.613 48.684 182.731 48.7325 182.814 48.8296C182.912 48.9267 182.96 49.0445 182.96 49.1832L182.96 54.9032C182.96 56.6227 183.716 57.4824 185.227 57.4824C185.948 57.4824 186.517 57.2536 186.933 56.796C187.363 56.3384 187.578 55.7075 187.578 54.9032L187.578 49.1832C187.578 49.0445 187.626 48.9267 187.723 48.8296C187.82 48.7325 187.938 48.684 188.077 48.684L189.907 48.684C190.046 48.684 190.164 48.7325 190.261 48.8296C190.358 48.9267 190.406 49.0445 190.406 49.1832L190.406 59.0008C190.406 59.1395 190.358 59.2573 190.261 59.3544C190.164 59.4515 190.046 59.5 189.907 59.5L188.222 59.5C188.07 59.5 187.945 59.4515 187.848 59.3544C187.765 59.2573 187.723 59.1395 187.723 59.0008L187.723 58.148C187.349 58.6333 186.884 59.0147 186.33 59.292C185.775 59.5693 185.082 59.708 184.25 59.708ZM193.653 59.5C193.515 59.5 193.397 59.4515 193.3 59.3544C193.203 59.2573 193.154 59.1395 193.154 59.0008L193.154 49.1832C193.154 49.0445 193.203 48.9267 193.3 48.8296C193.397 48.7325 193.515 48.684 193.653 48.684L195.359 48.684C195.498 48.684 195.615 48.7325 195.712 48.8296C195.81 48.9267 195.858 49.0445 195.858 49.1832L195.858 50.036C196.219 49.5923 196.676 49.2248 197.231 48.9336C197.799 48.6285 198.5 48.476 199.332 48.476C200.178 48.476 200.912 48.6701 201.536 49.0584C202.16 49.4328 202.639 49.9667 202.972 50.66C203.318 51.3533 203.492 52.1853 203.492 53.156L203.492 59.0008C203.492 59.1395 203.443 59.2573 203.346 59.3544C203.249 59.4515 203.131 59.5 202.992 59.5L201.162 59.5C201.023 59.5 200.906 59.4515 200.808 59.3544C200.711 59.2573 200.663 59.1395 200.663 59.0008L200.663 53.2808C200.663 52.4765 200.462 51.8456 200.06 51.388C199.671 50.9304 199.103 50.7016 198.354 50.7016C197.633 50.7016 197.058 50.9304 196.628 51.388C196.198 51.8456 195.983 52.4765 195.983 53.2808L195.983 59.0008C195.983 59.1395 195.934 59.2573 195.837 59.3544C195.74 59.4515 195.622 59.5 195.484 59.5L193.653 59.5ZM206.633 59.5C206.494 59.5 206.376 59.4515 206.279 59.3544C206.182 59.2573 206.134 59.1395 206.134 59.0008L206.134 49.1832C206.134 49.0445 206.182 48.9267 206.279 48.8296C206.376 48.7325 206.494 48.684 206.633 48.684L208.359 48.684C208.512 48.684 208.63 48.7325 208.713 48.8296C208.81 48.9267 208.859 49.0445 208.859 49.1832L208.859 59.0008C208.859 59.1395 208.81 59.2573 208.713 59.3544C208.63 59.4515 208.512 59.5 208.359 59.5L206.633 59.5ZM206.55 46.8952C206.397 46.8952 206.272 46.8536 206.175 46.7704C206.092 46.6733 206.051 46.5485 206.051 46.396L206.051 44.8984C206.051 44.7597 206.092 44.6419 206.175 44.5448C206.272 44.4477 206.397 44.3992 206.55 44.3992L208.443 44.3992C208.595 44.3992 208.72 44.4477 208.817 44.5448C208.914 44.6419 208.963 44.7597 208.963 44.8984L208.963 46.396C208.963 46.5485 208.914 46.6733 208.817 46.7704C208.72 46.8536 208.595 46.8952 208.443 46.8952L206.55 46.8952Z" fill="white"/>
<path d="M215.242 42.32C214.949 42.32 214.802 42.1733 214.802 41.88L214.802 37.44C214.802 37.1467 214.949 37 215.242 37L215.662 37C215.835 37 215.969 37.0533 216.062 37.16C216.155 37.2667 216.229 37.36 216.282 37.44L217.462 39.34L218.642 37.44C218.695 37.36 218.769 37.2667 218.862 37.16C218.955 37.0533 219.089 37 219.262 37L219.682 37C219.975 37 220.122 37.1467 220.122 37.44L220.122 41.88C220.122 42.1733 219.975 42.32 219.682 42.32L219.242 42.32C218.949 42.32 218.802 42.1733 218.802 41.88L218.802 39.48L218.102 40.64C218.035 40.7467 217.969 40.84 217.902 40.92C217.835 41 217.729 41.04 217.582 41.04L217.342 41.04C217.209 41.04 217.102 41 217.022 40.92C216.955 40.84 216.889 40.7467 216.822 40.64L216.122 39.48L216.122 41.88C216.122 42.1733 215.975 42.32 215.682 42.32L215.242 42.32ZM211.862 42.32C211.569 42.32 211.422 42.1733 211.422 41.88L211.422 38.26L210.382 38.26C210.089 38.26 209.942 38.1133 209.942 37.82L209.942 37.44C209.942 37.1467 210.089 37 210.382 37L213.762 37C214.055 37 214.202 37.1467 214.202 37.44L214.202 37.82C214.202 38.1133 214.055 38.26 213.762 38.26L212.722 38.26L212.722 41.88C212.722 42.1733 212.575 42.32 212.282 42.32L211.862 42.32Z" fill="white"/>
<defs>
<clipPath id="clip0_4369_27086">
<rect width="26" height="32" fill="white" transform="translate(100 36)"/>
</clipPath>
</defs>
</svg>
