<svg width="323" height="134" viewBox="0 0 323 134" fill="none" xmlns="http://www.w3.org/2000/svg">
<path opacity="0.0344828" d="M-45.0599 279.535C-12.5756 282.038 55.288 269.497 66.8681 199.31C81.3431 111.577 -9.30836 108.922 40.2966 32.7898C79.9805 -28.116 157.224 -34.1702 190.885 -29.5841" stroke="white" stroke-opacity="0.5"/>
<path opacity="0.0689655" d="M-45.2247 278.419C-12.7016 280.355 54.9328 266.631 65.2861 196.253C78.2278 108.28 -12.4562 107.208 35.8124 30.2217C74.4274 -31.3674 151.553 -38.7687 185.289 -34.7708" stroke="white" stroke-opacity="0.5"/>
<path opacity="0.103448" d="M-45.4184 277.266C-12.8666 278.633 54.518 263.732 63.6415 193.183C75.0459 104.998 -15.643 105.509 31.2747 27.6917C68.8089 -34.5619 145.794 -43.3082 179.594 -39.8996" stroke="white" stroke-opacity="0.5"/>
<path opacity="0.137931" d="M-45.6419 276.072C-13.0711 276.871 54.0431 260.796 61.934 190.099C71.7976 101.728 -18.8686 103.821 26.6839 25.1973C63.1259 -37.7019 139.946 -47.7904 173.801 -44.9722" stroke="white" stroke-opacity="0.5"/>
<path opacity="0.172414" d="M-45.8967 274.84C-13.3169 275.071 53.5066 257.827 60.1624 187.003C68.4822 98.4735 -22.1336 102.149 22.0398 22.7419C57.3784 -40.7837 134.011 -52.2114 167.91 -49.9845" stroke="white" stroke-opacity="0.5"/>
<path opacity="0.206897" d="M-46.1804 273.572C-13.6016 273.235 52.9107 254.827 58.3295 183.898C65.103 95.2363 -25.4349 100.493 17.3459 20.3268C51.5705 -43.8059 127.992 -56.5692 161.925 -54.9343" stroke="white" stroke-opacity="0.5"/>
<path opacity="0.241379" d="M-46.4978 272.267C-13.9299 271.361 52.2511 251.795 56.4312 180.782C61.6563 92.0161 -28.7761 98.8518 12.5991 17.9515C45.6992 -46.7687 121.886 -60.8639 155.842 -59.8214" stroke="white" stroke-opacity="0.5"/>
<path opacity="0.275862" d="M-46.8467 270.926C-14.2995 269.451 51.5299 248.733 54.4699 177.658C58.1451 88.8145 -32.1542 97.2274 7.80276 15.6173C39.7683 -49.6707 115.698 -65.0934 149.667 -64.6437" stroke="white" stroke-opacity="0.5"/>
<path opacity="0.310345" d="M-47.2293 269.548C-14.7128 267.506 50.745 245.642 52.4442 174.527C54.5682 85.6322 -35.5705 95.6197 2.95611 13.3247C33.7774 -52.5112 109.426 -69.2567 143.398 -69.3999" stroke="white" stroke-opacity="0.5"/>
<path opacity="0.344828" d="M-47.6432 268.135C-15.1673 265.526 49.899 242.523 50.3568 171.389C50.929 82.4707 -39.0216 94.0298 -1.93713 11.075C27.7305 -55.2889 103.075 -73.352 137.039 -74.0881" stroke="white" stroke-opacity="0.5"/>
<path opacity="0.37931" d="M-48.0924 266.689C-15.667 263.513 48.9879 239.378 48.2042 168.247C47.2245 79.3326 -42.5107 92.4598 -6.87964 8.87043C21.6252 -58.0011 96.6435 -77.3764 130.59 -78.7052" stroke="white" stroke-opacity="0.5"/>
<path opacity="0.413793" d="M-48.5774 265.208C-16.2123 261.466 48.0115 236.207 45.9865 165.1C43.4552 76.2162 -46.0372 90.9075 -11.8704 6.709C15.463 -60.6498 90.1318 -81.3315 124.049 -83.2524" stroke="white" stroke-opacity="0.5"/>
<path opacity="0.448276" d="M-49.0957 263.693C-16.8009 259.388 46.9723 233.011 43.7066 161.95C39.6245 73.1245 -49.5979 89.3754 -16.9058 4.59345C9.24795 -63.2321 83.5443 -85.2138 117.423 -87.7264" stroke="white" stroke-opacity="0.5"/>
<path opacity="0.482759" d="M-49.6528 262.146C-17.438 257.277 45.8651 229.792 41.3598 158.799C35.728 70.0575 -53.1972 87.8632 -21.9897 2.5235C2.97635 -65.7482 76.8778 -89.0232 110.708 -92.1267" stroke="white" stroke-opacity="0.5"/>
<path opacity="0.517241" d="M-50.2444 260.567C-18.1196 255.137 44.6943 226.551 38.9506 155.647C31.771 67.018 -56.8299 86.3729 -27.1166 0.501603C-3.34587 -68.1954 70.1381 -92.7566 103.909 -96.45" stroke="white" stroke-opacity="0.5"/>
<path opacity="0.551724" d="M-50.8733 258.956C-18.8481 252.966 43.4572 223.288 36.477 152.496C27.7517 64.005 -60.498 84.9032 -32.2878 -1.47356C-9.71963 -70.575 63.3245 -96.4149 97.0256 -100.697" stroke="white" stroke-opacity="0.5"/>
<path opacity="0.586207" d="M-51.54 257.315C-19.6242 250.767 42.1537 220.006 33.939 149.346C23.6706 61.021 -64.2008 83.4563 -37.5024 -3.3997C-16.1437 -72.8845 56.4383 -99.9952 90.0595 -104.865" stroke="white" stroke-opacity="0.5"/>
<path opacity="0.62069" d="M-52.2436 255.642C-20.4469 248.539 40.7847 216.704 31.3381 146.198C19.5299 58.0662 -67.9367 82.0316 -42.7582 -5.27712C-22.6154 -75.1241 49.4825 -103.497 83.0135 -108.953" stroke="white" stroke-opacity="0.5"/>
<path opacity="0.655172" d="M-52.9865 253.942C-21.3187 246.284 39.3481 213.386 28.6724 143.056C15.3278 55.1431 -71.7072 80.6313 -48.0562 -7.10353C-29.1355 -77.2914 42.4562 -106.919 75.8869 -112.959" stroke="white" stroke-opacity="0.5"/>
<path opacity="0.689655" d="M-53.7686 252.212C-22.2392 244.003 37.8442 210.051 25.9427 139.918C11.0658 52.2512 -75.511 79.2545 -53.3949 -8.87972C-35.702 -79.3871 35.3617 -110.259 68.6819 -116.882" stroke="white" stroke-opacity="0.5"/>
<path opacity="0.724138" d="M-54.5922 250.453C-23.2109 241.695 36.2708 206.7 23.1471 136.785C6.74254 49.3916 -79.3499 77.9018 -58.7753 -10.605C-42.3156 -81.4104 28.1985 -113.518 61.3981 -120.721" stroke="white" stroke-opacity="0.5"/>
<path opacity="0.758621" d="M-55.453 248.668C-24.2293 239.364 34.6325 203.336 20.2907 133.661C2.36338 46.5668 -83.2183 76.5752 -64.1915 -12.2772C-48.9701 -83.359 20.9729 -116.693 54.0417 -124.474" stroke="white" stroke-opacity="0.5"/>
<path opacity="0.793103" d="M-56.3556 246.856C-25.299 237.008 32.9251 199.958 17.3694 130.544C-2.07514 43.7764 -87.1201 75.2738 -69.6469 -13.8971C-55.6683 -85.2338 13.6823 -119.783 46.6103 -128.14" stroke="white" stroke-opacity="0.5"/>
<path opacity="0.827586" d="M-57.2994 245.018C-26.4195 234.629 31.1492 196.569 14.3844 127.437C-6.57148 41.0218 -91.0538 73.9986 -75.1395 -15.4637C-62.408 -87.0335 6.32904 -122.788 39.1061 -131.719" stroke="white" stroke-opacity="0.5"/>
<path opacity="0.862069" d="M-58.2843 243.154C-27.5904 232.228 29.3053 193.168 11.3366 124.339C-11.1243 38.3031 -95.0182 72.7493 -80.6677 -16.9771C-69.1872 -88.7582 -1.08465 -125.707 31.5316 -135.208" stroke="white" stroke-opacity="0.5"/>
<path opacity="0.896552" d="M-59.3113 241.266C-28.8127 229.806 27.3926 189.76 8.22538 121.255C-15.7336 35.6236 -99.0136 71.5288 -86.2312 -18.4344C-76.0052 -90.4049 -8.55781 -128.536 23.8876 -138.606" stroke="white" stroke-opacity="0.5"/>
<path opacity="0.931035" d="M-60.3816 239.354C-30.0877 227.363 25.4101 186.342 5.05027 118.182C-20.3996 32.9821 -103.04 70.3352 -91.8298 -19.8374C-82.8615 -91.9754 -16.0898 -131.278 16.1749 -141.912" stroke="white" stroke-opacity="0.5"/>
<path opacity="0.965517" d="M-61.4932 237.419C-31.4132 224.902 23.3602 182.918 1.81393 115.124C-25.119 30.3813 -107.095 69.171 -97.4601 -21.1835C-89.7522 -93.467 -23.6766 -133.929 8.39763 -145.125" stroke="white" stroke-opacity="0.5"/>
<path d="M-62.6492 235.461C-32.7922 222.421 21.2402 179.488 -1.48604 112.08C-29.8938 27.8202 -111.18 68.0347 -103.124 -22.4742C-96.6786 -94.8813 -31.3193 -136.49 0.554716 -148.244" stroke="white" stroke-opacity="0.5"/>
</svg>
