<svg width="233" height="134" viewBox="0 0 233 134" fill="none" xmlns="http://www.w3.org/2000/svg">
<path opacity="0.0344828" d="M180.94 -100.001C213.424 -102.504 281.288 -89.9629 292.868 -19.776C307.343 67.9576 216.692 70.6122 266.297 146.744C305.98 207.65 383.224 213.704 416.885 209.118" stroke="white" stroke-opacity="0.5"/>
<path opacity="0.0689655" d="M180.775 -98.885C213.298 -100.821 280.933 -87.0972 291.286 -16.7188C304.228 71.2541 213.544 72.3261 261.812 149.312C300.427 210.902 377.553 218.303 411.289 214.305" stroke="white" stroke-opacity="0.5"/>
<path opacity="0.103448" d="M180.582 -97.7315C213.133 -99.0992 280.518 -84.1975 289.642 -13.6492C301.046 74.5362 210.357 74.0254 257.275 151.842C294.809 214.096 371.794 222.842 405.594 219.434" stroke="white" stroke-opacity="0.5"/>
<path opacity="0.137931" d="M180.358 -96.5375C212.929 -97.3369 280.043 -81.2615 287.934 -10.5647C297.798 77.8063 207.131 75.7128 252.684 154.337C289.126 217.236 365.946 227.325 399.801 224.506" stroke="white" stroke-opacity="0.5"/>
<path opacity="0.172414" d="M180.103 -95.3061C212.683 -95.5369 279.507 -78.2927 286.162 -7.46894C294.482 81.0607 203.866 77.3853 248.04 156.792C283.378 220.318 360.011 231.746 393.91 229.519" stroke="white" stroke-opacity="0.5"/>
<path opacity="0.206897" d="M179.82 -94.0383C212.398 -93.7005 278.911 -75.2926 284.33 -4.36351C291.103 84.2979 200.565 79.0415 243.346 159.207C277.571 223.34 353.992 236.103 387.925 234.469" stroke="white" stroke-opacity="0.5"/>
<path opacity="0.241379" d="M179.502 -92.7331C212.07 -91.8268 278.251 -72.2609 282.431 -1.24801C287.656 87.5181 197.224 80.6824 238.599 161.583C271.699 226.303 347.886 240.398 381.842 239.356" stroke="white" stroke-opacity="0.5"/>
<path opacity="0.275862" d="M179.154 -91.3916C211.701 -89.917 277.53 -69.1991 280.47 1.87591C284.145 90.7197 193.846 82.3068 233.803 163.917C265.769 229.205 341.698 244.628 375.667 244.178" stroke="white" stroke-opacity="0.5"/>
<path opacity="0.310345" d="M178.771 -90.0139C211.287 -87.9715 276.745 -66.1078 278.444 5.00765C280.568 93.902 190.43 83.9145 228.956 166.209C259.778 232.045 335.426 248.791 369.398 248.934" stroke="white" stroke-opacity="0.5"/>
<path opacity="0.344828" d="M178.357 -88.601C210.833 -85.9914 275.899 -62.9887 276.357 8.14563C276.929 97.0635 186.978 85.5044 224.063 168.459C253.73 234.823 329.075 252.886 363.039 253.622" stroke="white" stroke-opacity="0.5"/>
<path opacity="0.37931" d="M177.908 -87.155C210.333 -83.979 274.988 -59.8442 274.204 11.2872C273.225 100.202 183.489 87.0743 219.12 170.664C247.625 237.535 322.643 256.911 356.59 258.239" stroke="white" stroke-opacity="0.5"/>
<path opacity="0.413793" d="M177.423 -85.6735C209.788 -81.9321 274.012 -56.6726 271.987 14.4343C269.455 103.318 179.963 88.6267 214.13 172.825C241.463 240.184 316.132 260.866 350.049 262.787" stroke="white" stroke-opacity="0.5"/>
<path opacity="0.448276" d="M176.904 -84.1592C209.199 -79.8535 272.972 -53.477 269.707 17.5837C265.625 106.41 176.402 90.1587 209.094 174.941C235.248 242.766 309.544 264.748 343.423 267.261" stroke="white" stroke-opacity="0.5"/>
<path opacity="0.482759" d="M176.347 -82.6117C208.562 -77.743 271.865 -50.2576 267.36 20.7354C261.728 109.477 172.803 91.671 204.01 177.011C228.976 245.282 302.878 268.557 336.708 271.661" stroke="white" stroke-opacity="0.5"/>
<path opacity="0.517241" d="M175.756 -81.0329C207.88 -75.6028 270.694 -47.0168 264.951 23.8868C257.771 112.516 169.17 93.1613 198.883 179.033C222.654 247.73 296.138 272.291 329.909 275.984" stroke="white" stroke-opacity="0.5"/>
<path opacity="0.551724" d="M175.126 -79.4218C207.152 -73.4319 269.457 -43.7539 262.477 27.0386C253.751 115.529 165.502 94.631 193.712 181.008C216.28 250.109 289.324 275.949 323.025 280.231" stroke="white" stroke-opacity="0.5"/>
<path opacity="0.586207" d="M174.46 -77.7804C206.376 -71.2324 268.153 -40.4716 259.939 30.1883C249.67 118.513 161.799 96.0779 188.497 182.934C209.856 252.419 282.438 279.529 316.059 284.399" stroke="white" stroke-opacity="0.5"/>
<path opacity="0.62069" d="M173.756 -76.1083C205.553 -69.0043 266.785 -37.17 257.338 33.3358C245.53 121.468 158.063 97.5026 183.242 184.811C203.385 254.658 275.482 283.032 309.014 288.487" stroke="white" stroke-opacity="0.5"/>
<path opacity="0.655172" d="M173.013 -74.4077C204.681 -66.7499 265.348 -33.8517 254.672 36.4784C241.328 124.391 154.293 98.9029 177.944 186.638C196.865 256.826 268.456 286.453 301.887 292.493" stroke="white" stroke-opacity="0.5"/>
<path opacity="0.689655" d="M172.231 -72.6777C203.761 -64.4684 263.844 -30.5165 251.943 39.6166C237.066 127.283 150.489 100.28 172.605 188.414C190.298 258.921 261.362 289.794 294.682 296.416" stroke="white" stroke-opacity="0.5"/>
<path opacity="0.724138" d="M171.408 -70.9192C202.789 -62.1609 262.271 -27.1656 249.147 42.7492C232.743 130.143 146.65 101.632 167.225 190.139C183.684 260.945 254.199 293.052 287.398 300.256" stroke="white" stroke-opacity="0.5"/>
<path opacity="0.758621" d="M170.547 -69.1342C201.771 -59.8296 260.633 -23.8015 246.291 45.8735C228.363 132.967 142.782 102.959 161.808 191.811C177.03 262.893 246.973 296.227 280.042 304.008" stroke="white" stroke-opacity="0.5"/>
<path opacity="0.793103" d="M169.644 -67.322C200.701 -57.4739 258.925 -20.424 243.369 48.9901C223.925 135.758 138.88 104.26 156.353 193.431C170.331 264.768 239.682 299.317 272.61 307.675" stroke="white" stroke-opacity="0.5"/>
<path opacity="0.827586" d="M168.7 -65.4839C199.58 -55.0952 257.149 -17.0348 240.384 52.0973C219.428 138.512 134.946 105.536 150.86 194.998C163.592 266.568 232.329 302.322 265.106 311.253" stroke="white" stroke-opacity="0.5"/>
<path opacity="0.862069" d="M167.715 -63.6194C198.409 -52.6934 255.305 -13.6341 237.336 55.1949C214.875 141.231 130.982 106.785 145.332 196.511C156.813 268.292 224.915 305.241 257.531 314.742" stroke="white" stroke-opacity="0.5"/>
<path opacity="0.896552" d="M166.689 -61.7318C197.187 -50.2718 253.393 -10.2255 234.225 58.2794C210.266 143.911 126.986 108.005 139.769 197.969C149.995 269.939 217.442 308.07 249.888 318.14" stroke="white" stroke-opacity="0.5"/>
<path opacity="0.931035" d="M165.619 -59.8195C195.913 -47.8289 251.41 -6.80777 231.051 61.3522C205.601 146.552 122.96 109.199 134.17 199.372C143.139 271.51 209.91 310.812 242.175 321.446" stroke="white" stroke-opacity="0.5"/>
<path opacity="0.965517" d="M164.507 -57.885C194.587 -45.3676 249.36 -3.3841 227.814 64.4101C200.881 149.153 118.905 110.363 128.54 200.718C136.248 273.001 202.323 313.463 234.398 324.659" stroke="white" stroke-opacity="0.5"/>
<path d="M163.351 -55.9272C193.208 -42.8867 247.24 0.0462799 224.514 67.4541C196.106 151.714 114.82 111.5 122.876 202.008C129.321 274.415 194.681 316.024 226.555 327.778" stroke="white" stroke-opacity="0.5"/>
</svg>
