<svg width="301" height="173" viewBox="0 0 301 173" fill="none" xmlns="http://www.w3.org/2000/svg">
<path opacity="0.0344828" d="M147.068 247.829C142.79 205.285 159.79 117.654 262.021 107.487C389.809 94.7774 354.569 -36.8748 387.485 -77.0611C420.4 -117.247 568.615 -105.865 580.362 -96.2436" stroke="white"/>
<path opacity="0.0689655" d="M145.485 248.707C141.95 206.094 160.477 118.773 262.87 110.391C390.861 99.9143 357.923 -32.3329 391.535 -71.9387C425.147 -111.544 573.141 -97.5772 584.718 -87.752" stroke="white"/>
<path opacity="0.103448" d="M143.905 249.583C141.114 206.915 161.163 119.93 263.686 113.337C391.84 105.096 361.215 -27.7064 395.513 -66.7194C429.812 -105.732 577.539 -89.1846 588.943 -79.1589" stroke="white"/>
<path opacity="0.137931" d="M142.321 250.46C140.275 207.75 161.839 121.129 264.461 116.326C392.74 110.322 364.437 -22.9944 399.411 -61.4029C434.385 -99.8115 581.801 -80.6879 593.029 -70.4647" stroke="white"/>
<path opacity="0.172414" d="M140.74 251.337C139.44 208.597 162.512 122.366 265.203 119.354C393.566 115.59 367.595 -18.1996 403.234 -55.9919C438.873 -93.7842 585.933 -72.0907 596.98 -61.6732" stroke="white"/>
<path opacity="0.206897" d="M139.16 252.221C138.606 209.466 163.179 123.65 265.907 122.431C394.317 120.908 370.684 -13.3148 406.978 -50.4794C443.271 -87.6439 589.929 -63.3872 600.793 -52.7785" stroke="white"/>
<path opacity="0.241379" d="M137.578 253.098C137.77 210.339 163.838 124.965 266.571 125.539C394.988 126.258 373.701 -8.35723 410.638 -44.8827C447.574 -81.4082 593.787 -54.5957 604.464 -43.7989" stroke="white"/>
<path opacity="0.275862" d="M135.995 253.975C136.933 211.226 164.487 126.32 267.195 128.687C395.579 131.647 376.645 -3.31921 414.213 -39.1945C451.782 -75.0698 597.504 -45.7096 607.991 -34.7281" stroke="white"/>
<path opacity="0.310345" d="M134.413 254.852C136.097 212.126 165.128 127.713 267.779 131.873C396.093 137.072 379.517 1.79649 417.706 -33.4177C455.894 -68.6319 601.082 -36.7329 611.376 -25.5701" stroke="white"/>
<path opacity="0.344828" d="M132.831 255.728C135.261 213.038 165.76 129.146 268.323 135.096C396.526 142.534 382.314 6.9896 421.111 -27.5527C459.909 -62.0951 604.518 -27.6671 614.615 -16.3263" stroke="white"/>
<path opacity="0.37931" d="M131.248 256.606C134.422 213.964 166.382 130.617 268.825 138.356C396.879 148.03 385.034 12.2587 424.428 -21.6013C463.823 -55.4613 607.809 -18.5147 617.707 -6.99952" stroke="white"/>
<path opacity="0.413793" d="M129.665 257.482C133.583 214.903 166.992 132.126 269.285 141.652C397.15 153.56 387.677 17.6019 427.656 -15.5654C467.635 -48.7327 610.955 -9.27885 620.65 2.40736" stroke="white"/>
<path opacity="0.448276" d="M128.084 258.359C132.745 215.854 167.593 133.673 269.704 144.983C397.342 159.12 390.243 23.0178 430.795 -9.4467C471.347 -41.9112 613.956 0.03789 623.446 11.8915" stroke="white"/>
<path opacity="0.482759" d="M126.502 259.236C131.904 216.819 168.181 135.258 270.079 148.349C397.451 164.711 392.728 28.506 433.841 -3.24589C474.953 -34.9977 616.809 9.43385 626.09 21.4513" stroke="white"/>
<path opacity="0.517241" d="M124.923 260.12C131.064 217.804 168.759 136.889 270.413 151.755C397.48 170.338 395.136 34.0712 436.796 3.04169C478.456 -27.9878 619.514 18.9127 628.585 31.0903" stroke="white"/>
<path opacity="0.551724" d="M123.339 260.997C130.218 218.795 169.319 138.55 270.698 155.188C397.422 175.986 397.456 39.6989 439.651 9.40119C481.846 -20.8965 622.065 28.4587 630.921 40.7927" stroke="white"/>
<path opacity="0.586207" d="M121.758 261.874C129.372 219.798 169.868 140.247 270.941 158.653C397.282 181.659 399.695 45.3931 442.413 15.8364C485.13 -13.7203 624.466 38.0746 633.106 50.5613" stroke="white"/>
<path opacity="0.62069" d="M120.175 262.751C128.522 220.814 170.401 141.983 271.137 162.149C397.057 187.357 401.848 51.1539 445.075 22.3472C488.302 -6.45942 626.713 47.7593 635.133 60.3949" stroke="white"/>
<path opacity="0.655172" d="M118.593 263.627C127.671 221.843 170.919 143.754 271.288 165.676C396.749 193.077 403.916 56.9786 447.639 28.9308C491.362 0.882948 628.805 57.509 637.004 70.2896" stroke="white"/>
<path opacity="0.689655" d="M117.01 264.505C126.816 222.885 171.42 145.563 271.391 169.233C396.355 198.82 405.896 62.8671 450.102 35.5866C494.308 8.30611 630.742 67.3222 638.716 80.244" stroke="white"/>
<path opacity="0.724138" d="M115.428 265.381C125.958 223.939 171.905 147.407 271.448 172.818C395.877 204.582 407.789 68.8161 452.464 42.3113C497.14 15.8065 632.523 77.1947 640.271 90.2537" stroke="white"/>
<path opacity="0.758621" d="M113.846 266.258C125.098 225.006 172.374 149.288 271.458 176.432C395.313 210.363 409.593 74.8255 454.724 49.1044C499.855 23.3833 634.146 87.1249 641.665 100.317" stroke="white"/>
<path opacity="0.793103" d="M112.263 267.135C124.233 226.086 172.823 151.204 271.418 180.074C394.663 216.16 411.306 80.893 456.879 55.9635C502.452 31.0339 635.61 97.1096 642.898 110.431" stroke="white"/>
<path opacity="0.827586" d="M110.681 268.012C123.366 227.178 173.255 153.156 271.332 183.742C393.927 221.974 412.928 87.0173 458.93 62.887C504.931 38.7566 636.916 107.146 643.97 120.593" stroke="white"/>
</svg>
