<svg width="961" height="483" viewBox="0 0 961 483" fill="none" xmlns="http://www.w3.org/2000/svg">
<path opacity="0.0416667" d="M616.649 595.766C617.41 527.146 625.145 203.818 300.775 203.433C125.45 203.225 8.68608 67.2359 -27.9503 -6.96592" stroke="white"/>
<path opacity="0.0833333" d="M618.572 596.508C616.938 527.904 613.384 204.503 289.198 215.439C113.973 221.349 -7.46594 89.518 -46.6696 16.64" stroke="white"/>
<path opacity="0.125" d="M620.499 597.251C616.471 528.745 601.633 205.665 278.026 227.908C103.114 239.93 -22.8514 112.418 -64.5746 40.9522" stroke="white"/>
<path opacity="0.166667" d="M622.428 597.994C616.012 529.671 589.907 207.305 267.274 240.828C92.8877 258.947 -37.4511 135.908 -81.643 65.9427" stroke="white"/>
<path opacity="0.208333" d="M624.358 598.734C615.562 530.677 578.223 209.419 256.956 254.181C83.3084 278.375 -51.2451 159.96 -97.8518 91.579" stroke="white"/>
<path opacity="0.25" d="M626.294 599.476C615.127 531.767 566.599 212.008 247.09 267.955C74.393 298.195 -64.2111 184.547 -113.176 117.835" stroke="white"/>
<path opacity="0.291667" d="M628.231 600.216C614.708 532.938 555.051 215.068 237.689 282.131C66.1519 318.38 -76.334 209.639 -127.597 144.676" stroke="white"/>
<path opacity="0.333333" d="M630.172 600.956C614.31 534.191 543.595 218.596 228.767 296.694C58.5994 338.907 -87.5947 235.205 -141.094 172.071" stroke="white"/>
<path opacity="0.375" d="M632.115 601.696C613.932 535.525 532.246 222.59 220.335 311.628C51.745 359.754 -97.9792 261.217 -153.649 199.988" stroke="white"/>
<path opacity="0.416667" d="M634.061 602.433C613.58 536.937 521.023 227.044 212.409 326.913C45.6014 380.894 -107.47 287.642 -165.243 228.394" stroke="white"/>
<path opacity="0.458333" d="M636.009 603.17C613.254 538.429 509.938 231.954 204.998 342.533C40.1755 402.302 -116.058 314.45 -175.863 257.254" stroke="white"/>
<path opacity="0.5" d="M637.961 603.906C612.961 539.998 499.011 237.316 198.116 358.47C35.4801 423.955 -123.724 341.608 -185.489 286.534" stroke="white"/>
<path opacity="0.541667" d="M639.914 604.641C612.699 541.644 488.256 243.124 191.772 374.705C31.5204 445.826 -130.46 369.086 -194.11 316.2" stroke="white"/>
<path opacity="0.583333" d="M641.871 605.374C612.474 543.366 477.688 249.37 185.978 391.218C28.3055 467.888 -136.255 396.848 -201.711 346.216" stroke="white"/>
<path opacity="0.625" d="M643.831 606.105C612.287 545.161 467.324 256.048 180.741 407.99C25.8406 490.117 -141.099 424.863 -208.282 376.546" stroke="white"/>
<path opacity="0.666667" d="M645.791 606.836C612.14 547.029 457.174 263.151 176.069 425.003C24.1292 512.485 -144.986 453.097 -213.815 407.154" stroke="white"/>
<path opacity="0.708333" d="M647.754 607.564C612.036 548.968 447.258 270.672 171.973 442.235C23.1786 534.967 -147.906 481.517 -218.296 438.004" stroke="white"/>
<path opacity="0.75" d="M649.72 608.292C611.979 550.978 437.589 278.602 168.458 459.668C22.9912 557.536 -149.854 510.089 -221.72 469.06" stroke="white"/>
<path opacity="0.791667" d="M651.689 609.017C611.971 553.056 428.181 286.931 165.534 477.28C23.5707 580.165 -150.825 538.779 -224.08 500.283" stroke="white"/>
<path opacity="0.833333" d="M653.659 609.74C612.012 555.199 419.047 295.651 163.203 495.05C24.9167 602.826 -150.818 567.553 -225.371 531.636" stroke="white"/>
<path opacity="0.875" d="M655.633 610.463C612.108 557.408 410.202 304.753 161.472 512.959C27.032 625.496 -149.826 596.376 -225.587 563.084" stroke="white"/>
<path opacity="0.916667" d="M657.607 611.181C612.257 559.678 401.657 314.223 160.345 530.983C29.9141 648.143 -147.853 625.214 -224.729 594.586" stroke="white"/>
<path opacity="0.958333" d="M659.584 611.9C612.464 562.01 393.426 324.055 159.826 549.104C33.5631 670.745 -144.896 654.034 -222.795 626.107" stroke="white"/>
<path d="M661.563 612.615C612.731 564.401 385.521 334.234 159.917 567.299C37.9769 693.272 -140.956 682.799 -219.782 657.608" stroke="white"/>
</svg>
