<svg width="664" height="483" viewBox="0 0 664 483" fill="none" xmlns="http://www.w3.org/2000/svg">
<path opacity="0.0416667" d="M47.3509 595.767C46.5903 527.147 38.8555 203.819 363.226 203.434C538.55 203.226 655.314 67.2369 691.95 -6.96495" stroke="white"/>
<path opacity="0.0833333" d="M45.4279 596.51C47.0625 527.905 50.6164 204.504 374.802 215.44C550.027 221.35 671.466 89.5193 710.67 16.6413" stroke="white"/>
<path opacity="0.125" d="M43.501 597.252C47.5288 528.747 62.3671 205.667 385.974 227.91C560.886 239.932 686.851 112.419 728.575 40.9538" stroke="white"/>
<path opacity="0.166667" d="M41.5722 597.995C47.9884 529.672 74.093 207.306 396.726 240.829C571.112 258.948 701.451 135.91 745.643 65.9437" stroke="white"/>
<path opacity="0.208333" d="M39.6416 598.736C48.4383 530.678 85.7773 209.42 407.044 254.183C580.692 278.377 715.245 159.962 761.852 91.5808" stroke="white"/>
<path opacity="0.25" d="M37.7062 599.477C48.8727 531.768 97.4007 212.009 416.91 267.956C589.607 298.196 728.211 184.549 777.176 117.836" stroke="white"/>
<path opacity="0.291667" d="M35.7689 600.218C49.2916 532.94 108.95 215.069 426.311 282.133C597.848 318.381 740.334 209.64 791.597 144.677" stroke="white"/>
<path opacity="0.333333" d="M33.8279 600.958C49.6904 534.193 120.405 218.598 435.234 296.696C605.401 338.909 751.595 235.207 805.094 172.072" stroke="white"/>
<path opacity="0.375" d="M31.8851 601.697C50.068 535.526 131.754 222.591 443.665 311.629C612.255 359.755 761.979 261.219 817.649 199.99" stroke="white"/>
<path opacity="0.416667" d="M29.9386 602.435C50.4197 536.939 142.977 227.045 451.591 326.915C618.399 380.895 771.471 287.644 829.243 228.395" stroke="white"/>
<path opacity="0.458333" d="M27.9914 603.171C50.7458 538.43 154.062 231.956 459.002 342.535C623.825 402.304 780.058 314.451 839.863 257.255" stroke="white"/>
<path opacity="0.5" d="M26.0395 603.907C51.0395 539.999 164.989 237.318 465.884 358.471C628.52 423.956 787.724 341.61 849.489 286.535" stroke="white"/>
<path opacity="0.541667" d="M24.086 604.642C51.3012 541.646 175.744 243.125 472.228 374.706C632.48 445.827 794.46 369.087 858.11 316.201" stroke="white"/>
<path opacity="0.583333" d="M22.129 605.375C51.5261 543.367 186.312 249.371 478.023 391.219C635.695 467.889 800.255 396.849 865.711 346.217" stroke="white"/>
<path opacity="0.625" d="M20.1695 606.107C51.7127 545.163 196.677 256.05 483.259 407.992C638.159 490.118 805.099 424.864 872.282 376.548" stroke="white"/>
<path opacity="0.666667" d="M18.2094 606.837C51.8603 547.03 206.826 263.153 487.931 425.004C639.871 512.486 808.986 453.098 877.815 407.156" stroke="white"/>
<path opacity="0.708333" d="M16.2459 607.566C51.9636 548.97 216.742 270.674 492.027 442.237C640.821 534.968 811.906 481.518 882.296 438.006" stroke="white"/>
<path opacity="0.75" d="M14.2801 608.293C52.021 550.98 226.411 278.603 495.542 459.669C641.009 557.537 813.854 510.091 885.72 469.061" stroke="white"/>
<path opacity="0.791667" d="M12.311 609.019C52.0291 553.057 235.819 286.933 498.466 477.281C640.429 580.166 814.825 538.781 888.08 500.284" stroke="white"/>
<path opacity="0.833333" d="M10.3407 609.742C51.9876 555.201 244.953 295.653 500.797 495.052C639.083 602.828 814.818 567.554 889.371 531.638" stroke="white"/>
<path opacity="0.875" d="M8.36719 610.464C51.8922 557.409 253.798 304.754 502.528 512.96C636.968 625.497 813.826 596.378 889.587 563.085" stroke="white"/>
<path opacity="0.916667" d="M6.39258 611.183C51.7427 559.68 262.343 314.225 503.655 530.984C634.086 648.145 811.853 625.215 888.729 594.587" stroke="white"/>
<path opacity="0.958333" d="M4.41593 611.901C51.5358 562.012 270.574 324.056 504.174 549.105C630.437 670.746 808.896 654.035 886.795 626.108" stroke="white"/>
<path d="M2.43732 612.616C51.2696 564.402 278.479 334.236 504.083 567.3C626.023 693.274 804.956 682.801 883.783 657.61" stroke="white"/>
</svg>
