<svg width="570" height="310" viewBox="0 0 570 310" fill="none" xmlns="http://www.w3.org/2000/svg">
<path opacity="0.0416667" d="M551.543 -16.647C587.917 26.1043 761.741 225.101 572.048 416.33C469.517 519.691 472.365 674.053 489.769 742.338" stroke="white"/>
<path opacity="0.0833333" d="M552.279 -18.247C587.244 25.9051 754.497 231.594 558.984 415.588C453.308 515.039 451.242 669.535 466.45 738.498" stroke="white"/>
<path opacity="0.125" d="M553.021 -19.849C586.533 25.65 747.012 237.781 545.917 414.316C437.224 509.734 430.247 664.177 443.24 733.735" stroke="white"/>
<path opacity="0.166667" d="M553.759 -21.4518C585.777 25.3387 739.287 243.653 532.856 412.514C421.278 503.784 409.398 657.985 420.161 728.052" stroke="white"/>
<path opacity="0.208333" d="M554.503 -23.0562C584.988 24.9688 731.34 249.201 519.825 410.181C405.499 497.192 388.73 650.964 397.25 721.455" stroke="white"/>
<path opacity="0.25" d="M555.247 -24.6616C584.163 24.5393 723.18 254.416 506.837 407.32C389.901 489.965 368.265 643.121 374.53 713.95" stroke="white"/>
<path opacity="0.291667" d="M555.992 -26.2692C583.303 24.0477 714.816 259.289 493.909 403.93C374.507 482.109 348.029 634.462 352.033 705.543" stroke="white"/>
<path opacity="0.333333" d="M556.744 -27.877C582.416 23.4946 706.264 263.813 481.062 400.015C359.339 473.634 328.052 624.997 329.789 696.243" stroke="white"/>
<path opacity="0.375" d="M557.495 -29.487C581.497 22.8768 697.53 267.981 468.308 395.578C344.412 464.545 308.354 614.735 307.823 686.06" stroke="white"/>
<path opacity="0.416667" d="M558.244 -31.0969C580.548 22.1952 688.624 271.785 455.661 390.622C329.743 454.854 288.957 603.688 286.158 675.005" stroke="white"/>
<path opacity="0.458333" d="M559 -32.7079C579.578 21.4476 679.564 275.22 443.145 385.152C315.358 444.571 269.895 591.867 264.831 663.088" stroke="white"/>
<path opacity="0.5" d="M559.759 -34.3197C578.585 20.6332 670.362 278.279 430.773 379.171C301.273 433.705 251.188 579.284 243.866 650.323" stroke="white"/>
<path opacity="0.541667" d="M560.516 -35.9324C577.568 19.7509 661.022 280.955 418.556 372.686C287.502 422.268 232.855 565.952 223.284 636.723" stroke="white"/>
<path opacity="0.583333" d="M561.277 -37.5463C576.534 18.7996 651.565 283.245 406.517 365.702C274.067 410.271 214.926 551.886 203.117 622.302" stroke="white"/>
<path opacity="0.625" d="M562.044 -39.1608C575.488 17.7792 642.003 285.143 394.672 358.226C260.988 397.728 197.425 537.101 183.392 607.076" stroke="white"/>
<path opacity="0.666667" d="M562.808 -40.7746C574.423 16.69 632.341 286.647 383.029 350.267C248.273 384.654 180.365 521.615 164.126 591.065" stroke="white"/>
<path opacity="0.708333" d="M563.576 -42.3901C573.347 15.5291 622.598 287.751 371.608 341.83C235.945 371.06 163.774 505.442 145.349 574.281" stroke="white"/>
<path opacity="0.75" d="M564.348 -44.005C572.263 14.2982 612.787 288.452 360.425 332.924C224.02 356.962 147.675 488.602 127.086 556.747" stroke="white"/>
<path opacity="0.791667" d="M565.119 -45.6213C571.169 12.9949 602.917 288.747 349.489 323.559C212.509 342.375 132.083 471.112 109.354 538.479" stroke="white"/>
<path opacity="0.833333" d="M565.892 -47.2369C570.069 11.6209 593.002 288.636 338.818 313.744C201.429 327.315 117.019 452.993 92.1799 519.5" stroke="white"/>
<path opacity="0.875" d="M566.671 -48.8532C568.97 10.1744 583.06 288.114 328.429 303.489C190.8 311.799 102.509 434.264 75.5885 499.831" stroke="white"/>
<path opacity="0.916667" d="M567.452 -50.468C567.87 8.65757 573.1 287.184 318.333 292.806C180.63 295.845 88.5665 414.948 59.5977 479.494" stroke="white"/>
<path opacity="0.958333" d="M568.23 -52.0837C566.767 7.06778 563.13 285.841 308.538 281.704C170.929 279.467 75.2048 395.063 44.2231 458.511" stroke="white"/>
<path d="M569.015 -53.6997C565.672 5.40561 553.173 284.086 299.066 270.194C161.718 262.686 62.4499 374.634 29.4931 436.905" stroke="white"/>
</svg>
