<svg width="570" height="244" viewBox="0 0 570 244" fill="none" xmlns="http://www.w3.org/2000/svg">
<path opacity="0.0416667" d="M18.4572 -16.6469C-17.9174 26.1045 -191.741 225.101 -2.04789 416.33C100.483 519.691 97.6352 674.053 80.2308 742.338" stroke="white"/>
<path opacity="0.0833333" d="M17.7205 -18.2472C-17.2439 25.9048 -184.497 231.594 11.0158 415.588C116.692 515.038 118.758 669.535 103.55 738.498" stroke="white"/>
<path opacity="0.125" d="M16.979 -19.8492C-16.5326 25.6498 -177.012 237.781 24.0828 414.316C132.776 509.734 139.753 664.177 126.76 733.735" stroke="white"/>
<path opacity="0.166667" d="M16.2405 -21.4515C-15.7774 25.3389 -169.287 243.654 37.1443 412.514C148.722 503.784 160.602 657.986 149.839 728.052" stroke="white"/>
<path opacity="0.208333" d="M15.4972 -23.0563C-14.9881 24.9686 -161.34 249.201 50.1754 410.181C164.501 497.192 181.27 650.964 172.75 721.455" stroke="white"/>
<path opacity="0.25" d="M14.753 -24.6614C-14.1625 24.5395 -153.18 254.416 63.1634 407.32C180.099 489.965 201.735 643.121 195.47 713.95" stroke="white"/>
<path opacity="0.291667" d="M14.0077 -26.2697C-13.3028 24.0472 -144.816 259.288 76.0914 403.929C195.493 482.109 221.971 634.461 217.967 705.542" stroke="white"/>
<path opacity="0.333333" d="M13.2564 -27.8772C-12.4157 23.4944 -136.264 263.813 88.9376 400.015C210.661 473.634 241.948 624.997 240.211 696.243" stroke="white"/>
<path opacity="0.375" d="M12.5051 -29.4867C-11.4974 22.877 -127.53 267.981 101.692 395.578C225.588 464.545 261.646 614.735 262.177 686.06" stroke="white"/>
<path opacity="0.416667" d="M11.7556 -31.0973C-10.5481 22.1948 -118.624 271.785 114.339 390.622C240.257 454.854 281.043 603.688 283.842 675.004" stroke="white"/>
<path opacity="0.458333" d="M11 -32.7078C-9.57767 21.4477 -109.564 275.22 126.855 385.152C254.642 444.571 300.105 591.867 305.169 663.088" stroke="white"/>
<path opacity="0.5" d="M10.2414 -34.3201C-8.58528 20.6327 -100.362 278.278 139.227 379.171C268.727 433.704 318.812 579.283 326.134 650.322" stroke="white"/>
<path opacity="0.541667" d="M9.48443 -35.9323C-7.5682 19.7511 -91.0222 280.956 151.444 372.686C282.498 422.268 337.145 565.952 346.716 636.723" stroke="white"/>
<path opacity="0.583333" d="M8.72335 -37.546C-6.53449 18.7999 -81.5645 283.246 163.483 365.703C295.933 410.271 355.074 551.887 366.883 622.302" stroke="white"/>
<path opacity="0.625" d="M7.95615 -39.1604C-5.48832 17.7795 -72.003 285.144 175.328 358.227C309.012 397.729 372.575 537.102 386.608 607.077" stroke="white"/>
<path opacity="0.666667" d="M7.1916 -40.7743C-4.4231 16.6902 -62.3414 286.648 186.971 350.267C321.727 384.654 389.635 521.616 405.874 591.065" stroke="white"/>
<path opacity="0.708333" d="M6.42384 -42.3897C-3.34696 15.5295 -52.5983 287.751 198.392 341.83C334.055 371.06 406.226 505.443 424.651 574.281" stroke="white"/>
<path opacity="0.75" d="M5.65187 -44.0053C-2.26311 14.2979 -42.7874 288.452 209.575 332.924C345.98 356.962 422.325 488.602 442.914 556.746" stroke="white"/>
<path opacity="0.791667" d="M4.88058 -45.6212C-1.16895 12.9949 -32.9169 288.747 220.511 323.559C357.491 342.375 437.917 471.112 460.646 538.479" stroke="white"/>
<path opacity="0.833333" d="M4.10799 -47.2373C-0.0687065 11.6204 -23.0016 288.635 231.182 313.744C368.571 327.315 452.981 452.993 477.82 519.5" stroke="white"/>
<path opacity="0.875" d="M3.32924 -48.8535C1.03045 10.1741 -13.0595 288.114 241.571 303.488C379.2 311.799 467.491 434.264 494.411 499.83" stroke="white"/>
<path opacity="0.916667" d="M2.54822 -50.4677C2.13015 8.65787 -3.09969 287.184 251.667 292.806C389.37 295.845 481.434 414.948 510.402 479.494" stroke="white"/>
<path opacity="0.958333" d="M1.76982 -52.0838C3.23297 7.06772 6.86965 285.841 261.462 281.704C399.071 279.467 494.795 395.063 525.777 458.511" stroke="white"/>
<path d="M0.985257 -53.6997C4.32785 5.40567 16.8266 284.086 270.934 270.195C408.282 262.686 507.55 374.634 540.507 436.905" stroke="white"/>
</svg>
