<svg width="24" height="24" viewBox="0 0 24 24" fill="none" xmlns="http://www.w3.org/2000/svg">
<g clip-path="url(#clip0_5005_133)">
<path d="M5.07182 0.0768204C4.98744 0.119007 4.87025 0.222134 4.814 0.301821C4.72025 0.437757 4.71088 0.50807 4.69682 1.22526L4.68275 2.00807L4.39213 2.06432C2.70463 2.38776 1.24213 3.52213 0.515567 5.07369C-0.707871 7.68463 0.328067 10.769 2.88275 12.1284L3.28119 12.3393V17.4253C3.28119 22.0659 3.28588 22.5253 3.36088 22.6753C3.42182 22.8018 3.61869 22.9612 4.28432 23.4065C4.99682 23.8799 5.16557 23.9737 5.34369 23.9878C5.48901 24.0018 5.6015 23.9831 5.70463 23.9221C5.87338 23.8284 8.32494 20.9128 8.39994 20.7206C8.49838 20.4674 8.41869 20.2471 8.02026 19.6518L7.64057 19.0799L8.02494 18.5034C8.39526 17.9596 8.41401 17.9174 8.41401 17.6737C8.41401 17.4253 8.39526 17.3924 7.95463 16.7362L7.49994 16.0565V14.4112V12.7612L7.95932 12.7424C8.20776 12.7331 8.42807 12.7331 8.44213 12.7471C8.46088 12.7612 9.60932 14.744 10.9968 17.1534C12.7031 20.1018 13.5656 21.5596 13.6546 21.6206C13.8187 21.7378 14.1749 21.7846 15.1874 21.8221C15.914 21.8503 15.9703 21.8456 16.1109 21.7565C16.1953 21.7049 16.2937 21.6112 16.3406 21.5456C16.4484 21.3768 17.0765 17.7768 17.0484 17.4721C17.0203 17.1581 16.8562 17.0034 16.1718 16.6659L15.6093 16.3893L15.6187 15.6065L15.6328 14.8237L15.4921 14.6737C15.4078 14.5846 15.0609 14.3784 14.6484 14.1721L13.9499 13.8253L13.3265 12.7471C12.9843 12.1565 12.7171 11.6737 12.7265 11.6737C12.7359 11.6737 14.7234 12.8174 17.1421 14.2143C21.3703 16.6612 21.5484 16.7596 21.7734 16.7549C21.9703 16.7549 22.139 16.6893 22.8796 16.3284C23.8359 15.8596 23.9484 15.7659 23.9859 15.4096C24.0046 15.2456 23.8968 14.9128 23.3249 13.3659C22.9499 12.3534 22.6078 11.4815 22.5609 11.4299C22.364 11.2143 22.2468 11.1909 21.4874 11.2284L20.7703 11.2612L20.4656 10.6518C20.1609 10.0471 20.0203 9.87369 19.7859 9.81276C19.7203 9.79869 19.3078 9.80338 18.8718 9.83151L18.0749 9.88307L17.0203 9.26901C16.439 8.93151 15.7171 8.51901 15.4218 8.34557L14.8828 8.03619L14.8781 7.42682C14.8546 5.41588 13.9265 3.75182 12.2531 2.73463C11.6671 2.3737 10.8984 2.11119 10.1812 2.02213C9.6515 1.95651 7.41088 1.97057 6.95619 2.04088C6.68432 2.08307 6.51557 2.08776 6.33744 2.05494L6.09369 2.00338V1.28151C6.09369 0.475258 6.05151 0.315884 5.79838 0.13307C5.61557 0.00181961 5.27338 -0.0263042 5.07182 0.0768204ZM4.68744 4.0987V4.77369L4.439 4.79244C4.28432 4.80651 4.13432 4.85338 4.04525 4.91432C3.62338 5.21432 3.67963 5.89401 4.14369 6.11432C4.37807 6.22682 6.40307 6.22682 6.63744 6.11432C7.1015 5.89401 7.15775 5.21432 6.73588 4.91432C6.64682 4.85338 6.49682 4.80651 6.34213 4.79244L6.09369 4.77369V4.0987V3.42838L6.43588 3.52213C8.0765 3.97213 9.24838 5.40651 9.36088 7.10807C9.40307 7.79244 9.25307 8.55182 8.95307 9.14244C8.48432 10.0612 7.61244 10.8206 6.67494 11.1299C6.41713 11.2143 6.22494 11.3831 6.14526 11.594C6.11244 11.6831 6.09369 12.5268 6.09369 14.069C6.09369 16.7362 6.04213 16.4081 6.57182 17.1909L6.89057 17.6737L6.57182 18.1518C5.939 19.094 5.939 19.0612 6.55307 19.9799C6.82963 20.3971 6.85307 20.4487 6.78744 20.5237C6.71244 20.6128 5.28744 22.3284 5.26869 22.3518C5.264 22.3612 5.12807 22.2815 4.97338 22.1784L4.68744 21.9815V16.8534C4.68744 13.3471 4.67338 11.6831 4.63588 11.594C4.55619 11.3831 4.364 11.2143 4.10619 11.1299C2.95307 10.7503 1.98744 9.76588 1.60307 8.57994C0.881192 6.35338 2.25932 3.97213 4.57025 3.45651C4.62182 3.44245 4.66869 3.43307 4.67807 3.42838C4.68275 3.42838 4.68744 3.72838 4.68744 4.0987ZM10.0546 4.09401C10.7765 4.58151 11.3296 5.35494 11.6109 6.26901C11.7187 6.63463 11.7328 6.75651 11.7328 7.36119C11.7328 7.96588 11.7187 8.08776 11.6062 8.46276C11.4468 8.98307 11.2406 9.38619 10.8749 9.86901C10.5609 10.2768 10.5234 10.3753 10.5609 10.6331C10.5843 10.8112 12.7453 14.6221 12.9562 14.8565C13.0078 14.9174 13.3124 15.0909 13.6265 15.2409C13.9406 15.3909 14.2031 15.5315 14.2171 15.5503C14.2265 15.569 14.2171 15.8596 14.1937 16.1971C14.1703 16.5299 14.1656 16.8721 14.1796 16.9565C14.2265 17.2237 14.4187 17.3831 15.0234 17.6737L15.5953 17.9409L15.389 19.1315C15.2765 19.7878 15.1781 20.3409 15.1687 20.369C15.1593 20.3971 15.0187 20.4065 14.8171 20.3924L14.4796 20.369L11.9249 15.9393C10.289 13.0987 9.31869 11.4674 9.23432 11.3971L9.09369 11.2893L9.35151 11.0081C11.1187 9.10026 11.2499 6.19401 9.67025 4.0987L9.37494 3.70026L9.57182 3.80338C9.68432 3.85963 9.89994 3.99088 10.0546 4.09401ZM12.7453 5.06432C13.3406 5.91276 13.589 7.04713 13.4109 8.09713C13.3406 8.49557 13.3828 8.68776 13.5843 8.87057C13.6921 8.96901 17.1328 10.9799 17.6156 11.2284C17.7562 11.294 17.8546 11.2987 18.4124 11.2659C18.7687 11.2471 19.0828 11.2284 19.1156 11.2284C19.1531 11.2284 19.3312 11.5237 19.514 11.8799C19.9499 12.7237 19.9453 12.7237 20.789 12.6815C21.1265 12.6628 21.4312 12.644 21.4734 12.6299C21.5296 12.6159 21.6374 12.8503 21.9796 13.7878C22.2187 14.4346 22.4062 14.969 22.3968 14.9784C22.3874 14.9831 22.2515 15.0581 22.0921 15.1378L21.8015 15.2831L21.5531 15.1378C21.1593 14.9034 13.7062 10.6049 13.2656 10.3518C12.9421 10.169 12.8249 10.1268 12.6421 10.1268H12.4218L12.5859 9.79869C13.3218 8.33619 13.3546 6.59244 12.6796 5.12526C12.5953 4.93776 12.5296 4.78307 12.5343 4.78307C12.5437 4.78307 12.6374 4.90963 12.7453 5.06432Z" fill="#0295FF"/>
</g>
<defs>
<clipPath id="clip0_5005_133">
<rect width="24" height="24" fill="white"/>
</clipPath>
</defs>
</svg>
