<svg width="26" height="32" viewBox="0 0 26 32" fill="none" xmlns="http://www.w3.org/2000/svg">
<g clip-path="url(#clip0_4455_22907)">
<path d="M8.23856 24.8889C8.31608 25.0808 8.60398 24.9792 8.54861 24.776L5.43703 12.3598C5.41488 12.2469 5.28201 12.2018 5.19342 12.2582L1.58354 14.4818C1.49495 14.5383 1.47281 14.6624 1.55032 14.7415C2.32545 15.5203 5.87996 19.3468 8.23856 24.8889Z" fill="url(#paint0_linear_4455_22907)"/>
<path d="M1.60512 16.0959C1.54976 16.0395 1.4501 16.0282 1.38366 16.0847L0.0548666 17.2134C-0.0226462 17.2811 -0.0226462 17.4053 0.0659398 17.473C0.91858 18.1277 4.94924 21.4123 8.39303 27.8575C8.49269 28.0381 8.75844 27.9026 8.68093 27.722C7.41858 24.5841 5.0489 19.5499 1.60512 16.0959Z" fill="url(#paint1_linear_4455_22907)"/>
<path d="M20.7069 3.5894C19.7989 2.90087 18.603 2.72027 17.5288 3.05889C17.1634 3.17177 17.3185 3.75872 17.6839 3.64584C18.603 3.35237 19.5885 3.4991 20.3636 4.08605C21.0391 4.59399 21.4709 5.38411 21.5484 6.23067C21.5817 6.61445 22.1796 6.61445 22.1464 6.23067C22.0467 5.18094 21.5374 4.23279 20.7069 3.5894Z" fill="url(#paint2_linear_4455_22907)"/>
<path d="M23.5084 6.01624C23.3533 4.56016 22.6225 3.25081 21.4377 2.39296C20.1532 1.4561 18.47 1.24164 16.9751 1.76086C16.6097 1.88502 16.7647 2.47197 17.1302 2.34781C18.459 1.88502 19.9095 2.06562 21.0612 2.87832C22.0799 3.60072 22.7664 4.76333 22.8993 6.02753C22.9658 6.40002 23.5526 6.40002 23.5084 6.01624Z" fill="url(#paint3_linear_4455_22907)"/>
<path d="M16.6878 0.936847C18.4374 0.327324 20.3752 0.575648 21.9033 1.64796C23.2542 2.58482 24.1622 4.11992 24.3615 5.76789C24.4058 6.15166 25.0038 6.15166 24.9595 5.76789C24.6052 2.83314 22.3573 0.440198 19.4561 0.056424C18.4706 -0.0790257 17.474 0.0338491 16.5328 0.349898C16.1673 0.474061 16.3224 1.06101 16.6878 0.936847Z" fill="url(#paint4_linear_4455_22907)"/>
<path d="M25.8564 26.9771L24.0514 19.3242L23.2652 19.4822L25.0259 27.3383C25.192 27.9817 24.8044 28.6025 24.1622 28.7266L13.5872 30.6229C12.945 30.7358 12.3249 30.3859 12.2031 29.8441C12.0923 29.3023 7.64088 8.40918 7.64088 8.40918C7.53015 7.75451 7.97308 7.14499 8.6264 7.05469L10.2985 6.79507C10.4313 7.15627 10.8078 7.79966 11.9152 7.57391L15.9126 6.88537C15.9126 6.88537 17.0531 6.79507 16.9424 5.83564L18.2823 5.64375C18.9356 5.55345 19.6 6.01624 19.7772 6.65962L21.7704 14.7189L21.8146 14.7415L19.0906 15.1478C19.0906 15.1478 16.3223 15.3058 16.5659 17.4392C16.5659 17.4392 16.6656 19.7644 19.6221 19.437L24.7712 18.534C24.7712 18.534 25.8785 18.4099 25.6238 17.2586L25.1145 15.4187C25.0702 15.1704 24.6494 13.5563 23.2763 13.7256L23.531 14.4706L23.0327 14.5609L22.6451 14.6173L20.8845 7.56262C20.0761 3.89419 18.7474 4.75204 15.9569 5.03423L9.30187 6.0501C4.95008 6.20812 6.33424 10.2603 6.33424 10.2603L10.5642 29.8102C11.284 32.9369 14.2405 31.7855 14.2405 31.7855L19.2899 30.8487L22.9884 30.1489C26.9969 29.7199 25.8564 26.9771 25.8564 26.9771ZM19.0685 18.1277C18.6698 18.2519 18.2048 18.0035 18.0276 17.5972C17.8504 17.1796 18.0387 16.7506 18.4373 16.6378C18.8359 16.5136 19.301 16.7619 19.4782 17.1683C19.6554 17.5859 19.4671 18.0148 19.0685 18.1277ZM15.0157 6.02753C15.1375 6.02753 15.2371 6.12911 15.2371 6.24199C15.2371 6.35486 15.1375 6.45645 15.0157 6.45645C14.8939 6.45645 14.7942 6.35486 14.7942 6.24199C14.7942 6.11783 14.8939 6.02753 15.0157 6.02753ZM12.1588 6.49031L14.3956 6.1404C14.4066 6.1404 14.4177 6.1404 14.4288 6.1404C14.5395 6.1404 14.606 6.2307 14.617 6.321C14.6281 6.4113 14.5617 6.47902 14.4842 6.49031L12.2474 6.84022C12.2363 6.84022 12.2252 6.84022 12.2141 6.84022C12.1034 6.84022 12.037 6.74992 12.0259 6.65962C12.0148 6.56932 12.0702 6.5016 12.1588 6.49031Z" fill="url(#paint5_linear_4455_22907)"/>
</g>
<defs>
<linearGradient id="paint0_linear_4455_22907" x1="6.64304" y1="28.7861" x2="2.57976" y2="6.73275" gradientUnits="userSpaceOnUse">
<stop stop-color="#0295FF"/>
<stop offset="1" stop-color="#61C0F0"/>
</linearGradient>
<linearGradient id="paint1_linear_4455_22907" x1="5.48566" y1="28.9992" x2="1.42237" y2="6.94588" gradientUnits="userSpaceOnUse">
<stop stop-color="#0295FF"/>
<stop offset="1" stop-color="#61C0F0"/>
</linearGradient>
<linearGradient id="paint2_linear_4455_22907" x1="23.4429" y1="25.6907" x2="19.3796" y2="3.63736" gradientUnits="userSpaceOnUse">
<stop stop-color="#0295FF"/>
<stop offset="1" stop-color="#61C0F0"/>
</linearGradient>
<linearGradient id="paint3_linear_4455_22907" x1="23.9744" y1="25.5927" x2="19.9111" y2="3.53945" gradientUnits="userSpaceOnUse">
<stop stop-color="#0295FF"/>
<stop offset="1" stop-color="#61C0F0"/>
</linearGradient>
<linearGradient id="paint4_linear_4455_22907" x1="24.5874" y1="25.4799" x2="20.5241" y2="3.42658" gradientUnits="userSpaceOnUse">
<stop stop-color="#0295FF"/>
<stop offset="1" stop-color="#61C0F0"/>
</linearGradient>
<linearGradient id="paint5_linear_4455_22907" x1="18.2373" y1="26.6499" x2="14.174" y2="4.59659" gradientUnits="userSpaceOnUse">
<stop stop-color="#0295FF"/>
<stop offset="1" stop-color="#61C0F0"/>
</linearGradient>
<clipPath id="clip0_4455_22907">
<rect width="26" height="32" fill="white"/>
</clipPath>
</defs>
</svg>
