<svg width="26" height="32" viewBox="0 0 26 32" fill="none" xmlns="http://www.w3.org/2000/svg">
<g clip-path="url(#clip0_5117_789)">
<path d="M8.23856 24.8889C8.31608 25.0808 8.60398 24.9792 8.54861 24.776L5.43703 12.3598C5.41488 12.2469 5.28201 12.2017 5.19342 12.2582L1.58354 14.4818C1.49495 14.5383 1.47281 14.6624 1.55032 14.7414C2.32545 15.5203 5.87996 19.3467 8.23856 24.8889Z" fill="white"/>
<path d="M1.60512 16.0958C1.54976 16.0393 1.4501 16.028 1.38366 16.0845L0.0548666 17.2132C-0.0226462 17.2809 -0.0226462 17.4051 0.0659398 17.4728C0.91858 18.1275 4.94924 21.4122 8.39303 27.8573C8.49269 28.0379 8.75844 27.9025 8.68093 27.7219C7.41858 24.5839 5.0489 19.5497 1.60512 16.0958Z" fill="white"/>
<path d="M20.7069 3.5896C19.7989 2.90107 18.603 2.72047 17.5288 3.05909C17.1634 3.17197 17.3185 3.75891 17.6839 3.64604C18.603 3.35257 19.5885 3.4993 20.3636 4.08625C21.0391 4.59419 21.4709 5.38431 21.5484 6.23087C21.5817 6.61465 22.1796 6.61465 22.1464 6.23087C22.0467 5.18114 21.5374 4.23299 20.7069 3.5896Z" fill="white"/>
<path d="M23.5084 6.01633C23.3533 4.56025 22.6225 3.2509 21.4377 2.39305C20.1532 1.45619 18.47 1.24173 16.9751 1.76095C16.6097 1.88512 16.7647 2.47206 17.1302 2.3479C18.459 1.88512 19.9095 2.06572 21.0612 2.87841C22.0799 3.60081 22.7664 4.76342 22.8993 6.02762C22.9658 6.40011 23.5526 6.40011 23.5084 6.01633Z" fill="white"/>
<path d="M16.6878 0.936786C18.4374 0.327262 20.3752 0.575587 21.9033 1.6479C23.2542 2.58476 24.1622 4.11985 24.3615 5.76783C24.4058 6.1516 25.0038 6.1516 24.9595 5.76783C24.6052 2.83308 22.3573 0.440137 19.4561 0.056363C18.4706 -0.0790867 17.474 0.033788 16.5328 0.349837C16.1673 0.474 16.3224 1.06095 16.6878 0.936786Z" fill="white"/>
<path d="M25.8564 26.9773L24.0514 19.3244L23.2652 19.4824L25.0259 27.3385C25.192 27.9819 24.8044 28.6027 24.1622 28.7269L13.5872 30.6232C12.945 30.736 12.3249 30.3861 12.2031 29.8443C12.0923 29.3025 7.64088 8.4094 7.64088 8.4094C7.53015 7.75472 7.97308 7.1452 8.6264 7.0549L10.2985 6.79529C10.4313 7.15649 10.8078 7.79987 11.9152 7.57412L15.9126 6.88559C15.9126 6.88559 17.0531 6.79529 16.9424 5.83585L18.2823 5.64396C18.9356 5.55366 19.6 6.01645 19.7772 6.65984L21.7704 14.7191L21.8146 14.7417L19.0906 15.148C19.0906 15.148 16.3223 15.306 16.5659 17.4394C16.5659 17.4394 16.6656 19.7646 19.6221 19.4373L24.7712 18.5343C24.7712 18.5343 25.8785 18.4101 25.6238 17.2588L25.1145 15.4189C25.0702 15.1706 24.6494 13.5565 23.2763 13.7258L23.531 14.4708L23.0327 14.5611L22.6451 14.6175L20.8845 7.56284C20.0761 3.89441 18.7474 4.75225 15.9569 5.03444L9.30187 6.05031C4.95008 6.20834 6.33424 10.2605 6.33424 10.2605L10.5642 29.8105C11.284 32.9371 14.2405 31.7858 14.2405 31.7858L19.2899 30.8489L22.9884 30.1491C26.9969 29.7202 25.8564 26.9773 25.8564 26.9773ZM19.0685 18.1279C18.6698 18.2521 18.2048 18.0038 18.0276 17.5974C17.8504 17.1798 18.0387 16.7508 18.4373 16.638C18.8359 16.5138 19.301 16.7621 19.4782 17.1685C19.6554 17.5861 19.4671 18.015 19.0685 18.1279ZM15.0157 6.02774C15.1375 6.02774 15.2371 6.12933 15.2371 6.2422C15.2371 6.35508 15.1375 6.45666 15.0157 6.45666C14.8939 6.45666 14.7942 6.35508 14.7942 6.2422C14.7942 6.11804 14.8939 6.02774 15.0157 6.02774ZM12.1588 6.49053L14.3956 6.14061C14.4066 6.14061 14.4177 6.14061 14.4288 6.14061C14.5395 6.14061 14.606 6.23091 14.617 6.32121C14.6281 6.41151 14.5617 6.47924 14.4842 6.49053L12.2474 6.84044C12.2363 6.84044 12.2252 6.84044 12.2141 6.84044C12.1034 6.84044 12.037 6.75014 12.0259 6.65984C12.0148 6.56954 12.0702 6.50181 12.1588 6.49053Z" fill="white"/>
</g>
<defs>
<clipPath id="clip0_5117_789">
<rect width="26" height="32" fill="white"/>
</clipPath>
</defs>
</svg>
