<svg width="24" height="25" viewBox="0 0 24 25" fill="none" xmlns="http://www.w3.org/2000/svg">
<path d="M9.75512 7.96134C9.75512 7.45468 10.1658 7.04468 10.6718 7.04468H12.8751C15.9091 7.04468 18.3938 9.46934 18.3938 12.4913C18.3938 15.512 15.9091 17.9373 12.8751 17.9373H10.6711C10.1644 17.9373 9.75445 17.5267 9.75445 17.0207L9.75512 7.96134ZM11.5884 16.0207C11.5884 16.0667 11.6258 16.104 11.6718 16.104H12.8751C14.9244 16.104 16.5604 14.4727 16.5604 12.4907C16.5604 10.5087 14.9244 8.87734 12.8751 8.87734H11.6711C11.6601 8.87734 11.6492 8.87952 11.6391 8.88375C11.6289 8.88798 11.6197 8.89418 11.612 8.90199C11.6042 8.9098 11.5981 8.91906 11.5939 8.92925C11.5898 8.93944 11.5877 8.95034 11.5878 8.96134L11.5884 16.0207ZM7.34112 7.11268C7.46152 7.11241 7.58079 7.13589 7.69211 7.18177C7.80344 7.22764 7.90462 7.29501 7.98988 7.38002C8.07514 7.46504 8.14281 7.56603 8.18901 7.67721C8.2352 7.7884 8.25903 7.90761 8.25912 8.02801L8.26845 16.9513C8.26871 17.1945 8.17239 17.4277 8.00067 17.5998C7.82895 17.7719 7.5959 17.8687 7.35278 17.869C7.10967 17.8693 6.8764 17.773 6.70431 17.6012C6.53221 17.4295 6.43538 17.1965 6.43512 16.9533L6.42578 8.03001C6.42561 7.90963 6.44914 7.7904 6.49505 7.67912C6.54095 7.56783 6.60833 7.46668 6.69332 7.38144C6.77832 7.29619 6.87928 7.22853 6.99042 7.1823C7.10157 7.13607 7.22074 7.11285 7.34112 7.11268Z" fill="#0295FF"/>
<path d="M5.08333 2.51929C4.64559 2.51929 4.21214 2.60551 3.80772 2.77302C3.4033 2.94054 3.03584 3.18607 2.72631 3.4956C2.10119 4.12072 1.75 4.96857 1.75 5.85262V19.186C1.75 20.07 2.10119 20.9179 2.72631 21.543C3.03584 21.8525 3.4033 22.098 3.80772 22.2656C4.21214 22.4331 4.64559 22.5193 5.08333 22.5193H18.4167C19.3007 22.5193 20.1486 22.1681 20.7737 21.543C21.3988 20.9179 21.75 20.07 21.75 19.186V5.85262C21.75 5.41488 21.6638 4.98143 21.4963 4.57701C21.3288 4.17259 21.0832 3.80513 20.7737 3.4956C20.4642 3.18607 20.0967 2.94054 19.6923 2.77302C19.2879 2.60551 18.8544 2.51929 18.4167 2.51929H5.08333ZM3.08333 5.85262C3.08333 5.32219 3.29405 4.81348 3.66912 4.43841C4.04419 4.06333 4.5529 3.85262 5.08333 3.85262H18.4167C18.9471 3.85262 19.4558 4.06333 19.8309 4.43841C20.206 4.81348 20.4167 5.32219 20.4167 5.85262V19.186C20.4167 19.7164 20.206 20.2251 19.8309 20.6002C19.4558 20.9752 18.9471 21.186 18.4167 21.186H5.08333C4.5529 21.186 4.04419 20.9752 3.66912 20.6002C3.29405 20.2251 3.08333 19.7164 3.08333 19.186V5.85262Z" fill="#0295FF"/>
</svg>
