<svg width="161" height="140" viewBox="0 0 161 140" fill="none" xmlns="http://www.w3.org/2000/svg">
<g clip-path="url(#clip0_5626_208777)">
<path d="M64.8913 17.4694C59.33 20.3155 56.2956 26.9156 57.7563 33.0327C58.3787 35.6391 59.4782 37.6537 61.6281 40.064C61.7003 40.1311 59.9767 40.6832 57.782 41.2635L53.8382 42.2896L52.9978 43.3618C52.0031 44.6114 51.4572 46.6815 51.7684 47.9847C51.8891 48.49 52.5472 49.5979 53.228 50.4474C53.9087 51.2969 54.9356 52.6541 55.4973 53.4758L56.5357 54.9989L46.4293 57.4123C40.1792 58.9047 35.8695 60.0463 35.0628 60.4357C33.3496 61.2665 31.799 63.0143 31.2163 64.8121C30.7713 66.1272 30.7665 66.5781 31.2456 68.9376L31.768 71.596L30.8411 72.0704C30.3473 72.357 29.6204 72.7273 29.1937 72.9417C26.2268 74.4091 24.5989 77.834 25.3547 80.999C25.8183 82.9405 28.0554 87.1292 28.7751 87.4352C29.6798 87.8096 31.0524 87.2007 31.4736 86.2567C31.8075 85.4179 31.8075 85.4179 30.6647 83.1045C29.1388 80.011 28.9749 79.2068 29.6442 78.0068C30.1312 77.1033 32.2824 75.6338 32.7107 75.897C32.8095 75.9578 33.9666 80.6855 35.2991 86.3834L37.6898 96.7483L36.2465 94.0005C35.4399 92.5064 34.5396 91.0908 34.2697 90.9023C32.9923 90.0266 30.9476 91.4707 31.3096 92.9867C31.4048 93.3856 33.8591 98.3658 36.7572 104.027L42.0397 114.376L46.2821 132.142L50.5245 149.909L51.4867 151.112C53.3782 153.5 56.2946 154.294 59.9914 153.411C61.7202 152.998 61.9456 153.001 62.0536 153.453C62.2949 154.463 64.0637 157.161 65.0498 157.994C65.6087 158.451 66.763 159.047 67.6029 159.268C70.3939 160.007 71.0195 159.802 80.4151 155C85.023 152.634 92.2912 148.931 96.5256 146.767L104.247 142.843L114.3 140.442C124.088 138.105 124.374 138.009 124.938 137.312C125.671 136.378 125.407 135.035 124.339 134.447L123.587 134.008L90.3955 141.934C53.959 150.635 56.1652 150.22 54.8811 148.728C54.3702 148.119 53.1421 143.211 44.6065 107.466C35.6645 70.019 34.9226 66.7945 35.183 66.0014C35.6848 64.3354 35.6848 64.3354 47.387 61.541L58.185 58.9625L58.9698 61.8956C59.3901 63.5382 59.8069 65.519 59.8708 66.3753C60.0216 68.4196 60.9068 70.0074 62.3032 70.9109C64.0887 72.0307 64.812 71.9986 71.4078 70.4236L77.3653 69.001L77.8258 68.1039C78.3811 67.0154 78.268 66.424 77.3276 65.6646L76.6306 65.1001L71.205 66.3957C68.2262 67.107 65.4615 67.6547 65.0574 67.6107L64.3555 67.4971L63.4089 62.9441C62.0911 56.4836 60.7439 53.4318 57.2944 49.1109C54.9973 46.2016 54.9302 46.2739 60.1176 44.9227L64.2475 43.8522L64.808 44.7866C65.1009 45.307 66.0111 48.2945 66.8594 51.4936C68.5685 57.9449 68.7575 58.2652 70.4191 57.9247C71.117 57.7861 71.4449 57.5111 71.8168 56.8319L72.2976 55.9018L70.7662 50.1952C69.9104 47.0823 69.0661 44.1353 68.8454 43.6819L68.4826 42.869L74.121 41.5226L79.7593 40.1762L79.7129 40.8058C79.6374 41.6672 82.0718 52.9212 82.4941 53.7481C82.8581 54.4483 84.3531 54.8223 85.1267 54.4126C85.38 54.2959 85.7432 53.8156 85.9468 53.3734C86.2795 52.6474 86.2184 52.156 85.1451 47.6612C84.4973 44.9484 83.919 41.9379 83.8563 40.969L83.7487 39.2236L87.9775 38.2138C92.1265 37.223 92.2392 37.2242 92.5853 37.7319C92.8529 38.146 92.8052 38.8883 92.4416 40.6618C91.3177 45.9624 91.6686 51.6698 93.4389 56.729C94.0188 58.3335 94.467 59.857 94.4114 60.0951C94.3245 60.7906 93.6254 61.0419 87.9073 62.4073C82.854 63.614 82.488 63.7295 82.1034 64.3555C81.5973 65.1792 81.8819 66.4887 82.7055 66.9948C83.661 67.5819 84.8034 67.4216 90.5494 65.9371C96.508 64.4017 97.402 63.9071 98.1681 61.7001C98.8029 60.0023 98.7049 59.2386 97.5133 55.8966C96.9079 54.1857 96.3455 52.1835 96.2486 51.307L96.0994 49.7402L107.049 47.2098C118.93 44.4571 118.685 44.4877 119.951 45.7877C120.509 46.3573 121.431 50.101 130.246 87.0163C140.896 131.618 140.304 128.667 138.811 129.951C138.296 130.383 137.178 130.763 134.066 131.506C129.625 132.566 129.051 132.872 129.043 134.251C129.041 135.067 129.944 136.257 130.645 136.371C131.659 136.494 139.194 134.498 140.455 133.775C142.063 132.857 143.349 131.06 143.788 129.128C144.093 127.818 144.066 127.234 143.603 125.293L143.056 123.005L144.91 122.057C148.704 120.167 150.355 117.074 149.498 113.483C149.326 112.765 145.671 105.345 141.025 96.2495L132.844 80.2391L128.646 62.6591C124.035 43.3505 124.145 43.6899 122.052 42.1092C120.407 40.8714 118.183 40.503 115.352 41.0103L112.98 41.4362L112.064 39.6027C110.518 36.5421 107.989 34.8971 104.977 34.9979C103.577 35.0229 103.111 35.1904 100.497 36.4892C98.8905 37.2946 97.4432 38.0619 97.2495 38.1925C97.009 38.3624 96.9101 38.3016 96.9605 37.9241C97.0816 37.1362 95.9618 35.1546 94.9822 34.3483C93.4436 33.0852 92.1579 32.9987 88.1419 33.9576C86.2004 34.4213 84.5919 34.7491 84.5729 34.6693C84.5538 34.5895 84.6876 33.8548 84.8885 33.0478C85.4367 30.7522 85.3323 28.0783 84.5936 25.8089C81.923 17.4506 72.6332 13.5123 64.8913 17.4694ZM73.0201 20.195C75.3498 20.6508 77.4191 21.8996 78.9315 23.7594C80.0711 25.1178 80.2855 25.5445 80.7681 27.5658C81.2826 29.7201 81.2865 29.9721 80.6931 32.7845L80.0515 35.749L73.1556 37.48L66.2268 39.1908L64.3937 36.9297C62.2918 34.3673 61.49 32.4222 61.4452 29.7623C61.4325 27.8255 62.4706 24.9913 63.7996 23.4932C66.0627 20.8444 69.7175 19.5499 73.0201 20.195ZM106.403 39.3239C107.203 39.6109 108.029 40.4818 108.534 41.6545L108.93 42.4877L102.387 44.05C96.5095 45.4535 95.8319 45.5591 95.9026 45.1487C95.9252 44.8902 95.9768 44.4 95.974 44.0352C95.9736 43.4449 96.3611 43.1838 99.9015 41.4106C102.088 40.3262 103.969 39.3711 104.089 39.2862C104.476 39.025 105.663 39.0508 106.403 39.3239ZM141.315 105.823C143.531 110.157 145.426 114.09 145.54 114.569C145.845 115.846 145.054 117.243 143.499 118.149C142.805 118.539 142.211 118.878 142.158 118.891C142.105 118.903 140.942 114.149 139.557 108.351C138.173 102.553 137.108 97.8595 137.174 97.9C137.24 97.9405 139.105 101.515 141.315 105.823ZM86.5723 147.232C86.4521 147.317 82.7711 149.208 78.4633 151.418C73.1223 154.127 70.2896 155.45 69.7057 155.477C68.5644 155.524 67.2604 154.655 66.5642 153.388C66.2649 152.841 65.9986 152.314 65.9668 152.181C65.9414 152.074 70.6298 150.871 76.3809 149.525C82.0991 148.16 86.7129 147.114 86.5723 147.232Z" fill="white"/>
</g>
<defs>
<clipPath id="clip0_5626_208777">
<rect width="140" height="140" fill="white" transform="translate(0 32.5156) rotate(-13.4302)"/>
</clipPath>
</defs>
</svg>
