<svg width="24" height="25" viewBox="0 0 24 25" fill="none" xmlns="http://www.w3.org/2000/svg">
<path d="M2 12.7693C2 8.99829 2 7.11229 3.172 5.94129C4.344 4.77029 6.229 4.76929 10 4.76929H14C17.771 4.76929 19.657 4.76929 20.828 5.94129C21.999 7.11329 22 8.99829 22 12.7693C22 16.5403 22 18.4263 20.828 19.5973C19.656 20.7683 17.771 20.7693 14 20.7693H10C6.229 20.7693 4.343 20.7693 3.172 19.5973C2.001 18.4253 2 16.5403 2 12.7693Z" stroke="#0295FF" stroke-width="1.5"/>
<path d="M10 16.7693H6M14 16.7693H12.5M2 10.7693H22" stroke="#0295FF" stroke-width="1.5" stroke-linecap="round"/>
</svg>
