<svg width="24" height="24" viewBox="0 0 24 24" fill="none" xmlns="http://www.w3.org/2000/svg">
<rect x="1" y="4" width="22" height="16" rx="2" fill="white"/>
<mask id="mask0_4097_26058" style="mask-type:luminance" maskUnits="userSpaceOnUse" x="1" y="4" width="22" height="16">
<rect x="1" y="4" width="22" height="16" rx="2" fill="white"/>
</mask>
<g mask="url(#mask0_4097_26058)">
<path d="M23 20H1V18.9336H23V20ZM23 17.8662H1V16.7998H23V17.8662ZM23 15.7334H1V14.667H23V15.7334ZM23 13.5996H1V12.5332H23V13.5996ZM23 11.4668H1V10.4004H23V11.4668ZM23 9.33301H1V8.2666H23V9.33301ZM23 7.2002H1V6.13379H23V7.2002ZM23 5.06641H1V4H23V5.06641Z" fill="#D02F44"/>
<rect x="1" y="4" width="9.42857" height="7.46667" fill="#46467F"/>
<g filter="url(#filter0_d_4097_26058)">
<path d="M2.57129 9.33327C2.86052 9.33327 3.0956 9.57201 3.0957 9.86647C3.0957 10.161 2.86058 10.3997 2.57129 10.3997C2.28217 10.3995 2.04785 10.1609 2.04785 9.86647C2.04796 9.57213 2.28223 9.33347 2.57129 9.33327ZM4.66699 9.33327C4.95618 9.33332 5.19033 9.57204 5.19043 9.86647C5.19043 10.161 4.95624 10.3996 4.66699 10.3997C4.3777 10.3997 4.14355 10.161 4.14355 9.86647C4.14366 9.57201 4.37776 9.33327 4.66699 9.33327ZM6.76172 9.33327C7.05095 9.33327 7.28603 9.57201 7.28613 9.86647C7.28613 10.161 7.05101 10.3997 6.76172 10.3997C6.47262 10.3994 6.23828 10.1609 6.23828 9.86647C6.23839 9.57215 6.47268 9.3335 6.76172 9.33327ZM8.85742 9.33327C9.14663 9.33329 9.38076 9.57202 9.38086 9.86647C9.38086 10.161 9.14669 10.3996 8.85742 10.3997C8.56813 10.3997 8.33398 10.161 8.33398 9.86647C8.33409 9.57201 8.56819 9.33327 8.85742 9.33327ZM3.61914 8.26686C3.90843 8.26686 4.14355 8.50551 4.14355 8.80006C4.14352 9.09459 3.90841 9.33327 3.61914 9.33327C3.32993 9.33319 3.09574 9.09454 3.0957 8.80006C3.0957 8.50556 3.32991 8.26694 3.61914 8.26686ZM5.71484 8.26686C6.00399 8.26704 6.23828 8.50562 6.23828 8.80006C6.23825 9.09448 6.00396 9.33309 5.71484 9.33327C5.42557 9.33327 5.19046 9.09459 5.19043 8.80006C5.19043 8.50551 5.42555 8.26686 5.71484 8.26686ZM7.80957 8.26686C8.09886 8.26686 8.33398 8.50551 8.33398 8.80006C8.33395 9.09459 8.09884 9.33327 7.80957 9.33327C7.52039 9.33316 7.28617 9.09452 7.28613 8.80006C7.28613 8.50558 7.52036 8.26696 7.80957 8.26686ZM2.57129 7.20045C2.86058 7.20045 3.0957 7.43911 3.0957 7.73366C3.09553 8.02806 2.86047 8.26686 2.57129 8.26686C2.28227 8.26666 2.04802 8.02793 2.04785 7.73366C2.04785 7.43923 2.28217 7.20066 2.57129 7.20045ZM4.66699 7.20045C4.95624 7.20051 5.19043 7.43914 5.19043 7.73366C5.19026 8.02803 4.95614 8.26681 4.66699 8.26686C4.37781 8.26686 4.14373 8.02806 4.14355 7.73366C4.14355 7.43911 4.3777 7.20045 4.66699 7.20045ZM6.76172 7.20045C7.05101 7.20045 7.28613 7.43911 7.28613 7.73366C7.28596 8.02806 7.0509 8.26686 6.76172 8.26686C6.47273 8.26663 6.23845 8.02792 6.23828 7.73366C6.23828 7.43925 6.47262 7.20069 6.76172 7.20045ZM8.85742 7.20045C9.14669 7.20048 9.38086 7.43912 9.38086 7.73366C9.38069 8.02804 9.14659 8.26684 8.85742 8.26686C8.56824 8.26686 8.33416 8.02806 8.33398 7.73366C8.33398 7.43911 8.56813 7.20045 8.85742 7.20045ZM3.61914 6.13307C3.9083 6.13307 4.14335 6.3719 4.14355 6.66628C4.14355 6.96083 3.90843 7.20045 3.61914 7.20045C3.32991 7.20038 3.0957 6.96078 3.0957 6.66628C3.09591 6.37195 3.33004 6.13315 3.61914 6.13307ZM5.71484 6.13307C6.00386 6.13325 6.23807 6.37201 6.23828 6.66628C6.23828 6.96072 6.00399 7.20028 5.71484 7.20045C5.42555 7.20045 5.19043 6.96083 5.19043 6.66628C5.19064 6.3719 5.42568 6.13307 5.71484 6.13307ZM7.80957 6.13307C8.09873 6.13307 8.33378 6.3719 8.33398 6.66628C8.33398 6.96083 8.09886 7.20045 7.80957 7.20045C7.52036 7.20035 7.28613 6.96076 7.28613 6.66628C7.28634 6.37197 7.52049 6.13317 7.80957 6.13307ZM2.57129 5.06667C2.86054 5.06667 3.09563 5.30538 3.0957 5.59987C3.0957 5.89442 2.86058 6.13307 2.57129 6.13307C2.28217 6.13287 2.04785 5.89429 2.04785 5.59987C2.04792 5.3055 2.28221 5.06687 2.57129 5.06667ZM4.66699 5.06667C4.9562 5.06672 5.19036 5.30541 5.19043 5.59987C5.19043 5.89439 4.95624 6.13302 4.66699 6.13307C4.3777 6.13307 4.14355 5.89442 4.14355 5.59987C4.14362 5.30538 4.37774 5.06667 4.66699 5.06667ZM6.76172 5.06667C7.05097 5.06667 7.28606 5.30538 7.28613 5.59987C7.28613 5.89442 7.05101 6.13307 6.76172 6.13307C6.47262 6.13284 6.23828 5.89428 6.23828 5.59987C6.23835 5.30552 6.47266 5.0669 6.76172 5.06667ZM8.85742 5.06667C9.14665 5.06669 9.38079 5.30539 9.38086 5.59987C9.38086 5.8944 9.14669 6.13305 8.85742 6.13307C8.56813 6.13307 8.33398 5.89442 8.33398 5.59987C8.33405 5.30538 8.56817 5.06667 8.85742 5.06667Z" fill="url(#paint0_linear_4097_26058)"/>
</g>
</g>
<defs>
<filter id="filter0_d_4097_26058" x="2.04785" y="5.06667" width="7.33301" height="6.33301" filterUnits="userSpaceOnUse" color-interpolation-filters="sRGB">
<feFlood flood-opacity="0" result="BackgroundImageFix"/>
<feColorMatrix in="SourceAlpha" type="matrix" values="0 0 0 0 0 0 0 0 0 0 0 0 0 0 0 0 0 0 127 0" result="hardAlpha"/>
<feOffset dy="1"/>
<feColorMatrix type="matrix" values="0 0 0 0 0 0 0 0 0 0 0 0 0 0 0 0 0 0 0.06 0"/>
<feBlend mode="normal" in2="BackgroundImageFix" result="effect1_dropShadow_4097_26058"/>
<feBlend mode="normal" in="SourceGraphic" in2="effect1_dropShadow_4097_26058" result="shape"/>
</filter>
<linearGradient id="paint0_linear_4097_26058" x1="2.04785" y1="5.06667" x2="2.04785" y2="10.3997" gradientUnits="userSpaceOnUse">
<stop stop-color="white"/>
<stop offset="1" stop-color="#F0F0F0"/>
</linearGradient>
</defs>
</svg>
