<svg width="24" height="24" viewBox="0 0 24 24" fill="none" xmlns="http://www.w3.org/2000/svg">
<path d="M7.02031 1.5C5.70031 1.5 4.46881 2.5215 4.50481 3.9675C4.54231 5.493 4.86481 6.654 5.35381 7.578C5.84281 8.499 6.47581 9.138 7.06381 9.648C7.26781 9.825 7.47781 9.993 7.66831 10.1475L7.88881 10.3275C8.14231 10.5345 8.34931 10.7145 8.51881 10.896C8.83981 11.235 9.00031 11.55 9.00031 12C9.00031 12.45 8.83981 12.765 8.52181 13.104C8.35231 13.284 8.14531 13.4655 7.89181 13.674L7.66981 13.8525C7.46612 14.0152 7.26509 14.1812 7.06681 14.3505C6.47731 14.8605 5.84431 15.501 5.35681 16.4205C4.86481 17.3445 4.54231 18.5055 4.50181 20.0295C4.46431 21.477 5.69881 22.5 7.02031 22.5H16.9773C18.2988 22.5 19.5333 21.477 19.4958 20.0295C19.4553 18.5055 19.1328 17.3445 18.6438 16.422C18.1548 15.4995 17.5218 14.862 16.9338 14.352C16.7298 14.175 16.5213 14.007 16.3308 13.8525L16.1103 13.6725C15.8872 13.4981 15.6766 13.3081 15.4803 13.104C15.1608 12.765 15.0003 12.45 15.0003 12C15.0003 11.55 15.1623 11.235 15.4803 10.896C15.6513 10.7145 15.8583 10.5345 16.1103 10.326L16.3323 10.1475C16.5228 9.9945 16.7328 9.825 16.9368 9.648C17.5263 9.138 18.1593 8.499 18.6468 7.578C19.1373 6.654 19.4598 5.493 19.4973 3.9675C19.5303 2.5215 18.2973 1.5 16.9788 1.5H7.02031ZM6.00331 3.93C5.99131 3.45 6.41431 3 7.02181 3H16.9788C17.5848 3 18.0078 3.45 17.9958 3.93C17.9628 5.256 17.6868 6.183 17.3208 6.8745C16.9548 7.566 16.4703 8.067 15.9543 8.514C15.7698 8.673 15.5928 8.817 15.4098 8.964L15.1593 9.1665C14.8852 9.38318 14.6266 9.61876 14.3853 9.8715C13.8828 10.4055 13.5003 11.07 13.5003 12C13.5003 12.927 13.8813 13.593 14.3838 14.13C14.6238 14.385 14.8953 14.6175 15.1578 14.8335L15.4083 15.036C15.5898 15.183 15.7683 15.327 15.9513 15.486C16.4673 15.933 16.9488 16.431 17.3163 17.1255C17.6838 17.8155 17.9613 18.7425 17.9943 20.0685C18.0063 20.5485 17.5833 21 16.9758 21H7.02031C6.41281 21 5.98981 20.5485 6.00181 20.0685C6.03631 18.7425 6.31381 17.8155 6.67981 17.1255C7.04881 16.4325 7.53031 15.933 8.04781 15.486C8.23231 15.327 8.40931 15.1845 8.59081 15.036L8.84281 14.8335C9.10531 14.6175 9.37681 14.3865 9.61681 14.1285C10.1193 13.593 10.5018 12.9285 10.5018 11.9985C10.5018 11.0715 10.1178 10.407 9.61681 9.87C9.37501 9.61772 9.11588 9.38265 8.84131 9.1665L8.59081 8.964C8.40931 8.817 8.23081 8.673 8.04631 8.514C7.53031 8.067 7.04731 7.5675 6.68131 6.8745C6.31381 6.1845 6.03781 5.256 6.00631 3.93M9.03031 16.62L9.17281 16.5H14.8308L14.9718 16.62C15.4158 17.004 15.7473 17.3625 15.9948 17.829C16.1898 18.198 16.3788 18.7215 16.4598 19.5H7.53781C7.61881 18.7215 7.80781 18.1995 8.00281 17.829C8.25031 17.364 8.58181 17.004 9.02731 16.6215" fill="#F39C1B"/>
</svg>
